<?xml version="1.0" encoding="utf-8"?>
<svg xmlns="http://www.w3.org/2000/svg" x="0px" y="0px" version="1.1" viewBox="35 181 236 101">
    <g>
        <polygon fill="#fff" points="36.4,228.6 36.5,228.3 37.2,228.9 38,229.6 38.9,230.2 39.7,230.8 40.6,231.2 41.6,231.8
			43,232.3 44.2,232.6 45.5,232.7 47.2,232.8 48.4,232.8 49.5,232.7 50.8,232.5 52.6,232.1 54.4,231.6 55.8,231.1 57.6,230.5
			59.2,229.8 60.8,229 62,228.4 63.3,227.6 64.7,226.5 65.9,225.6 67,224.7 68.2,223.6 69.3,222.6 71.2,220.8 72.6,219.5
			73.9,218.2 75.1,217 76.5,215.7 77.9,214.4 79.2,213.3 80.5,211.9 82,210.6 83.6,209 85.1,207.5 86.5,206.2 87.8,204.9
			89.1,203.7 90.4,202.5 91.6,201.3 93,199.9 94.4,198.7 95.3,197.9 96.6,196.8 97.9,195.7 98.7,194.9 99.7,194 100.8,193.2
			102,192.2 103,191.4 104.1,190.6 105.1,189.8 106.1,189.1 107.7,188 109.2,187 110.9,186 112.2,185.2 113.4,184.7 114.4,184.3
			115.2,183.9 116.4,183.5 117.8,183 119.1,182.7 119.9,182.6 121.4,182.3 123.2,182.1 124.8,182 125.9,182 127.6,182.1
			128.9,182.2 130.2,182.3 131.5,182.6 132.7,182.9 133.7,183.2 134.9,183.7 135.8,184.1 136.6,184.8 137.4,185.6 138,186.4
			138.3,187.1 138.6,188.1 138.7,189.2 138.7,190.2 138.6,191.2 138.4,192.2 138,193.2 137.4,194.2 136.6,194.9 135.7,195.6
			134.7,196.2 133.4,196.7 132.1,197.1 130.7,197.2 129.3,197.1 128,196.9 126.8,196.6 125.5,196 124.5,195.5 123.6,194.4
			123,193.5 122.5,192.4 122.2,191.3 122.1,190.3 122.1,189.2 122.4,188.2 122.7,187.7 123.1,187.2 123.4,186.8 123.9,186.5
			123.4,186.4 122.7,186.4 122.1,186.6 121.4,186.9 120.3,187.5 119.1,188.3 117.9,189.2 116.7,190.2 115.6,191.1 114.5,192.2
			113.6,193 112.4,194.2 111,195.8 108.3,198.9 107.2,200 106,201.2 105.4,201.9 104.4,202.9 103.1,204.3 101.9,205.5 100.9,206.5
			99.8,207.7 99,208.4 98,209.5 96.8,210.8 95.6,211.9 94.4,213.2 93.2,214.5 92,215.7 91.1,216.6 89.7,217.9 88.9,218.6
			87.8,219.5 86.8,220.4 85.6,221.6 84.3,222.7 83.1,223.6 82.1,224.4 80.8,225.4 79.3,226.5 78.2,227.4 77.1,228.2 75.7,229.2
			74.2,230.2 72.3,231.2 70.8,232 69.4,232.7 68.1,233.1 66,233.9 64.3,234.4 62.3,234.9 60.5,235.2 58,235.6 55.6,235.8
			53.5,235.9 51.2,235.8 49.5,235.7 47.7,235.5 46.2,235.2 44.6,234.8 43.3,234.4 42.2,234 41.3,233.7 40.4,233.2 39.6,232.7
			38.7,232.1 38,231.4 37.3,230.5 36.7,229.6 36.4,229 		"/>
        <polygon fill="#fff" points="110.5,230.1 111.6,230.9 112.5,231.4 113.3,231.8 114.2,232.1 115.1,232.3 116.2,232.4
			117.2,232.4 118.5,232.3 119.3,232.1 120,231.9 120.8,231.5 121.5,231 121.8,230.5 122.1,230 121.2,230.2 120.3,230.2
			119.5,230.3 118.4,230.2 117.6,230 116.7,229.7 115.9,229.3 115.2,228.9 114.5,228.3 114.1,227.9 113.8,227.4 113.4,226.7
			113.3,226.1 113.2,225.2 113.2,224.2 113.3,223 113.7,221.9 114.1,221.2 114.4,220.5 115,219.8 115.6,219.3 116.4,218.6
			117.1,218.3 117.8,218 118.8,217.7 119.8,217.4 121,217.3 121.8,217.2 122.5,217.2 123.1,217.3 124.1,217.4 125.3,217.7
			126.3,218.1 127.2,218.5 128.2,219.3 128.6,219.9 129.1,220.5 129.5,221.4 129.7,222.3 129.9,223.2 130,223.9 130,224.7
			129.8,225.6 129.7,226.2 129.3,227.8 128.9,228.6 128.5,229.4 127.9,230.2 127.3,230.9 126.5,231.8 125.9,232.4 124.8,233.3
			123.9,233.9 122.9,234.5 121.9,235 120.8,235.4 119.6,235.7 118.1,236.1 116.7,236.3 115.1,236.4 113.6,236.5 112,236.4
			110.4,236.3 108.9,236 106.8,235.3 105.4,234.7 104.1,234 102.8,233.1 101.8,232.3 101.1,231.7 100.4,231.1 99.8,230.5
			99.1,229.7 98.6,229 98.2,228.4 97.7,227.6 97.4,227 97,226 96.6,224.9 96.4,223.5 96.1,222.3 96.1,220.9 96.1,219.7 96.1,218.4
			96.3,217.3 96.7,215.7 96.9,214.7 97.4,213.6 97.8,212.7 98.4,211.6 99.1,210.4 100,209.3 100.9,208.1 101.9,207 103,206
			104,205.1 105.2,204.3 106.3,203.6 107.7,202.8 109,202.3 110.2,201.7 111.4,201.3 112.7,200.8 114,200.5 115.3,200.3
			116.5,200.1 118,200 119.4,199.9 120.7,199.9 121.8,200 123.1,200 124.3,200.2 125.5,200.3 127.2,200.7 128.4,201 129.4,201.5
			129.8,201.9 129.8,202.1 129.2,202.1 128.6,201.9 128,201.8 126.9,201.7 125,201.6 123.9,201.6 122.8,201.7 121.3,201.8
			120.2,202 119,202.3 118,202.6 116.9,202.9 115.9,203.4 114.9,204 113.9,204.6 113,205.2 112.2,205.9 111.3,206.7 110.6,207.5
			109.8,208.5 109.1,209.6 108.6,210.3 108,211.5 107.5,212.5 107.1,213.6 106.7,214.8 106.4,215.9 106.3,217.7 106.2,218.9
			106.3,219.9 106.4,221.4 106.5,222.5 106.7,223.6 107,224.8 107.5,226.2 107.9,227.1 108.5,228.1 109,228.7 109.8,229.4 		"/>
        <path fill="#fff" d="M143.3,204.3c0.5,0.8,1.2,1.4,2.1,1.8c0.8,0.4,1.7,0.6,2.6,0.6c0.5,0,1-0.1,1.5-0.2c0.5-0.2,1-0.4,1.4-0.7
			c0.4-0.3,0.8-0.7,1-1.2c0.3-0.5,0.4-1,0.4-1.6c0-0.9-0.3-1.5-0.8-1.9c-0.5-0.4-1.2-0.8-2-1.1c-0.8-0.3-1.7-0.6-2.6-0.9
			c-0.9-0.3-1.8-0.7-2.6-1.2c-0.8-0.5-1.5-1.2-2-2c-0.5-0.8-0.8-2-0.8-3.4c0-0.6,0.1-1.3,0.4-2.1c0.3-0.7,0.7-1.4,1.3-2
			c0.6-0.6,1.4-1.1,2.3-1.5c0.9-0.4,2.1-0.6,3.4-0.6c1.2,0,2.4,0.2,3.5,0.5c1.1,0.3,2.1,1,2.9,2l-2.4,2.2c-0.4-0.6-0.9-1-1.6-1.4
			c-0.7-0.4-1.5-0.5-2.3-0.5c-0.8,0-1.5,0.1-2.1,0.3c-0.6,0.2-1,0.5-1.3,0.8c-0.3,0.3-0.6,0.7-0.7,1.1c-0.1,0.4-0.2,0.8-0.2,1.1
			c0,0.9,0.3,1.7,0.8,2.2c0.5,0.5,1.2,0.9,2,1.2c0.8,0.3,1.7,0.6,2.6,0.8c0.9,0.3,1.8,0.6,2.6,1c0.8,0.4,1.5,1.1,2,1.8
			c0.5,0.8,0.8,1.8,0.8,3.1c0,1.1-0.2,2-0.6,2.9c-0.4,0.9-1,1.6-1.6,2.2c-0.7,0.6-1.5,1-2.4,1.3c-0.9,0.3-1.9,0.5-3,0.5
			c-1.4,0-2.8-0.3-4-0.7c-1.3-0.5-2.3-1.3-3-2.3L143.3,204.3z"/>
        <path fill="#fff" d="M168.1,198.1c-0.5-0.5-1.1-1-1.6-1.2c-0.6-0.3-1.3-0.4-2-0.4c-0.8,0-1.4,0.1-2,0.4
			c-0.6,0.3-1.1,0.7-1.4,1.2c-0.4,0.5-0.7,1-0.9,1.7c-0.2,0.6-0.3,1.3-0.3,2c0,0.7,0.1,1.3,0.3,1.9c0.2,0.6,0.6,1.1,1,1.6
			c0.4,0.5,0.9,0.8,1.5,1.1c0.6,0.3,1.2,0.4,2,0.4c0.8,0,1.5-0.1,2-0.4s1.1-0.7,1.6-1.2l2,2c-0.7,0.8-1.6,1.4-2.5,1.7
			c-1,0.4-2,0.5-3.1,0.5c-1.1,0-2.2-0.2-3.1-0.6c-0.9-0.4-1.8-0.9-2.4-1.6c-0.7-0.7-1.2-1.5-1.6-2.4c-0.4-0.9-0.6-2-0.6-3.1
			c0-1.1,0.2-2.2,0.6-3.1c0.4-1,0.9-1.8,1.6-2.5c0.7-0.7,1.5-1.2,2.4-1.6c0.9-0.4,2-0.6,3.2-0.6c1.1,0,2.1,0.2,3.1,0.6
			c1,0.4,1.8,1,2.6,1.8L168.1,198.1z"/>
        <path fill="#fff" d="M171.8,185.4h2.8v11.1h0.1c0.4-0.8,1-1.4,1.8-1.9c0.9-0.5,1.9-0.7,3-0.7c0.7,0,1.4,0.1,2,0.3
			c0.7,0.2,1.2,0.6,1.7,1c0.5,0.5,0.9,1,1.2,1.8c0.3,0.7,0.4,1.6,0.4,2.5v9.5h-2.8v-8.7c0-0.7-0.1-1.3-0.3-1.8
			c-0.2-0.5-0.4-0.9-0.7-1.2c-0.3-0.3-0.7-0.5-1.1-0.7c-0.4-0.1-0.8-0.2-1.3-0.2c-0.6,0-1.1,0.1-1.6,0.3c-0.5,0.2-0.9,0.5-1.3,0.9
			c-0.4,0.4-0.7,0.9-0.9,1.5c-0.2,0.6-0.3,1.4-0.3,2.2v7.6h-2.8V185.4z"/>
        <path fill="#fff" d="M186.7,201.6c0-1.1,0.2-2.1,0.6-3c0.4-0.9,1-1.8,1.7-2.5c0.7-0.7,1.5-1.3,2.5-1.7c1-0.4,2-0.6,3.1-0.6
			c1.1,0,2.1,0.2,3.1,0.6c1,0.4,1.8,1,2.5,1.7c0.7,0.7,1.3,1.5,1.7,2.5c0.4,0.9,0.6,1.9,0.6,3s-0.2,2.1-0.6,3
			c-0.4,0.9-1,1.8-1.7,2.5c-0.7,0.7-1.5,1.2-2.5,1.7c-1,0.4-2,0.6-3.1,0.6c-1.1,0-2.1-0.2-3.1-0.6c-1-0.4-1.8-1-2.5-1.7
			c-0.7-0.7-1.3-1.5-1.7-2.5C186.9,203.7,186.7,202.6,186.7,201.6z M189.7,201.6c0,0.7,0.1,1.4,0.3,2.1c0.2,0.6,0.6,1.2,1,1.6
			c0.4,0.4,0.9,0.8,1.5,1.1c0.6,0.3,1.3,0.4,2,0.4c0.7,0,1.4-0.1,2-0.4c0.6-0.3,1.1-0.6,1.5-1.1c0.4-0.4,0.7-1,1-1.6
			c0.2-0.6,0.3-1.3,0.3-2.1s-0.1-1.4-0.3-2.1c-0.2-0.6-0.6-1.2-1-1.6c-0.4-0.4-0.9-0.8-1.5-1.1c-0.6-0.3-1.3-0.4-2-0.4
			c-0.7,0-1.4,0.1-2,0.4c-0.6,0.3-1.1,0.6-1.5,1.1c-0.4,0.4-0.7,1-1,1.6C189.8,200.1,189.7,200.8,189.7,201.6z"/>
        <path fill="#fff" d="M205.4,185.4h2.8V209h-2.8V185.4z"/>
        <path fill="#fff" d="M212,196c0.8-0.7,1.7-1.3,2.7-1.6c1-0.4,2.1-0.5,3.1-0.5c1.1,0,2,0.1,2.8,0.4c0.8,0.3,1.4,0.6,1.9,1.1
			c0.5,0.5,0.9,1,1.1,1.6c0.2,0.6,0.4,1.2,0.4,1.9v7.5c0,0.5,0,1,0,1.4c0,0.4,0.1,0.9,0.1,1.2h-2.5c-0.1-0.7-0.1-1.5-0.1-2.2h-0.1
			c-0.6,1-1.4,1.6-2.2,2c-0.9,0.4-1.8,0.6-3,0.6c-0.7,0-1.3-0.1-2-0.3c-0.6-0.2-1.2-0.5-1.6-0.8c-0.5-0.4-0.8-0.8-1.1-1.4
			c-0.3-0.6-0.4-1.2-0.4-1.9c0-1,0.2-1.8,0.6-2.4c0.4-0.6,1-1.2,1.7-1.6c0.7-0.4,1.6-0.7,2.6-0.9c1-0.2,2-0.3,3.2-0.3h2.1v-0.6
			c0-0.4-0.1-0.7-0.2-1.1c-0.1-0.4-0.4-0.7-0.7-1c-0.3-0.3-0.7-0.5-1.1-0.7c-0.4-0.2-1-0.3-1.6-0.3c-0.5,0-1,0.1-1.4,0.2
			c-0.4,0.1-0.8,0.2-1.1,0.4c-0.3,0.2-0.6,0.3-0.9,0.5s-0.5,0.4-0.8,0.6L212,196z M219.9,201.8c-0.7,0-1.3,0-2,0.1
			c-0.7,0.1-1.3,0.2-1.9,0.4c-0.6,0.2-1,0.5-1.4,0.9c-0.4,0.4-0.5,0.9-0.5,1.4c0,0.9,0.3,1.5,0.9,1.8c0.6,0.4,1.3,0.6,2.3,0.6
			c0.8,0,1.4-0.1,2-0.4c0.5-0.3,1-0.6,1.3-1c0.3-0.4,0.6-0.9,0.7-1.4s0.2-1,0.2-1.5v-0.9H219.9z"/>
        <path fill="#fff" d="M158,217.2c-0.6-0.8-1.4-1.4-2.4-1.9c-1-0.4-1.9-0.7-3-0.7c-1.2,0-2.4,0.2-3.4,0.7c-1,0.5-1.9,1.1-2.6,1.9
			c-0.7,0.8-1.3,1.8-1.7,2.9c-0.4,1.1-0.6,2.3-0.6,3.5c0,1.2,0.2,2.3,0.6,3.3c0.4,1,0.9,2,1.6,2.7c0.7,0.8,1.6,1.4,2.6,1.9
			c1,0.5,2.2,0.7,3.5,0.7c1.3,0,2.4-0.3,3.3-0.8c1-0.5,1.8-1.2,2.4-2.2l2.5,1.9c-0.2,0.2-0.5,0.6-0.9,1c-0.4,0.4-1,0.9-1.7,1.3
			c-0.7,0.4-1.5,0.8-2.5,1.1c-1,0.3-2.1,0.5-3.4,0.5c-1.7,0-3.3-0.3-4.7-1c-1.4-0.7-2.6-1.5-3.6-2.6c-1-1.1-1.7-2.3-2.3-3.7
			c-0.5-1.4-0.8-2.7-0.8-4.1c0-1.7,0.3-3.3,0.8-4.7c0.6-1.4,1.3-2.7,2.4-3.7c1-1,2.2-1.9,3.6-2.4c1.4-0.6,3-0.9,4.7-0.9
			c1.5,0,2.9,0.3,4.3,0.8c1.4,0.6,2.6,1.4,3.4,2.6L158,217.2z"/>
        <path fill="#fff" d="M162.2,221.5c0.8-0.7,1.7-1.3,2.7-1.6c1-0.4,2.1-0.5,3.1-0.5c1.1,0,2,0.1,2.8,0.4c0.8,0.3,1.4,0.6,1.9,1.1
			c0.5,0.5,0.9,1,1.1,1.6s0.4,1.2,0.4,1.9v7.5c0,0.5,0,1,0,1.4c0,0.4,0.1,0.9,0.1,1.2h-2.5c-0.1-0.7-0.1-1.5-0.1-2.2h-0.1
			c-0.6,1-1.4,1.6-2.2,2c-0.9,0.4-1.8,0.6-3,0.6c-0.7,0-1.3-0.1-2-0.3c-0.6-0.2-1.2-0.5-1.6-0.8c-0.5-0.4-0.8-0.8-1.1-1.4
			s-0.4-1.2-0.4-1.9c0-1,0.2-1.8,0.6-2.4c0.4-0.6,1-1.2,1.7-1.6c0.7-0.4,1.6-0.7,2.6-0.9c1-0.2,2-0.3,3.2-0.3h2.1v-0.6
			c0-0.4-0.1-0.7-0.2-1.1c-0.1-0.4-0.4-0.7-0.7-1c-0.3-0.3-0.7-0.5-1.1-0.7c-0.4-0.2-1-0.3-1.6-0.3c-0.5,0-1,0.1-1.4,0.2
			c-0.4,0.1-0.8,0.2-1.1,0.4c-0.3,0.2-0.6,0.3-0.9,0.5s-0.5,0.4-0.8,0.6L162.2,221.5z M170.1,227.4c-0.7,0-1.3,0-2,0.1
			c-0.7,0.1-1.3,0.2-1.9,0.4c-0.6,0.2-1,0.5-1.4,0.9c-0.4,0.4-0.5,0.9-0.5,1.4c0,0.9,0.3,1.5,0.9,1.8c0.6,0.4,1.3,0.6,2.3,0.6
			c0.8,0,1.4-0.1,2-0.4c0.5-0.3,1-0.6,1.3-1c0.3-0.4,0.6-0.9,0.7-1.4c0.1-0.5,0.2-1,0.2-1.5v-0.9H170.1z"/>
        <path fill="#fff" d="M176.6,219.7h2.8v2.3h0.1c0.4-0.8,1-1.4,1.8-1.9c0.9-0.5,1.9-0.7,3-0.7c0.7,0,1.4,0.1,2,0.3
			c0.7,0.2,1.2,0.6,1.7,1c0.5,0.5,0.9,1,1.2,1.8c0.3,0.7,0.4,1.6,0.4,2.5v9.5h-2.8v-8.7c0-0.7-0.1-1.3-0.3-1.8
			c-0.2-0.5-0.4-0.9-0.7-1.2c-0.3-0.3-0.7-0.5-1.1-0.7c-0.4-0.1-0.8-0.2-1.3-0.2c-0.6,0-1.1,0.1-1.6,0.3c-0.5,0.2-0.9,0.5-1.3,0.9
			c-0.4,0.4-0.7,0.9-0.9,1.5c-0.2,0.6-0.3,1.4-0.3,2.2v7.6h-2.8V219.7z"/>
        <path fill="#fff" d="M201.1,222.1h-4v6.7c0,0.4,0,0.8,0,1.2c0,0.4,0.1,0.8,0.2,1.1c0.1,0.3,0.3,0.6,0.6,0.8
			c0.3,0.2,0.7,0.3,1.2,0.3c0.3,0,0.7,0,1-0.1c0.4-0.1,0.7-0.2,1-0.3v2.6c-0.3,0.2-0.8,0.3-1.3,0.4c-0.5,0.1-0.9,0.1-1.2,0.1
			c-1.1,0-1.9-0.2-2.5-0.5c-0.6-0.3-1-0.7-1.3-1.2c-0.3-0.5-0.4-1-0.5-1.6c-0.1-0.6-0.1-1.2-0.1-1.8v-7.7H191v-2.4h3.2v-4.1h2.8v4.1
			h4V222.1z"/>
        <path fill="#fff" d="M202.3,227.1c0-1.1,0.2-2.1,0.6-3c0.4-0.9,1-1.8,1.7-2.5c0.7-0.7,1.5-1.3,2.5-1.7c1-0.4,2-0.6,3.1-0.6
			c1.1,0,2.1,0.2,3.1,0.6c1,0.4,1.8,1,2.5,1.7c0.7,0.7,1.3,1.5,1.7,2.5c0.4,0.9,0.6,1.9,0.6,3s-0.2,2.1-0.6,3
			c-0.4,0.9-1,1.8-1.7,2.5c-0.7,0.7-1.5,1.2-2.5,1.7c-1,0.4-2,0.6-3.1,0.6c-1.1,0-2.1-0.2-3.1-0.6c-1-0.4-1.8-1-2.5-1.7
			c-0.7-0.7-1.3-1.5-1.7-2.5C202.5,229.2,202.3,228.2,202.3,227.1z M205.2,227.1c0,0.7,0.1,1.4,0.3,2.1c0.2,0.6,0.6,1.2,1,1.6
			c0.4,0.4,0.9,0.8,1.5,1.1c0.6,0.3,1.3,0.4,2,0.4c0.7,0,1.4-0.1,2-0.4c0.6-0.3,1.1-0.6,1.5-1.1c0.4-0.4,0.7-1,1-1.6
			c0.2-0.6,0.3-1.3,0.3-2.1c0-0.7-0.1-1.4-0.3-2.1c-0.2-0.6-0.6-1.2-1-1.6c-0.4-0.4-0.9-0.8-1.5-1.1c-0.6-0.3-1.3-0.4-2-0.4
			c-0.7,0-1.4,0.1-2,0.4c-0.6,0.3-1.1,0.6-1.5,1.1c-0.4,0.4-0.7,1-1,1.6C205.4,225.6,205.2,226.3,205.2,227.1z"/>
        <path fill="#fff" d="M219.7,219.7h2.8v2.3h0.1c0.2-0.4,0.4-0.8,0.7-1.1c0.3-0.3,0.7-0.6,1-0.8c0.4-0.2,0.8-0.4,1.3-0.5
			c0.5-0.1,0.9-0.2,1.4-0.2c0.5,0,0.9,0.1,1.2,0.2l-0.1,3c-0.2-0.1-0.5-0.1-0.7-0.2c-0.2,0-0.5-0.1-0.7-0.1c-1.4,0-2.4,0.4-3.1,1.2
			c-0.7,0.8-1.1,2-1.1,3.6v7.4h-2.8V219.7z"/>
        <path fill="#fff" d="M243.6,234.5h-2.8v-2.3h-0.1c-0.4,0.8-1,1.4-1.8,1.9c-0.9,0.5-1.9,0.7-3,0.7c-0.7,0-1.4-0.1-2.1-0.3
			c-0.6-0.2-1.2-0.6-1.7-1c-0.5-0.5-0.9-1-1.2-1.8c-0.3-0.7-0.4-1.6-0.4-2.5v-9.5h2.8v8.7c0,0.7,0.1,1.3,0.3,1.8
			c0.2,0.5,0.4,0.9,0.7,1.2c0.3,0.3,0.7,0.5,1.1,0.7c0.4,0.1,0.8,0.2,1.3,0.2c0.6,0,1.1-0.1,1.6-0.3c0.5-0.2,0.9-0.5,1.3-0.9
			c0.4-0.4,0.7-0.9,0.9-1.5c0.2-0.6,0.3-1.4,0.3-2.2v-7.6h2.8V234.5z"/>
        <path fill="#fff" d="M247.1,219.7h2.6v2.3h0.1c0.1-0.2,0.2-0.5,0.5-0.8c0.3-0.3,0.6-0.6,1-0.9c0.4-0.3,0.9-0.5,1.4-0.7
			c0.6-0.2,1.2-0.3,1.8-0.3c1.1,0,2,0.2,2.8,0.7c0.7,0.5,1.4,1.1,1.8,2.1c0.5-0.9,1.2-1.6,2-2.1c0.9-0.5,1.8-0.7,2.7-0.7
			c1.1,0,2.1,0.2,2.8,0.6c0.7,0.4,1.3,0.9,1.7,1.5c0.4,0.6,0.7,1.3,0.9,2.1c0.2,0.8,0.2,1.6,0.2,2.4v8.6h-2.8v-8.2
			c0-0.6,0-1.1-0.1-1.6c-0.1-0.5-0.2-1-0.5-1.4c-0.2-0.4-0.6-0.7-1-1c-0.4-0.2-1-0.4-1.7-0.4c-1.4,0-2.3,0.4-2.9,1.2
			s-0.9,1.9-0.9,3.2v8.1h-2.8v-7.7c0-0.7,0-1.4-0.1-1.9c-0.1-0.6-0.2-1.1-0.4-1.5c-0.2-0.4-0.5-0.8-0.9-1c-0.4-0.2-1-0.4-1.6-0.4
			c-0.5,0-1,0.1-1.5,0.3c-0.5,0.2-0.9,0.5-1.2,0.9c-0.4,0.4-0.6,0.9-0.8,1.5c-0.2,0.6-0.3,1.3-0.3,2.2v7.7h-2.8V219.7z"/>
        <g>
            <path fill="#fff" d="M183.5,243.9c-0.2-0.3-0.5-0.6-0.9-0.7c-0.4-0.2-0.8-0.3-1.2-0.3c-0.3,0-0.5,0-0.8,0.1
				c-0.3,0.1-0.5,0.2-0.8,0.4c-0.2,0.2-0.4,0.4-0.6,0.6c-0.2,0.3-0.2,0.6-0.2,0.9c0,0.2,0,0.5,0.1,0.6c0.1,0.2,0.2,0.3,0.4,0.5
				s0.4,0.3,0.6,0.4c0.2,0.1,0.5,0.2,0.7,0.3c0.4,0.2,0.8,0.3,1.2,0.5c0.4,0.2,0.7,0.4,0.9,0.7c0.3,0.3,0.5,0.5,0.6,0.9
				c0.2,0.3,0.2,0.7,0.2,1.1c0,0.5-0.1,1-0.3,1.4s-0.5,0.8-0.8,1.1c-0.4,0.3-0.8,0.6-1.3,0.8c-0.5,0.2-1.1,0.3-1.8,0.3
				c-0.4,0-0.7,0-1.1-0.1c-0.4-0.1-0.7-0.2-1-0.3c-0.3-0.1-0.6-0.3-0.9-0.5c-0.3-0.2-0.5-0.5-0.7-0.8l1.3-0.9c0.2,0.4,0.5,0.7,1,0.9
				c0.4,0.3,0.9,0.4,1.5,0.4c0.3,0,0.6,0,0.9-0.1c0.3-0.1,0.6-0.2,0.8-0.4c0.2-0.2,0.4-0.4,0.6-0.7c0.1-0.3,0.2-0.6,0.2-0.9
				c0-0.3-0.1-0.5-0.2-0.8c-0.1-0.2-0.3-0.4-0.5-0.6c-0.2-0.2-0.4-0.3-0.7-0.4c-0.3-0.1-0.5-0.2-0.8-0.3c-0.3-0.1-0.7-0.3-1-0.4
				c-0.3-0.2-0.6-0.4-0.8-0.6c-0.2-0.2-0.4-0.5-0.6-0.8c-0.1-0.3-0.2-0.7-0.2-1.1c0-0.5,0.1-1,0.3-1.4c0.2-0.4,0.5-0.8,0.9-1.1
				s0.8-0.5,1.3-0.7c0.5-0.2,1.1-0.2,1.7-0.2c0.7,0,1.3,0.1,1.8,0.4s1,0.6,1.3,1L183.5,243.9z"/>
            <path fill="#fff" d="M186.5,253.2H185l1.3-7.6h1.5L186.5,253.2z M188.5,242.8c0,0.3-0.1,0.5-0.3,0.7c-0.2,0.2-0.4,0.3-0.7,0.3
				c-0.3,0-0.5-0.1-0.7-0.2c-0.2-0.2-0.3-0.4-0.3-0.7s0.1-0.5,0.3-0.7c0.2-0.2,0.4-0.3,0.7-0.3s0.5,0.1,0.6,0.3
				C188.4,242.3,188.5,242.5,188.5,242.8z"/>
            <path fill="#fff" d="M190.4,253.2h-1.5l2.1-12.1h1.5L190.4,253.2z"/>
            <path fill="#fff" d="M194.2,253.2h-1.5l1.3-7.6h1.5L194.2,253.2z M196.1,242.8c0,0.3-0.1,0.5-0.3,0.7
				c-0.2,0.2-0.4,0.3-0.7,0.3c-0.3,0-0.5-0.1-0.7-0.2c-0.2-0.2-0.3-0.4-0.3-0.7s0.1-0.5,0.3-0.7c0.2-0.2,0.4-0.3,0.7-0.3
				s0.5,0.1,0.6,0.3C196.1,242.3,196.1,242.5,196.1,242.8z"/>
            <path fill="#fff" d="M202.8,247.5c-0.1-0.3-0.3-0.5-0.6-0.6c-0.3-0.2-0.6-0.3-1-0.3c-0.4,0-0.8,0.1-1.2,0.3s-0.7,0.4-1,0.7
				s-0.5,0.7-0.6,1.1c-0.1,0.4-0.2,0.8-0.2,1.3c0,0.3,0,0.6,0.1,0.9s0.2,0.5,0.4,0.7c0.2,0.2,0.4,0.4,0.7,0.5c0.3,0.1,0.6,0.2,1,0.2
				c0.5,0,0.9-0.1,1.2-0.3s0.6-0.4,0.9-0.7l0.9,0.8c-0.4,0.4-0.9,0.7-1.4,1c-0.5,0.2-1.1,0.4-1.7,0.4c-0.5,0-1-0.1-1.5-0.2
				s-0.8-0.4-1.1-0.7s-0.5-0.6-0.7-1c-0.2-0.4-0.3-0.8-0.3-1.3c0-0.6,0.1-1.2,0.3-1.8c0.2-0.6,0.5-1.1,0.9-1.5
				c0.4-0.4,0.9-0.8,1.4-1c0.6-0.3,1.2-0.4,1.9-0.4c0.3,0,0.6,0,0.8,0.1c0.3,0.1,0.5,0.1,0.8,0.2c0.2,0.1,0.5,0.2,0.7,0.4
				s0.4,0.4,0.5,0.6L202.8,247.5z"/>
            <path fill="#fff" d="M207.8,253.4c-0.5,0-1-0.1-1.4-0.2s-0.8-0.4-1.1-0.7s-0.6-0.6-0.8-1s-0.3-0.9-0.3-1.3
				c0-0.6,0.1-1.2,0.3-1.8c0.2-0.6,0.5-1.1,0.9-1.5c0.4-0.4,0.9-0.8,1.4-1c0.6-0.2,1.2-0.4,1.9-0.4c0.5,0,1,0.1,1.4,0.2
				c0.4,0.2,0.8,0.4,1.1,0.7c0.3,0.3,0.6,0.6,0.7,1c0.2,0.4,0.3,0.8,0.3,1.3c0,0.6-0.1,1.2-0.3,1.8c-0.2,0.6-0.5,1.1-0.9,1.5
				c-0.4,0.4-0.9,0.8-1.4,1C209.1,253.2,208.4,253.4,207.8,253.4z M210.8,248.8c0-0.3-0.1-0.6-0.2-0.9c-0.1-0.3-0.2-0.5-0.4-0.7
				s-0.4-0.4-0.7-0.5c-0.3-0.1-0.6-0.2-0.9-0.2c-0.4,0-0.8,0.1-1.2,0.3c-0.4,0.2-0.7,0.4-0.9,0.7c-0.3,0.3-0.5,0.7-0.6,1.1
				c-0.1,0.4-0.2,0.8-0.2,1.3c0,0.6,0.2,1.2,0.6,1.6c0.4,0.4,0.9,0.6,1.6,0.6c0.4,0,0.8-0.1,1.2-0.3c0.4-0.2,0.7-0.4,0.9-0.7
				c0.3-0.3,0.5-0.7,0.6-1.1C210.7,249.7,210.8,249.2,210.8,248.8z"/>
            <path fill="#fff" d="M216.1,245.6c0,0.1,0,0.3-0.1,0.6c0,0.3-0.1,0.5-0.1,0.6h0c0.3-0.4,0.6-0.8,1.1-1
				c0.4-0.3,0.9-0.4,1.5-0.4c0.8,0,1.5,0.2,1.9,0.7c0.4,0.4,0.6,1,0.6,1.7c0,0.3,0,0.5-0.1,0.8l-0.8,4.7h-1.5l0.7-4.2
				c0.1-0.3,0.1-0.6,0.1-0.8c0-0.4-0.1-0.8-0.3-1.1c-0.2-0.3-0.6-0.4-1.2-0.4c-0.6,0-1.1,0.2-1.6,0.7s-0.7,1.1-0.9,1.8l-0.7,4h-1.5
				l1-5.9c0-0.2,0.1-0.5,0.1-0.8c0-0.3,0.1-0.6,0.1-0.9H216.1z"/>
            <path fill="#fff" d="M229.5,251.1L229.5,251.1l5.5-9.3h1.7l-6.9,11.3h-1.5l-1.8-11.3h1.7L229.5,251.1z"/>
            <path fill="#fff" d="M240.5,248.4c0-0.1,0-0.3,0-0.4s0-0.2,0-0.2c0-0.4-0.1-0.8-0.4-1c-0.3-0.2-0.7-0.3-1.2-0.3
				c-0.4,0-0.8,0.1-1.2,0.2c-0.4,0.2-0.8,0.4-1.1,0.6l-0.6-1c0.4-0.3,0.9-0.6,1.4-0.8s1.1-0.3,1.7-0.3c0.4,0,0.7,0,1,0.1
				s0.6,0.2,0.9,0.4c0.3,0.2,0.5,0.4,0.6,0.7s0.2,0.6,0.2,1c0,0.1,0,0.2,0,0.4s0,0.3,0,0.4l-0.6,3.1c-0.1,0.3-0.1,0.6-0.1,0.9
				s0,0.6,0,0.8h-1.4c0-0.2,0-0.3,0-0.5c0-0.2,0-0.4,0.1-0.5h0c-0.4,0.4-0.8,0.7-1.2,0.9s-0.9,0.3-1.5,0.3c-0.3,0-0.5,0-0.8-0.1
				c-0.3-0.1-0.5-0.2-0.8-0.3c-0.2-0.2-0.4-0.4-0.6-0.6s-0.2-0.6-0.2-1c0-0.6,0.2-1.1,0.5-1.5c0.3-0.4,0.8-0.7,1.3-0.9
				c0.5-0.2,1.1-0.3,1.8-0.4S239.8,248.4,240.5,248.4z M240.1,249.5c-0.4,0-0.8,0-1.3,0.1c-0.4,0-0.9,0.1-1.2,0.2s-0.7,0.3-0.9,0.5
				c-0.2,0.2-0.4,0.5-0.4,0.8c0,0.2,0,0.4,0.1,0.5c0.1,0.1,0.2,0.2,0.3,0.3c0.1,0.1,0.3,0.1,0.4,0.2c0.2,0,0.3,0,0.5,0
				c0.3,0,0.6-0.1,0.9-0.2c0.3-0.1,0.5-0.3,0.8-0.5c0.2-0.2,0.4-0.4,0.5-0.7c0.1-0.3,0.2-0.5,0.3-0.8l0.1-0.6H240.1z"/>
            <path fill="#fff" d="M244.8,253.2h-1.5l2.1-12.1h1.5L244.8,253.2z"/>
            <path fill="#fff" d="M248.6,253.2h-1.5l2.1-12.1h1.5L248.6,253.2z"/>
            <path fill="#fff" d="M252.5,249.8c0,0.1,0,0.1,0,0.1s0,0.1,0,0.1c0,0.3,0.1,0.6,0.2,0.8c0.1,0.2,0.3,0.5,0.5,0.7
				c0.2,0.2,0.4,0.3,0.7,0.4c0.3,0.1,0.6,0.2,0.9,0.2c0.5,0,1-0.1,1.4-0.3c0.4-0.2,0.7-0.5,1-0.8l0.9,0.8c-0.4,0.5-1,0.9-1.5,1.2
				c-0.6,0.3-1.2,0.4-1.9,0.4c-0.5,0-1-0.1-1.4-0.2c-0.4-0.1-0.8-0.4-1.1-0.7c-0.3-0.3-0.6-0.6-0.7-1.1s-0.3-0.9-0.3-1.4
				c0-0.6,0.1-1.2,0.3-1.8c0.2-0.6,0.5-1.1,0.9-1.5c0.4-0.4,0.9-0.8,1.4-1s1.1-0.4,1.8-0.4c1,0,1.7,0.3,2.3,0.8s0.8,1.3,0.8,2.2
				c0,0.1,0,0.4,0,0.6c0,0.3-0.1,0.5-0.1,0.8H252.5z M257.2,248.7c0-0.1,0-0.2,0-0.2c0-0.1,0-0.2,0-0.2c0-0.5-0.2-0.9-0.5-1.2
				c-0.3-0.3-0.8-0.5-1.4-0.5c-0.4,0-0.7,0.1-1,0.2s-0.6,0.3-0.8,0.5c-0.2,0.2-0.4,0.4-0.6,0.7c-0.2,0.3-0.3,0.5-0.3,0.8H257.2z"/>
            <path fill="#fff" d="M262.6,251.5L262.6,251.5l3.4-6h1.6L262,255c-0.2,0.3-0.4,0.6-0.6,0.9c-0.2,0.2-0.4,0.5-0.6,0.6
				c-0.2,0.2-0.4,0.3-0.7,0.4c-0.3,0.1-0.5,0.1-0.9,0.1c-0.3,0-0.6,0-0.9-0.1l0.2-1.3c0.2,0.1,0.5,0.1,0.7,0.1
				c0.3,0,0.6-0.1,0.8-0.3c0.2-0.2,0.5-0.5,0.7-0.9l0.8-1.3l-1.7-7.6h1.6L262.6,251.5z"/>
        </g>
    </g>
    <g>
        <path fill="#fff" d="M86.1,277.1c-0.5,0.3-1.1,0.5-1.8,0.6c-0.6,0.1-1.4,0.2-2.2,0.2c-0.9,0-1.6-0.1-2.4-0.4
			c-0.7-0.3-1.3-0.7-1.8-1.2s-0.9-1.1-1.2-1.8s-0.4-1.4-0.4-2.3c0-0.8,0.1-1.6,0.4-2.3c0.3-0.7,0.7-1.3,1.2-1.7
			c0.5-0.5,1.1-0.9,1.8-1.1c0.7-0.3,1.5-0.4,2.3-0.4c0.9,0,1.6,0.1,2.3,0.4s1.3,0.6,1.7,1l-1.3,1.4c-0.3-0.3-0.6-0.6-1.1-0.8
			s-1-0.3-1.6-0.3c-0.6,0-1.1,0.1-1.5,0.3c-0.5,0.2-0.8,0.5-1.2,0.8c-0.3,0.3-0.6,0.8-0.7,1.2c-0.2,0.5-0.3,1-0.3,1.5
			c0,0.6,0.1,1.1,0.3,1.6s0.4,0.9,0.8,1.2c0.3,0.4,0.7,0.6,1.2,0.8c0.5,0.2,1,0.3,1.6,0.3c0.8,0,1.5-0.1,2.1-0.4v-2.7H82v-1.6h4.1
			V277.1z"/>
        <path fill="#fff" d="M88,270.4h1.7v1.2h0c0.2-0.4,0.5-0.8,0.8-1c0.4-0.3,0.8-0.4,1.3-0.4c0.1,0,0.1,0,0.2,0s0.2,0,0.2,0v1.7
			c-0.1,0-0.2,0-0.3-0.1c-0.1,0-0.2,0-0.2,0c-0.4,0-0.7,0.1-1,0.2c-0.2,0.2-0.4,0.3-0.6,0.5c-0.1,0.2-0.2,0.4-0.3,0.6
			s-0.1,0.4-0.1,0.5v3.9H88V270.4z"/>
        <path fill="#fff" d="M99.7,274.1c0,0.1,0,0.2,0,0.2s0,0.2,0,0.2h-5.5c0,0.3,0.1,0.5,0.2,0.7c0.1,0.2,0.3,0.4,0.5,0.6
			c0.2,0.2,0.4,0.3,0.6,0.4c0.2,0.1,0.5,0.1,0.8,0.1c0.4,0,0.8-0.1,1.1-0.2c0.3-0.2,0.6-0.4,0.8-0.7l1.2,1c-0.7,1-1.7,1.4-3.1,1.4
			c-0.6,0-1.1-0.1-1.5-0.3c-0.5-0.2-0.9-0.4-1.2-0.7s-0.6-0.7-0.8-1.2c-0.2-0.5-0.3-1-0.3-1.6c0-0.6,0.1-1.1,0.3-1.6
			c0.2-0.5,0.5-0.9,0.8-1.2s0.7-0.6,1.2-0.8c0.5-0.2,1-0.3,1.5-0.3c0.5,0,1,0.1,1.4,0.2s0.8,0.4,1.1,0.7c0.3,0.3,0.6,0.7,0.7,1.2
			C99.7,272.9,99.7,273.5,99.7,274.1z M97.9,273.3c0-0.2,0-0.4-0.1-0.7c-0.1-0.2-0.2-0.4-0.3-0.6s-0.3-0.3-0.5-0.4
			c-0.2-0.1-0.5-0.1-0.8-0.1c-0.5,0-1,0.2-1.4,0.5s-0.6,0.7-0.6,1.3H97.9z"/>
        <path fill="#fff" d="M108.5,270.4v6.6c0,0.6-0.1,1.2-0.2,1.8c-0.2,0.5-0.4,1-0.7,1.3s-0.8,0.6-1.3,0.8
			c-0.5,0.2-1.1,0.3-1.8,0.3c-0.3,0-0.6,0-0.9-0.1c-0.3-0.1-0.6-0.1-1-0.2c-0.3-0.1-0.6-0.2-0.9-0.4c-0.3-0.1-0.5-0.3-0.8-0.5l1-1.4
			c0.3,0.3,0.7,0.6,1.2,0.8c0.4,0.2,0.9,0.3,1.3,0.3c0.4,0,0.8-0.1,1.1-0.2c0.3-0.1,0.5-0.3,0.7-0.5s0.3-0.5,0.4-0.8
			c0.1-0.3,0.1-0.6,0.1-1v-0.5h0c-0.3,0.4-0.6,0.6-1,0.8s-0.9,0.3-1.4,0.3c-0.5,0-1-0.1-1.5-0.3c-0.4-0.2-0.8-0.5-1.1-0.8
			c-0.3-0.3-0.5-0.7-0.7-1.2c-0.2-0.5-0.3-0.9-0.3-1.4c0-0.5,0.1-1,0.2-1.5s0.4-0.9,0.7-1.2c0.3-0.3,0.7-0.6,1.1-0.8
			c0.4-0.2,0.9-0.3,1.5-0.3c0.5,0,1,0.1,1.4,0.3c0.4,0.2,0.8,0.5,1.1,1h0v-1.1H108.5z M104.7,271.7c-0.3,0-0.6,0.1-0.9,0.2
			c-0.3,0.1-0.5,0.3-0.6,0.5s-0.3,0.4-0.4,0.7c-0.1,0.3-0.1,0.6-0.1,0.9c0,0.3,0,0.6,0.1,0.8c0.1,0.3,0.2,0.5,0.4,0.7
			c0.2,0.2,0.4,0.4,0.6,0.5s0.5,0.2,0.9,0.2c0.3,0,0.6-0.1,0.9-0.2c0.3-0.1,0.5-0.3,0.7-0.5c0.2-0.2,0.3-0.5,0.4-0.7
			c0.1-0.3,0.1-0.6,0.1-0.9c0-0.3,0-0.6-0.1-0.9c-0.1-0.3-0.2-0.5-0.4-0.7c-0.2-0.2-0.4-0.4-0.7-0.5
			C105.3,271.8,105,271.7,104.7,271.7z"/>
        <path fill="#fff" d="M109.9,274c0-0.6,0.1-1.1,0.3-1.6s0.5-0.9,0.8-1.2c0.3-0.3,0.8-0.6,1.2-0.8c0.5-0.2,1-0.3,1.5-0.3
			s1,0.1,1.5,0.3c0.5,0.2,0.9,0.4,1.2,0.8s0.6,0.7,0.8,1.2c0.2,0.5,0.3,1,0.3,1.6s-0.1,1.1-0.3,1.6c-0.2,0.5-0.5,0.9-0.8,1.2
			s-0.8,0.6-1.2,0.8c-0.5,0.2-1,0.3-1.5,0.3s-1.1-0.1-1.5-0.3c-0.5-0.2-0.9-0.5-1.2-0.8c-0.4-0.3-0.6-0.7-0.8-1.2
			C110,275.1,109.9,274.6,109.9,274z M111.8,274c0,0.3,0,0.6,0.1,0.8s0.2,0.5,0.4,0.8s0.4,0.4,0.6,0.5c0.3,0.1,0.6,0.2,0.9,0.2
			c0.4,0,0.7-0.1,0.9-0.2c0.3-0.1,0.5-0.3,0.6-0.5s0.3-0.5,0.4-0.8s0.1-0.6,0.1-0.8s0-0.6-0.1-0.8c-0.1-0.3-0.2-0.5-0.4-0.7
			s-0.4-0.4-0.6-0.5c-0.3-0.1-0.6-0.2-0.9-0.2c-0.4,0-0.7,0.1-0.9,0.2s-0.5,0.3-0.6,0.5s-0.3,0.5-0.4,0.7
			C111.8,273.4,111.8,273.7,111.8,274z"/>
        <path fill="#fff" d="M119.2,270.4h1.7v1.2h0c0.2-0.4,0.5-0.8,0.8-1c0.4-0.3,0.8-0.4,1.3-0.4c0.1,0,0.1,0,0.2,0s0.2,0,0.2,0v1.7
			c-0.1,0-0.2,0-0.3-0.1c-0.1,0-0.2,0-0.2,0c-0.4,0-0.7,0.1-1,0.2c-0.2,0.2-0.4,0.3-0.6,0.5c-0.1,0.2-0.2,0.4-0.3,0.6
			s-0.1,0.4-0.1,0.5v3.9h-1.8V270.4z"/>
        <path fill="#fff" d="M123.3,270.4h2l2,5.2h0l1.8-5.2h1.9l-3.4,8.7c-0.1,0.3-0.3,0.6-0.4,0.9c-0.1,0.3-0.3,0.5-0.5,0.6
			s-0.5,0.3-0.7,0.4s-0.6,0.1-1,0.1c-0.2,0-0.3,0-0.5,0c-0.2,0-0.3,0-0.5-0.1l0.2-1.6c0.1,0,0.2,0.1,0.4,0.1s0.2,0,0.3,0
			c0.2,0,0.3,0,0.5-0.1c0.1,0,0.2-0.1,0.3-0.2c0.1-0.1,0.2-0.2,0.2-0.4c0.1-0.1,0.1-0.3,0.2-0.5l0.4-0.9L123.3,270.4z"/>
        <path fill="#fff" d="M134.1,267h2.1l2.1,7.8h0l2.3-7.8h2l2.3,7.8h0l2.1-7.8h2l-3.1,10.6H144l-2.5-8h0l-2.5,8h-1.8L134.1,267z"/>
        <path fill="#fff" d="M153.7,276.7L153.7,276.7c-0.2,0.3-0.5,0.6-0.9,0.8c-0.4,0.2-0.9,0.3-1.4,0.3c-0.3,0-0.6,0-0.9-0.1
			c-0.3-0.1-0.6-0.2-0.9-0.4c-0.3-0.2-0.5-0.4-0.7-0.7c-0.2-0.3-0.3-0.6-0.3-1.1c0-0.5,0.2-1,0.5-1.3c0.3-0.3,0.7-0.6,1.2-0.7
			c0.5-0.2,1-0.3,1.6-0.3c0.6-0.1,1.2-0.1,1.7-0.1V273c0-0.5-0.2-0.8-0.5-1c-0.3-0.2-0.7-0.3-1.2-0.3c-0.4,0-0.7,0.1-1.1,0.2
			c-0.4,0.2-0.6,0.4-0.9,0.6l-0.9-1.1c0.4-0.4,0.9-0.7,1.4-0.9c0.5-0.2,1.1-0.3,1.6-0.3c0.6,0,1.2,0.1,1.6,0.3
			c0.4,0.2,0.7,0.4,1,0.7c0.2,0.3,0.4,0.6,0.5,1c0.1,0.4,0.1,0.7,0.1,1.1v4.4h-1.7V276.7z M153.7,274.3h-0.4c-0.3,0-0.6,0-0.9,0
			c-0.3,0-0.6,0.1-0.9,0.2c-0.3,0.1-0.5,0.2-0.7,0.4c-0.2,0.2-0.3,0.4-0.3,0.6c0,0.2,0,0.3,0.1,0.4c0.1,0.1,0.2,0.2,0.3,0.3
			s0.3,0.1,0.4,0.1c0.1,0,0.3,0,0.4,0c0.6,0,1.1-0.2,1.4-0.5s0.5-0.8,0.5-1.4V274.3z"/>
        <path fill="#fff" d="M157,268c0-0.3,0.1-0.5,0.3-0.8s0.5-0.3,0.8-0.3s0.6,0.1,0.8,0.3c0.2,0.2,0.3,0.5,0.3,0.8
			c0,0.3-0.1,0.6-0.3,0.8c-0.2,0.2-0.5,0.3-0.8,0.3s-0.6-0.1-0.8-0.3C157.1,268.5,157,268.3,157,268z M157.2,270.4h1.8v7.2h-1.8
			V270.4z"/>
        <path fill="#fff" d="M159.9,271.9v-1.4h1.3v-2.1h1.8v2.1h1.8v1.4h-1.8v3.3c0,0.3,0.1,0.6,0.2,0.8s0.4,0.3,0.8,0.3
			c0.1,0,0.2,0,0.4,0c0.1,0,0.3-0.1,0.4-0.1l0.1,1.4c-0.2,0.1-0.4,0.1-0.6,0.1s-0.4,0.1-0.6,0.1c-0.5,0-0.9-0.1-1.2-0.2
			s-0.5-0.3-0.7-0.6c-0.2-0.2-0.3-0.5-0.4-0.8c-0.1-0.3-0.1-0.6-0.1-1v-3.4H159.9z"/>
        <path fill="#fff" d="M166.1,275.6h1.7l-1.3,4H165L166.1,275.6z"/>
        <path fill="#fff" d="M178,275.2L178,275.2l4.7-8.2h2.3l-1.9,10.6h-1.5l1.6-8.9h0l-5.1,8.9h-0.9l-2-8.9h0l-1.6,8.9h-1.4
			l1.9-10.6h2.3L178,275.2z"/>
        <path fill="#fff" d="M190.2,277.6c0-0.1,0-0.3,0.1-0.6c0-0.2,0.1-0.4,0.1-0.6h0c-0.3,0.4-0.6,0.7-1,1c-0.4,0.2-0.9,0.4-1.4,0.4
			c-0.8,0-1.4-0.2-1.8-0.6c-0.4-0.4-0.6-0.9-0.6-1.6c0-0.1,0-0.2,0-0.3c0-0.1,0-0.2,0.1-0.4l0.8-4.4h1.4l-0.7,3.9
			c0,0.1,0,0.3-0.1,0.4c0,0.1,0,0.3,0,0.4c0,0.4,0.1,0.7,0.3,1c0.2,0.3,0.6,0.4,1.1,0.4c0.6,0,1-0.2,1.5-0.6c0.4-0.4,0.7-1,0.8-1.7
			l0.7-3.8h1.4l-1,5.6c0,0.2-0.1,0.4-0.1,0.7c0,0.3-0.1,0.6-0.1,0.8H190.2z"/>
        <path fill="#fff" d="M198.6,272.2c-0.1-0.2-0.3-0.4-0.6-0.6c-0.2-0.2-0.5-0.2-0.9-0.2c-0.2,0-0.3,0-0.5,0.1s-0.3,0.1-0.5,0.2
			c-0.1,0.1-0.3,0.2-0.4,0.3c-0.1,0.1-0.1,0.3-0.1,0.5c0,0.3,0.1,0.5,0.3,0.6s0.5,0.2,0.9,0.4c0.7,0.2,1.2,0.5,1.6,0.8
			c0.4,0.3,0.5,0.8,0.5,1.3c0,0.4-0.1,0.7-0.3,1c-0.2,0.3-0.4,0.5-0.7,0.7c-0.3,0.2-0.6,0.3-0.9,0.4c-0.3,0.1-0.7,0.1-1.1,0.1
			c-0.7,0-1.3-0.1-1.8-0.4c-0.5-0.2-0.9-0.6-1.1-1l1.1-0.7c0.2,0.3,0.4,0.5,0.7,0.7c0.3,0.2,0.7,0.3,1.1,0.3c0.4,0,0.8-0.1,1.1-0.3
			c0.3-0.2,0.5-0.4,0.5-0.8c0-0.3-0.1-0.5-0.4-0.7c-0.2-0.2-0.6-0.3-1.1-0.5c-0.3-0.1-0.5-0.2-0.8-0.3c-0.2-0.1-0.4-0.2-0.6-0.4
			c-0.2-0.1-0.3-0.3-0.4-0.5c-0.1-0.2-0.1-0.4-0.1-0.7c0-0.3,0.1-0.7,0.2-0.9c0.2-0.3,0.4-0.5,0.6-0.7c0.3-0.2,0.6-0.3,0.9-0.4
			c0.4-0.1,0.7-0.1,1.1-0.1c0.5,0,1,0.1,1.5,0.3c0.4,0.2,0.8,0.5,1,0.9L198.6,272.2z"/>
        <path fill="#fff" d="M201.5,277.6h-1.4l1.2-7.1h1.4L201.5,277.6z M203.4,267.9c0,0.2-0.1,0.5-0.3,0.6c-0.2,0.2-0.4,0.3-0.6,0.3
			c-0.2,0-0.4-0.1-0.6-0.2c-0.2-0.2-0.3-0.4-0.3-0.6c0-0.3,0.1-0.5,0.3-0.7s0.4-0.3,0.6-0.3c0.2,0,0.4,0.1,0.6,0.2
			C203.3,267.5,203.4,267.7,203.4,267.9z"/>
        <path fill="#fff" d="M209.6,272.3c-0.1-0.2-0.3-0.4-0.6-0.6c-0.3-0.2-0.6-0.2-1-0.2c-0.4,0-0.8,0.1-1.1,0.2
			c-0.3,0.2-0.6,0.4-0.9,0.7c-0.3,0.3-0.4,0.6-0.6,1c-0.1,0.4-0.2,0.8-0.2,1.2c0,0.3,0,0.6,0.1,0.8c0.1,0.2,0.2,0.5,0.4,0.7
			c0.2,0.2,0.4,0.3,0.6,0.4c0.3,0.1,0.6,0.2,0.9,0.2c0.5,0,0.8-0.1,1.1-0.2c0.3-0.2,0.6-0.4,0.8-0.6l0.8,0.8
			c-0.4,0.4-0.8,0.7-1.3,0.9c-0.5,0.2-1,0.3-1.6,0.3c-0.5,0-1-0.1-1.4-0.2c-0.4-0.1-0.8-0.4-1.1-0.6c-0.3-0.3-0.5-0.6-0.7-1
			s-0.2-0.8-0.2-1.3c0-0.6,0.1-1.2,0.3-1.7c0.2-0.5,0.5-1,0.9-1.4s0.8-0.7,1.4-1c0.5-0.2,1.1-0.4,1.8-0.4c0.3,0,0.5,0,0.8,0.1
			c0.3,0.1,0.5,0.1,0.7,0.2c0.2,0.1,0.4,0.2,0.6,0.4c0.2,0.1,0.3,0.3,0.5,0.5L209.6,272.3z"/>
        <path fill="#fff" d="M216.3,267h3.4c0.6,0,1.2,0.1,1.8,0.2c0.6,0.2,1.1,0.4,1.6,0.8c0.5,0.4,0.8,0.8,1.1,1.4
			c0.3,0.6,0.4,1.2,0.4,2c0,0.9-0.2,1.8-0.5,2.5c-0.3,0.8-0.8,1.4-1.4,1.9s-1.3,1-2.1,1.3s-1.7,0.4-2.6,0.4h-3.8L216.3,267z
			 M216.1,276.3h2.2c0.8,0,1.5-0.1,2.1-0.4c0.6-0.3,1.1-0.6,1.5-1.1c0.4-0.4,0.7-0.9,0.9-1.5c0.2-0.6,0.3-1.1,0.3-1.7
			c0-0.5-0.1-0.9-0.2-1.3c-0.2-0.4-0.4-0.8-0.7-1.1s-0.7-0.5-1.2-0.7s-1-0.3-1.7-0.3h-1.8L216.1,276.3z"/>
        <path fill="#fff" d="M226.8,277.6h-1.4l1.2-7.1h1.4L226.8,277.6z M228.6,267.9c0,0.2-0.1,0.5-0.3,0.6c-0.2,0.2-0.4,0.3-0.6,0.3
			c-0.2,0-0.4-0.1-0.6-0.2c-0.2-0.2-0.3-0.4-0.3-0.6c0-0.3,0.1-0.5,0.3-0.7c0.2-0.2,0.4-0.3,0.6-0.3s0.4,0.1,0.6,0.2
			C228.5,267.5,228.6,267.7,228.6,267.9z"/>
        <path fill="#fff" d="M230,271.3c0-0.3,0.1-0.6,0.1-0.8h1.3c0,0.1,0,0.2,0,0.3c0,0.1,0,0.2,0,0.3c0,0.1,0,0.2,0,0.3
			c0,0.1,0,0.2,0,0.3h0c0.2-0.4,0.6-0.8,0.9-1s0.8-0.4,1.3-0.4c0.2,0,0.4,0,0.6,0.1l-0.2,1.3c-0.2,0-0.4-0.1-0.6-0.1
			c-0.3,0-0.6,0.1-0.9,0.2c-0.3,0.1-0.5,0.3-0.7,0.5c-0.2,0.2-0.3,0.5-0.5,0.7c-0.1,0.3-0.2,0.6-0.2,0.9l-0.7,3.7h-1.4l1-5.6
			C230,271.9,230,271.6,230,271.3z"/>
        <path fill="#fff" d="M235,274.5c0,0,0,0.1,0,0.1c0,0,0,0.1,0,0.1c0,0.3,0.1,0.5,0.2,0.8c0.1,0.2,0.2,0.4,0.4,0.6
			c0.2,0.2,0.4,0.3,0.7,0.4s0.5,0.1,0.8,0.1c0.5,0,0.9-0.1,1.3-0.3c0.4-0.2,0.7-0.5,0.9-0.8l0.8,0.8c-0.4,0.5-0.9,0.8-1.4,1.1
			c-0.5,0.2-1.1,0.4-1.8,0.4c-0.5,0-0.9-0.1-1.3-0.2c-0.4-0.1-0.8-0.3-1-0.6c-0.3-0.3-0.5-0.6-0.7-1c-0.2-0.4-0.2-0.8-0.2-1.3
			c0-0.6,0.1-1.1,0.3-1.7s0.5-1,0.9-1.4c0.4-0.4,0.8-0.7,1.3-0.9c0.5-0.2,1.1-0.3,1.7-0.3c0.9,0,1.6,0.2,2.2,0.7
			c0.5,0.5,0.8,1.2,0.8,2.1c0,0.1,0,0.3,0,0.6c0,0.3-0.1,0.5-0.1,0.7H235z M239.4,273.5c0-0.1,0-0.1,0-0.2c0-0.1,0-0.2,0-0.2
			c0-0.5-0.1-0.8-0.4-1.1c-0.3-0.3-0.7-0.5-1.3-0.5c-0.3,0-0.7,0.1-0.9,0.2c-0.3,0.1-0.5,0.3-0.7,0.5c-0.2,0.2-0.4,0.4-0.5,0.7
			c-0.1,0.2-0.2,0.5-0.3,0.8H239.4z"/>
        <path fill="#fff" d="M247.7,272.3c-0.1-0.2-0.3-0.4-0.6-0.6s-0.6-0.2-1-0.2c-0.4,0-0.8,0.1-1.1,0.2s-0.6,0.4-0.9,0.7
			s-0.4,0.6-0.6,1c-0.1,0.4-0.2,0.8-0.2,1.2c0,0.3,0,0.6,0.1,0.8c0.1,0.2,0.2,0.5,0.4,0.7c0.2,0.2,0.4,0.3,0.6,0.4
			c0.3,0.1,0.6,0.2,0.9,0.2c0.5,0,0.8-0.1,1.1-0.2c0.3-0.2,0.6-0.4,0.8-0.6l0.8,0.8c-0.4,0.4-0.8,0.7-1.3,0.9s-1,0.3-1.6,0.3
			c-0.5,0-1-0.1-1.4-0.2c-0.4-0.1-0.8-0.4-1.1-0.6c-0.3-0.3-0.5-0.6-0.7-1s-0.2-0.8-0.2-1.3c0-0.6,0.1-1.2,0.3-1.7s0.5-1,0.9-1.4
			s0.8-0.7,1.4-1c0.5-0.2,1.1-0.4,1.8-0.4c0.3,0,0.5,0,0.8,0.1c0.3,0.1,0.5,0.1,0.7,0.2c0.2,0.1,0.4,0.2,0.6,0.4
			c0.2,0.1,0.3,0.3,0.5,0.5L247.7,272.3z"/>
        <path fill="#fff" d="M253.2,271.7h-1.8l-0.7,3.7c0,0.2,0,0.3,0,0.5c0,0.3,0.1,0.5,0.2,0.6c0.2,0.1,0.4,0.2,0.6,0.2
			c0.1,0,0.3,0,0.4,0c0.1,0,0.3-0.1,0.3-0.1l-0.1,1.1c-0.1,0.1-0.3,0.1-0.5,0.1c-0.2,0-0.4,0.1-0.6,0.1c-0.6,0-1-0.1-1.3-0.4
			c-0.3-0.2-0.5-0.6-0.5-1.2c0-0.1,0-0.2,0-0.3c0-0.1,0-0.2,0-0.4l0.7-3.9h-1.3l0.2-1.1h1.3l0.3-2h1.4l-0.4,2h1.8L253.2,271.7z"/>
        <path fill="#fff" d="M256.9,277.8c-0.5,0-0.9-0.1-1.4-0.2c-0.4-0.1-0.8-0.4-1.1-0.6c-0.3-0.3-0.5-0.6-0.7-1
			c-0.2-0.4-0.3-0.8-0.3-1.3c0-0.6,0.1-1.1,0.3-1.7s0.5-1,0.9-1.4c0.4-0.4,0.8-0.7,1.4-1c0.5-0.2,1.1-0.4,1.7-0.4
			c0.5,0,0.9,0.1,1.4,0.2c0.4,0.2,0.8,0.4,1.1,0.6c0.3,0.3,0.5,0.6,0.7,1s0.2,0.8,0.2,1.3c0,0.6-0.1,1.2-0.3,1.7s-0.5,1-0.9,1.4
			c-0.4,0.4-0.8,0.7-1.3,1C258.1,277.7,257.5,277.8,256.9,277.8z M259.8,273.5c0-0.3,0-0.6-0.1-0.8s-0.2-0.5-0.4-0.7
			c-0.2-0.2-0.4-0.3-0.6-0.4c-0.3-0.1-0.5-0.2-0.8-0.2c-0.4,0-0.8,0.1-1.1,0.3s-0.6,0.4-0.9,0.7c-0.2,0.3-0.4,0.6-0.6,1
			s-0.2,0.8-0.2,1.2c0,0.6,0.2,1.1,0.5,1.5c0.4,0.4,0.9,0.6,1.5,0.6c0.4,0,0.8-0.1,1.1-0.2s0.6-0.4,0.9-0.7s0.4-0.6,0.6-1
			C259.7,274.4,259.8,274,259.8,273.5z"/>
        <path fill="#fff" d="M263.3,271.3c0-0.3,0.1-0.6,0.1-0.8h1.3c0,0.1,0,0.2,0,0.3c0,0.1,0,0.2,0,0.3c0,0.1,0,0.2,0,0.3
			c0,0.1,0,0.2,0,0.3h0c0.2-0.4,0.6-0.8,0.9-1s0.8-0.4,1.3-0.4c0.2,0,0.4,0,0.6,0.1l-0.2,1.3c-0.2,0-0.4-0.1-0.6-0.1
			c-0.3,0-0.6,0.1-0.9,0.2s-0.5,0.3-0.7,0.5c-0.2,0.2-0.3,0.5-0.5,0.7c-0.1,0.3-0.2,0.6-0.2,0.9l-0.7,3.7h-1.4l1-5.6
			C263.2,271.9,263.2,271.6,263.3,271.3z"/>
    </g>
</svg>
