<?xml version="1.0" encoding="UTF-8" standalone="no"?>
<svg xmlns:dc="http://purl.org/dc/elements/1.1/" xmlns:cc="http://creativecommons.org/ns#"
  xmlns:rdf="http://www.w3.org/1999/02/22-rdf-syntax-ns#" xmlns:svg="http://www.w3.org/2000/svg"
  xmlns="http://www.w3.org/2000/svg" viewBox="0 0 616 101" height="101" width="616" xml:space="preserve" id="svg2"
  version="1.1">
  <metadata id="metadata8">
    <rdf:RDF>
      <cc:Work rdf:about="">
        <dc:format>image/svg+xml</dc:format>
        <dc:type rdf:resource="http://purl.org/dc/dcmitype/StillImage" />
      </cc:Work>
    </rdf:RDF>
  </metadata>
  <defs id="defs6" />
  <g transform="matrix(1.3333333,0,0,-1.3333333,0,967.01333)" id="g10">
    <g transform="scale(0.1)" id="g12">
      <path id="path176" style="fill:#fff;fill-opacity:1;fill-rule:nonzero;stroke:none"
        d="m 2579.83,6558.8 h 16.95 c 2.4,0 5,0.18 7.8,0.53 2.8,0.35 5.37,1.08 7.73,2.17 2.34,1.1 4.29,2.7 5.85,4.8 1.54,2.1 2.32,4.91 2.32,8.41 0,5.59 -1.9,9.49 -5.7,11.7 -3.8,2.2 -9.55,3.3 -17.25,3.3 h -17.7 z m 0,47.1 h 16.8 c 6.3,0 11.1,1.25 14.4,3.75 3.3,2.5 4.95,6.05 4.95,10.66 0,4.8 -1.7,8.19 -5.1,10.19 -3.4,2 -8.7,3 -15.9,3 h -15.15 z m -18.9,43.21 h 41.4 c 4,0 7.95,-0.48 11.85,-1.43 3.9,-0.95 7.37,-2.5 10.43,-4.65 3.04,-2.15 5.52,-4.92 7.42,-8.32 1.9,-3.41 2.85,-7.5 2.85,-12.3 0,-6 -1.7,-10.96 -5.1,-14.86 -3.4,-3.89 -7.85,-6.69 -13.35,-8.39 v -0.3 c 6.7,-0.91 12.2,-3.51 16.5,-7.81 4.3,-4.3 6.45,-10.05 6.45,-17.25 0,-5.8 -1.15,-10.67 -3.45,-14.62 -2.3,-3.95 -5.32,-7.13 -9.07,-9.53 -3.75,-2.4 -8.06,-4.12 -12.9,-5.17 -4.86,-1.05 -9.78,-1.57 -14.78,-1.57 h -38.25 v 106.2" />
      <path id="path178" style="fill:#fff;fill-opacity:1;fill-rule:nonzero;stroke:none"
        d="m 2722.77,6542.91 h -17.1 v 11.54 h -0.29 c -1.6,-3.59 -4.38,-6.77 -8.33,-9.52 -3.95,-2.75 -8.63,-4.13 -14.03,-4.13 -4.69,0 -8.72,0.83 -12.07,2.48 -3.35,1.65 -6.1,3.83 -8.25,6.52 -2.15,2.7 -3.72,5.81 -4.73,9.31 -1,3.49 -1.49,7.1 -1.49,10.8 v 45 h 17.99 V 6575 c 0,-2.09 0.15,-4.3 0.46,-6.6 0.3,-2.29 0.94,-4.37 1.95,-6.22 0.99,-1.85 2.37,-3.38 4.12,-4.57 1.75,-1.2 4.07,-1.81 6.97,-1.81 2.8,0 5.28,0.58 7.43,1.73 2.15,1.15 3.9,2.63 5.25,4.42 1.35,1.8 2.37,3.88 3.08,6.23 0.69,2.35 1.05,4.73 1.05,7.13 v 39.6 h 17.99 v -72" />
      <path id="path180" style="fill:#fff;fill-opacity:1;fill-rule:nonzero;stroke:none"
        d="m 2758.32,6579.2 c 0,-2.79 0.43,-5.59 1.28,-8.4 0.85,-2.8 2.12,-5.3 3.83,-7.5 1.7,-2.19 3.85,-3.99 6.44,-5.39 2.6,-1.41 5.66,-2.11 9.15,-2.11 3.31,0 6.25,0.68 8.85,2.03 2.6,1.35 4.83,3.12 6.68,5.33 1.85,2.19 3.24,4.67 4.2,7.42 0.95,2.75 1.43,5.53 1.43,8.33 0,2.79 -0.48,5.6 -1.43,8.39 -0.96,2.8 -2.35,5.3 -4.2,7.5 -1.85,2.2 -4.08,4 -6.68,5.4 -2.6,1.41 -5.54,2.1 -8.85,2.1 -3.49,0 -6.55,-0.67 -9.15,-2.02 -2.59,-1.35 -4.74,-3.13 -6.44,-5.32 -1.71,-2.21 -2.98,-4.68 -3.83,-7.43 -0.85,-2.75 -1.28,-5.53 -1.28,-8.33 z m 59.26,-36.29 h -17.1 v 10.8 h -0.3 c -2.5,-4.2 -5.98,-7.41 -10.43,-9.6 -4.45,-2.2 -9.22,-3.31 -14.33,-3.31 -5.5,0 -10.42,1.03 -14.77,3.08 -4.35,2.05 -8.05,4.8 -11.1,8.25 -3.05,3.45 -5.4,7.5 -7.05,12.15 -1.65,4.65 -2.47,9.62 -2.47,14.92 0,5.31 0.84,10.25 2.54,14.86 1.71,4.59 4.1,8.6 7.21,11.99 3.09,3.4 6.79,6.08 11.1,8.03 4.3,1.95 8.99,2.93 14.09,2.93 3.3,0 6.25,-0.38 8.86,-1.13 2.6,-0.75 4.87,-1.68 6.82,-2.77 1.95,-1.11 3.63,-2.31 5.02,-3.6 1.4,-1.31 2.55,-2.56 3.45,-3.75 h 0.45 v 50.54 h 18.01 v -113.39" />
      <path id="path182" style="fill:#fff;fill-opacity:1;fill-rule:nonzero;stroke:none"
        d="m 2853.42,6579.2 c 0,-2.79 0.43,-5.59 1.28,-8.4 0.85,-2.8 2.12,-5.3 3.83,-7.5 1.7,-2.19 3.85,-3.99 6.45,-5.39 2.59,-1.41 5.65,-2.11 9.15,-2.11 3.3,0 6.25,0.68 8.84,2.03 2.6,1.35 4.83,3.12 6.68,5.33 1.85,2.19 3.25,4.67 4.2,7.42 0.95,2.75 1.43,5.53 1.43,8.33 0,2.79 -0.48,5.6 -1.43,8.39 -0.95,2.8 -2.35,5.3 -4.2,7.5 -1.85,2.2 -4.08,4 -6.68,5.4 -2.59,1.41 -5.54,2.1 -8.84,2.1 -3.5,0 -6.56,-0.67 -9.15,-2.02 -2.6,-1.35 -4.75,-3.13 -6.45,-5.32 -1.71,-2.21 -2.98,-4.68 -3.83,-7.43 -0.85,-2.75 -1.28,-5.53 -1.28,-8.33 z m 59.26,-36.29 h -17.1 v 10.8 h -0.3 c -2.5,-4.2 -5.98,-7.41 -10.43,-9.6 -4.44,-2.2 -9.22,-3.31 -14.33,-3.31 -5.49,0 -10.42,1.03 -14.77,3.08 -4.35,2.05 -8.05,4.8 -11.1,8.25 -3.05,3.45 -5.4,7.5 -7.05,12.15 -1.65,4.65 -2.48,9.62 -2.48,14.92 0,5.31 0.85,10.25 2.56,14.86 1.7,4.59 4.09,8.6 7.2,11.99 3.09,3.4 6.8,6.08 11.1,8.03 4.3,1.95 9,2.93 14.09,2.93 3.3,0 6.25,-0.38 8.86,-1.13 2.6,-0.75 4.87,-1.68 6.82,-2.77 1.95,-1.11 3.63,-2.31 5.03,-3.6 1.39,-1.31 2.55,-2.56 3.44,-3.75 h 0.45 v 50.54 h 18.01 v -113.39" />
      <path id="path184" style="fill:#fff;fill-opacity:1;fill-rule:nonzero;stroke:none"
        d="m 2923.78,6614.91 h 19.95 l 20.09,-52.36 h 0.31 l 17.85,52.36 h 18.75 l -34.05,-87.45 c -1.3,-3.3 -2.71,-6.23 -4.2,-8.78 -1.51,-2.55 -3.3,-4.7 -5.4,-6.45 -2.1,-1.75 -4.58,-3.07 -7.43,-3.97 -2.85,-0.9 -6.28,-1.35 -10.28,-1.35 -1.49,0 -3.02,0.07 -4.57,0.22 -1.55,0.15 -3.12,0.43 -4.73,0.82 l 1.51,15.6 c 1.2,-0.39 2.37,-0.67 3.52,-0.82 1.15,-0.15 2.22,-0.23 3.23,-0.23 1.89,0 3.49,0.23 4.79,0.68 1.3,0.45 2.4,1.15 3.3,2.1 0.91,0.95 1.7,2.13 2.4,3.52 0.71,1.4 1.45,3.06 2.26,4.95 l 3.59,9.16 -30.89,72" />
      <path id="path186" style="fill:#fff;fill-opacity:1;fill-rule:nonzero;stroke:none"
        d="m 3100.32,6577.25 c 0,-3.89 -0.42,-8 -1.27,-12.29 -0.85,-4.3 -2.43,-8.3 -4.73,-12.01 -2.3,-3.7 -5.54,-6.74 -9.74,-9.15 -4.21,-2.39 -9.6,-3.6 -16.21,-3.6 -8.6,0 -15.47,2.16 -20.62,6.46 -5.16,4.29 -8.68,9.95 -10.58,16.95 l 17.41,4.94 c 0.89,-3.5 2.54,-6.27 4.94,-8.32 2.4,-2.05 5.25,-3.08 8.55,-3.08 2.7,0 4.92,0.51 6.67,1.51 1.76,0.99 3.11,2.42 4.05,4.27 0.95,1.85 1.64,4.05 2.04,6.6 0.39,2.55 0.59,5.33 0.59,8.33 v 71.25 h 18.9 v -71.86" />
      <path id="path188" style="fill:#fff;fill-opacity:1;fill-rule:nonzero;stroke:none"
        d="m 3165.42,6575.76 h -4.05 c -2.9,0 -5.95,-0.13 -9.15,-0.38 -3.2,-0.25 -6.15,-0.8 -8.85,-1.65 -2.7,-0.85 -4.95,-2.05 -6.75,-3.6 -1.8,-1.55 -2.7,-3.68 -2.7,-6.38 0,-1.7 0.37,-3.12 1.12,-4.27 0.76,-1.15 1.73,-2.08 2.93,-2.78 1.2,-0.7 2.55,-1.2 4.05,-1.5 1.5,-0.29 3.01,-0.45 4.5,-0.45 6.2,0 10.9,1.66 14.1,4.96 3.2,3.29 4.8,7.79 4.8,13.49 z m 0.3,-23.71 h -0.45 c -1.8,-3.2 -4.7,-5.82 -8.7,-7.87 -4,-2.05 -8.55,-3.07 -13.65,-3.07 -2.9,0 -5.92,0.37 -9.08,1.12 -3.14,0.75 -6.04,2 -8.7,3.75 -2.64,1.75 -4.84,4.05 -6.6,6.9 -1.75,2.85 -2.62,6.37 -2.62,10.58 0,5.4 1.53,9.7 4.57,12.9 3.05,3.19 6.98,5.64 11.78,7.35 4.8,1.7 10.13,2.82 15.98,3.37 5.85,0.55 11.57,0.83 17.17,0.83 v 1.8 c 0,4.49 -1.63,7.82 -4.88,9.97 -3.25,2.15 -7.12,3.23 -11.62,3.23 -3.8,0 -7.45,-0.8 -10.95,-2.41 -3.5,-1.59 -6.4,-3.55 -8.7,-5.85 l -9.3,10.96 c 4.1,3.8 8.82,6.64 14.18,8.55 5.35,1.89 10.77,2.85 16.27,2.85 6.4,0 11.68,-0.9 15.83,-2.7 4.15,-1.81 7.42,-4.15 9.82,-7.06 2.4,-2.89 4.07,-6.14 5.03,-9.75 0.95,-3.59 1.43,-7.19 1.43,-10.8 v -43.79 h -16.81 v 9.14" />
      <path id="path190" style="fill:#fff;fill-opacity:1;fill-rule:nonzero;stroke:none"
        d="m 3289.47,6617.01 c 4.7,0 8.72,-0.83 12.08,-2.48 3.35,-1.65 6.09,-3.83 8.24,-6.53 2.16,-2.69 3.73,-5.8 4.73,-9.29 1,-3.51 1.5,-7.11 1.5,-10.8 v -45 h -18 v 39.9 c 0,2.1 -0.15,4.3 -0.45,6.6 -0.3,2.29 -0.95,4.37 -1.95,6.22 -1,1.85 -2.37,3.37 -4.12,4.57 -1.76,1.21 -4.08,1.81 -6.98,1.81 -2.8,0 -5.2,-0.6 -7.2,-1.81 -2,-1.2 -3.65,-2.74 -4.95,-4.64 -1.3,-1.91 -2.25,-4.03 -2.85,-6.38 -0.6,-2.35 -0.9,-4.67 -0.9,-6.97 v -39.3 h -18 v 43.5 c 0,4.49 -1.07,8.22 -3.22,11.17 -2.16,2.95 -5.53,4.43 -10.13,4.43 -2.7,0 -5.05,-0.58 -7.05,-1.73 -2,-1.15 -3.62,-2.62 -4.87,-4.42 -1.25,-1.8 -2.21,-3.88 -2.85,-6.23 -0.66,-2.35 -0.98,-4.72 -0.98,-7.13 v -39.59 h -18 v 72 h 17.1 v -11.55 h 0.3 c 0.8,1.8 1.88,3.5 3.23,5.1 1.34,1.59 2.95,3.04 4.79,4.35 1.86,1.29 3.98,2.32 6.38,3.07 2.4,0.75 5.05,1.13 7.95,1.13 5.6,0 10.25,-1.26 13.95,-3.75 3.7,-2.5 6.55,-5.8 8.55,-9.9 2.4,4.39 5.6,7.77 9.6,10.12 4,2.35 8.7,3.53 14.1,3.53" />
      <path id="path192" style="fill:#fff;fill-opacity:1;fill-rule:nonzero;stroke:none"
        d="m 3387.72,6586.11 c 0,2.29 -0.33,4.5 -0.98,6.59 -0.65,2.1 -1.68,3.96 -3.07,5.56 -1.41,1.6 -3.18,2.87 -5.32,3.82 -2.16,0.95 -4.68,1.42 -7.58,1.42 -5.4,0 -9.98,-1.62 -13.73,-4.87 -3.75,-3.25 -5.82,-7.42 -6.22,-12.52 z m 18,-8.11 c 0,-0.8 0,-1.59 0,-2.39 0,-0.81 -0.05,-1.61 -0.16,-2.41 h -54.74 c 0.19,-2.59 0.88,-4.97 2.02,-7.12 1.15,-2.15 2.67,-4 4.58,-5.55 1.89,-1.55 4.05,-2.78 6.44,-3.67 2.41,-0.9 4.91,-1.36 7.5,-1.36 4.51,0 8.3,0.83 11.41,2.48 3.1,1.65 5.64,3.93 7.65,6.82 l 12,-9.6 c -7.1,-9.59 -17.4,-14.4 -30.9,-14.4 -5.61,0 -10.75,0.88 -15.45,2.63 -4.71,1.75 -8.78,4.22 -12.23,7.43 -3.44,3.19 -6.15,7.12 -8.1,11.77 -1.95,4.65 -2.92,9.92 -2.92,15.83 0,5.79 0.97,11.07 2.92,15.82 1.95,4.75 4.63,8.8 8.03,12.15 3.39,3.35 7.42,5.95 12.08,7.8 4.64,1.85 9.66,2.78 15.06,2.78 5,0 9.63,-0.83 13.88,-2.48 4.25,-1.65 7.93,-4.1 11.03,-7.35 3.09,-3.25 5.52,-7.3 7.27,-12.15 1.75,-4.85 2.63,-10.52 2.63,-17.03" />
      <path id="path194" style="fill:#fff;fill-opacity:1;fill-rule:nonzero;stroke:none"
        d="m 3462.56,6595.7 c -1.6,2.11 -3.8,3.93 -6.6,5.48 -2.8,1.55 -5.85,2.32 -9.15,2.32 -2.9,0 -5.55,-0.59 -7.95,-1.8 -2.4,-1.2 -3.6,-3.2 -3.6,-6 0,-2.79 1.33,-4.77 3.97,-5.92 2.65,-1.15 6.53,-2.32 11.64,-3.53 2.69,-0.59 5.42,-1.39 8.17,-2.39 2.74,-1 5.24,-2.33 7.5,-3.98 2.25,-1.65 4.07,-3.7 5.47,-6.15 1.4,-2.45 2.1,-5.43 2.1,-8.93 0,-4.39 -0.82,-8.12 -2.47,-11.17 -1.65,-3.05 -3.85,-5.52 -6.6,-7.42 -2.76,-1.9 -5.95,-3.28 -9.6,-4.13 -3.66,-0.85 -7.43,-1.28 -11.33,-1.28 -5.6,0 -11.05,1.03 -16.35,3.08 -5.3,2.05 -9.7,4.97 -13.2,8.78 l 11.85,11.09 c 2,-2.6 4.6,-4.75 7.8,-6.45 3.2,-1.69 6.75,-2.55 10.65,-2.55 1.3,0 2.63,0.16 3.97,0.45 1.35,0.3 2.6,0.78 3.75,1.43 1.16,0.65 2.08,1.53 2.78,2.62 0.7,1.11 1.05,2.45 1.05,4.05 0,3 -1.37,5.15 -4.13,6.45 -2.74,1.3 -6.87,2.61 -12.37,3.91 -2.7,0.59 -5.32,1.37 -7.87,2.32 -2.55,0.95 -4.83,2.2 -6.83,3.75 -2,1.55 -3.6,3.47 -4.8,5.77 -1.2,2.3 -1.8,5.16 -1.8,8.56 0,3.99 0.83,7.44 2.48,10.35 1.65,2.89 3.82,5.27 6.52,7.12 2.7,1.85 5.75,3.22 9.15,4.13 3.4,0.9 6.9,1.35 10.5,1.35 5.2,0 10.28,-0.9 15.23,-2.7 4.95,-1.81 8.87,-4.56 11.77,-8.26 l -11.7,-10.35" />
      <path id="path196" style="fill:#fff;fill-opacity:1;fill-rule:nonzero;stroke:none"
        d="m 3493.01,6563.61 h 17.41 L 3497.66,6524 h -15.14 l 10.49,39.61" />
      <path id="path198" style="fill:#fff;fill-opacity:1;fill-rule:nonzero;stroke:none"
        d="m 3581.81,6581.91 h 40.05 l -8.99,50.39 z m -23.85,-39 h -17.24 l 68.85,106.2 h 13.35 l 21.6,-106.2 h -15.45 l -5.11,26.09 h -49.79 l -16.21,-26.09" />
      <path id="path200" style="fill:#fff;fill-opacity:1;fill-rule:nonzero;stroke:none"
        d="m 3668.14,6605.9 c 0.45,3.01 0.77,5.71 0.98,8.1 h 13.19 c -0.1,-0.7 -0.19,-1.57 -0.3,-2.62 -0.1,-1.05 -0.23,-2.15 -0.37,-3.3 -0.15,-1.15 -0.31,-2.25 -0.45,-3.3 -0.15,-1.05 -0.28,-1.98 -0.37,-2.77 h 0.29 c 2.5,4.2 5.62,7.57 9.37,10.12 3.75,2.55 8.03,3.83 12.84,3.83 2.19,0 4.04,-0.21 5.54,-0.6 l -2.4,-13.06 c -2,0.5 -4.05,0.76 -6.15,0.76 -3.4,0 -6.4,-0.63 -9,-1.88 -2.6,-1.25 -4.85,-2.92 -6.74,-5.02 -1.91,-2.1 -3.43,-4.53 -4.58,-7.28 -1.16,-2.75 -1.98,-5.62 -2.47,-8.63 l -6.61,-37.34 h -13.79 l 9.74,55.64 c 0.4,1.9 0.83,4.36 1.28,7.35" />
      <path id="path202" style="fill:#fff;fill-opacity:1;fill-rule:nonzero;stroke:none"
        d="m 3749.96,6602.61 h -17.55 l -6.75,-37.36 c -0.3,-1.7 -0.45,-3.2 -0.45,-4.49 0,-3.01 0.77,-5.03 2.33,-6.08 1.55,-1.05 3.62,-1.57 6.23,-1.57 1.39,0 2.79,0.15 4.19,0.44 1.4,0.31 2.55,0.7 3.45,1.2 l -1.05,-11.09 c -1.4,-0.6 -3.13,-1.08 -5.18,-1.43 -2.05,-0.35 -4.07,-0.53 -6.07,-0.53 -5.5,0 -9.88,1.23 -13.13,3.68 -3.25,2.45 -4.87,6.32 -4.87,11.63 0,1.1 0.05,2.24 0.16,3.44 0.09,1.21 0.24,2.41 0.44,3.61 l 6.9,38.55 h -13.5 l 2.1,11.39 h 13.35 l 3.45,20.41 h 13.8 l -3.6,-20.41 h 17.85 l -2.1,-11.39" />
      <path id="path204" style="fill:#fff;fill-opacity:1;fill-rule:nonzero;stroke:none"
        d="m 3787.91,6639.96 c 0,-2.5 -0.85,-4.65 -2.53,-6.46 -1.69,-1.8 -3.77,-2.7 -6.25,-2.7 -2.39,0 -4.44,0.76 -6.17,2.26 -1.73,1.49 -2.6,3.6 -2.6,6.3 0,2.69 0.92,4.92 2.74,6.67 1.84,1.75 3.95,2.63 6.33,2.63 2.37,0 4.38,-0.81 6.03,-2.41 1.63,-1.6 2.45,-3.7 2.45,-6.29 z m -18.45,-97.05 h -13.81 l 12.45,71.09 h 13.96 l -12.6,-71.09" />
      <path id="path206" style="fill:#fff;fill-opacity:1;fill-rule:nonzero;stroke:none"
        d="m 3842.2,6596.91 c -1.4,2.29 -3.3,4.2 -5.7,5.7 -2.4,1.5 -5.5,2.25 -9.3,2.25 -1.7,0 -3.4,-0.18 -5.09,-0.53 -1.71,-0.35 -3.29,-0.9 -4.73,-1.65 -1.46,-0.75 -2.63,-1.78 -3.53,-3.07 -0.89,-1.31 -1.34,-2.86 -1.34,-4.65 0,-3.01 1.09,-5.16 3.3,-6.46 2.19,-1.3 5.34,-2.5 9.44,-3.59 6.8,-2 12.02,-4.58 15.67,-7.73 3.66,-3.15 5.48,-7.63 5.48,-13.43 0,-3.89 -0.85,-7.3 -2.55,-10.2 -1.7,-2.89 -3.92,-5.3 -6.68,-7.19 -2.74,-1.91 -5.87,-3.33 -9.37,-4.28 -3.5,-0.95 -7.05,-1.42 -10.65,-1.42 -6.8,0 -12.67,1.25 -17.62,3.75 -4.95,2.5 -8.78,5.89 -11.48,10.2 l 11.25,7.34 c 1.6,-2.9 3.98,-5.25 7.13,-7.04 3.15,-1.8 6.72,-2.7 10.72,-2.7 4.2,0 7.86,0.87 10.95,2.62 3.1,1.75 4.65,4.37 4.65,7.87 0,3.1 -1.22,5.46 -3.67,7.05 -2.45,1.6 -6.12,3.2 -11.03,4.8 -2.8,0.9 -5.35,1.86 -7.64,2.86 -2.31,0.99 -4.31,2.24 -6.01,3.75 -1.7,1.5 -3.03,3.25 -3.97,5.25 -0.95,1.99 -1.43,4.45 -1.43,7.34 0,3.5 0.8,6.63 2.4,9.38 1.6,2.75 3.75,5.07 6.45,6.98 2.7,1.89 5.83,3.34 9.37,4.34 3.56,1 7.23,1.51 11.03,1.51 5.5,0 10.45,-1.05 14.85,-3.15 4.41,-2.11 7.7,-5.06 9.9,-8.86 l -10.8,-7.04" />
      <path id="path208" style="fill:#fff;fill-opacity:1;fill-rule:nonzero;stroke:none"
        d="m 3904,6602.61 h -17.55 l -6.75,-37.36 c -0.3,-1.7 -0.45,-3.2 -0.45,-4.49 0,-3.01 0.78,-5.03 2.33,-6.08 1.55,-1.05 3.62,-1.57 6.23,-1.57 1.4,0 2.79,0.15 4.2,0.44 1.39,0.31 2.55,0.7 3.45,1.2 l -1.06,-11.09 c -1.4,-0.6 -3.12,-1.08 -5.18,-1.43 -2.05,-0.35 -4.07,-0.53 -6.07,-0.53 -5.5,0 -9.87,1.23 -13.12,3.68 -3.26,2.45 -4.88,6.32 -4.88,11.63 0,1.1 0.05,2.24 0.16,3.44 0.1,1.21 0.24,2.41 0.45,3.61 l 6.89,38.55 h -13.49 l 2.1,11.39 h 13.35 l 3.44,20.41 h 13.8 l -3.59,-20.41 h 17.84 l -2.1,-11.39" />
      <path id="path210" style="fill:#fff;fill-opacity:1;fill-rule:nonzero;stroke:none"
        d="m 3941.95,6639.96 c 0,-2.5 -0.85,-4.65 -2.53,-6.46 -1.69,-1.8 -3.77,-2.7 -6.25,-2.7 -2.38,0 -4.43,0.76 -6.17,2.26 -1.73,1.49 -2.6,3.6 -2.6,6.3 0,2.69 0.92,4.92 2.74,6.67 1.84,1.75 3.95,2.63 6.33,2.63 2.38,0 4.39,-0.81 6.03,-2.41 1.63,-1.6 2.45,-3.7 2.45,-6.29 z m -18.45,-97.05 h -13.81 l 12.45,71.09 h 13.96 l -12.6,-71.09" />
      <path id="path212" style="fill:#fff;fill-opacity:1;fill-rule:nonzero;stroke:none"
        d="m 4007.05,6595.86 c -1.2,2.4 -3.23,4.42 -6.08,6.07 -2.85,1.65 -6.02,2.48 -9.53,2.48 -4.1,0 -7.87,-0.83 -11.32,-2.48 -3.45,-1.65 -6.42,-3.9 -8.92,-6.75 -2.5,-2.85 -4.46,-6.15 -5.85,-9.9 -1.41,-3.75 -2.1,-7.73 -2.1,-11.92 0,-2.91 0.42,-5.61 1.27,-8.11 0.85,-2.5 2.13,-4.67 3.83,-6.52 1.69,-1.85 3.82,-3.32 6.37,-4.42 2.55,-1.11 5.52,-1.65 8.93,-1.65 4.49,0 8.3,0.79 11.39,2.39 3.1,1.61 5.81,3.66 8.1,6.16 l 8.41,-7.81 c -3.81,-3.79 -8.03,-6.82 -12.68,-9.07 -4.65,-2.25 -10.03,-3.37 -16.12,-3.37 -5.11,0 -9.73,0.74 -13.88,2.24 -4.15,1.51 -7.67,3.61 -10.57,6.31 -2.9,2.7 -5.16,5.92 -6.75,9.67 -1.6,3.75 -2.4,7.93 -2.4,12.52 0,5.9 1.02,11.53 3.07,16.88 2.05,5.35 4.95,10.05 8.7,14.1 3.75,4.05 8.28,7.28 13.58,9.68 5.29,2.39 11.19,3.6 17.69,3.6 2.6,0 5.18,-0.26 7.73,-0.76 2.55,-0.5 4.95,-1.22 7.2,-2.17 2.25,-0.95 4.3,-2.17 6.15,-3.67 1.85,-1.5 3.38,-3.31 4.58,-5.41 l -10.8,-8.09" />
      <path id="path214" style="fill:#fff;fill-opacity:1;fill-rule:nonzero;stroke:none"
        d="m 4077.69,6555.8 h 21.75 c 8,0 15.02,1.33 21.07,3.98 6.06,2.65 11.13,6.17 15.23,10.58 4.1,4.39 7.18,9.42 9.23,15.07 2.05,5.65 3.07,11.48 3.07,17.48 0,4.59 -0.75,8.92 -2.25,12.97 -1.5,4.05 -3.77,7.6 -6.83,10.65 -3.05,3.05 -6.94,5.48 -11.7,7.27 -4.74,1.81 -10.37,2.7 -16.87,2.7 h -18.45 z m 1.95,93.31 h 34.35 c 6,0 11.94,-0.83 17.85,-2.48 5.9,-1.65 11.2,-4.25 15.9,-7.8 4.7,-3.55 8.5,-8.15 11.4,-13.8 2.9,-5.65 4.35,-12.43 4.35,-20.32 0,-9.3 -1.63,-17.76 -4.87,-25.35 -3.25,-7.61 -7.78,-14.11 -13.58,-19.5 -5.81,-5.41 -12.65,-9.58 -20.55,-12.53 -7.9,-2.95 -16.5,-4.42 -25.8,-4.42 h -37.8 l 18.75,106.2" />
      <path id="path216" style="fill:#fff;fill-opacity:1;fill-rule:nonzero;stroke:none"
        d="m 4206.24,6639.96 c 0,-2.5 -0.85,-4.65 -2.53,-6.46 -1.69,-1.8 -3.77,-2.7 -6.25,-2.7 -2.39,0 -4.44,0.76 -6.17,2.26 -1.73,1.49 -2.6,3.6 -2.6,6.3 0,2.69 0.92,4.92 2.74,6.67 1.84,1.75 3.95,2.63 6.33,2.63 2.37,0 4.38,-0.81 6.03,-2.41 1.63,-1.6 2.45,-3.7 2.45,-6.29 z m -18.45,-97.05 h -13.81 l 12.45,71.09 h 13.96 l -12.6,-71.09" />
      <path id="path218" style="fill:#fff;fill-opacity:1;fill-rule:nonzero;stroke:none"
        d="m 4223.56,6605.9 c 0.45,3.01 0.77,5.71 0.98,8.1 h 13.19 c -0.1,-0.7 -0.19,-1.57 -0.3,-2.62 -0.1,-1.05 -0.23,-2.15 -0.37,-3.3 -0.15,-1.15 -0.31,-2.25 -0.45,-3.3 -0.15,-1.05 -0.28,-1.98 -0.37,-2.77 h 0.29 c 2.5,4.2 5.62,7.57 9.37,10.12 3.75,2.55 8.03,3.83 12.84,3.83 2.19,0 4.04,-0.21 5.54,-0.6 l -2.4,-13.06 c -2,0.5 -4.05,0.76 -6.15,0.76 -3.4,0 -6.4,-0.63 -9,-1.88 -2.6,-1.25 -4.85,-2.92 -6.74,-5.02 -1.91,-2.1 -3.43,-4.53 -4.58,-7.28 -1.16,-2.75 -1.98,-5.62 -2.47,-8.63 l -6.61,-37.34 h -13.79 l 9.74,55.64 c 0.4,1.9 0.83,4.36 1.28,7.35" />
      <path id="path220" style="fill:#fff;fill-opacity:1;fill-rule:nonzero;stroke:none"
        d="m 4320.38,6584.45 c 0.09,0.7 0.17,1.45 0.22,2.25 0.05,0.8 0.08,1.56 0.08,2.25 0,4.6 -1.49,8.43 -4.5,11.48 -3,3.05 -7.35,4.57 -13.05,4.57 -3.4,0 -6.5,-0.59 -9.3,-1.8 -2.8,-1.19 -5.28,-2.75 -7.43,-4.65 -2.15,-1.89 -3.94,-4.1 -5.4,-6.6 -1.44,-2.5 -2.47,-5 -3.06,-7.5 z m -43.95,-10.2 c -0.1,-0.5 -0.14,-0.92 -0.14,-1.27 0,-0.35 0,-0.73 0,-1.12 0,-2.81 0.51,-5.38 1.57,-7.73 1.04,-2.35 2.5,-4.4 4.34,-6.15 1.86,-1.75 4.06,-3.1 6.6,-4.05 2.55,-0.95 5.28,-1.43 8.18,-1.43 5.1,0 9.47,1.03 13.12,3.08 3.66,2.05 6.73,4.62 9.23,7.72 l 8.25,-7.8 c -4.2,-4.8 -9,-8.42 -14.4,-10.87 -5.4,-2.45 -11.25,-3.67 -17.55,-3.67 -4.7,0 -9.07,0.7 -13.12,2.1 -4.06,1.39 -7.55,3.44 -10.5,6.14 -2.95,2.71 -5.26,6 -6.91,9.91 -1.65,3.89 -2.47,8.35 -2.47,13.35 0,5.9 1.05,11.49 3.15,16.79 2.1,5.3 5,9.93 8.7,13.88 3.7,3.95 8.1,7.07 13.2,9.37 5.1,2.3 10.6,3.46 16.51,3.46 9.09,0 16.28,-2.48 21.59,-7.43 5.3,-4.95 7.95,-11.87 7.95,-20.78 0,-1.4 -0.13,-3.42 -0.37,-6.07 -0.26,-2.65 -0.63,-5.13 -1.13,-7.43 h -55.8" />
      <path id="path222" style="fill:#fff;fill-opacity:1;fill-rule:nonzero;stroke:none"
        d="m 4405.73,6595.86 c -1.2,2.4 -3.22,4.42 -6.08,6.07 -2.85,1.65 -6.02,2.48 -9.53,2.48 -4.1,0 -7.87,-0.83 -11.32,-2.48 -3.45,-1.65 -6.42,-3.9 -8.92,-6.75 -2.5,-2.85 -4.45,-6.15 -5.85,-9.9 -1.41,-3.75 -2.1,-7.73 -2.1,-11.92 0,-2.91 0.42,-5.61 1.27,-8.11 0.85,-2.5 2.13,-4.67 3.83,-6.52 1.7,-1.85 3.83,-3.32 6.37,-4.42 2.55,-1.11 5.52,-1.65 8.93,-1.65 4.49,0 8.3,0.79 11.4,2.39 3.09,1.61 5.8,3.66 8.09,6.16 l 8.41,-7.81 c -3.81,-3.79 -8.03,-6.82 -12.68,-9.07 -4.64,-2.25 -10.02,-3.37 -16.12,-3.37 -5.11,0 -9.72,0.74 -13.88,2.24 -4.15,1.51 -7.67,3.61 -10.57,6.31 -2.9,2.7 -5.16,5.92 -6.75,9.67 -1.6,3.75 -2.4,7.93 -2.4,12.52 0,5.9 1.02,11.53 3.07,16.88 2.06,5.35 4.96,10.05 8.71,14.1 3.75,4.05 8.27,7.28 13.57,9.68 5.29,2.39 11.19,3.6 17.69,3.6 2.6,0 5.18,-0.26 7.73,-0.76 2.55,-0.5 4.95,-1.22 7.21,-2.17 2.24,-0.95 4.29,-2.17 6.14,-3.67 1.85,-1.5 3.38,-3.31 4.58,-5.41 l -10.8,-8.09" />
      <path id="path224" style="fill:#fff;fill-opacity:1;fill-rule:nonzero;stroke:none"
        d="m 4464.52,6602.61 h -17.55 l -6.75,-37.36 c -0.3,-1.7 -0.45,-3.2 -0.45,-4.49 0,-3.01 0.77,-5.03 2.33,-6.08 1.55,-1.05 3.62,-1.57 6.23,-1.57 1.39,0 2.79,0.15 4.2,0.44 1.39,0.31 2.54,0.7 3.44,1.2 l -1.05,-11.09 c -1.4,-0.6 -3.13,-1.08 -5.18,-1.43 -2.05,-0.35 -4.07,-0.53 -6.07,-0.53 -5.5,0 -9.88,1.23 -13.13,3.68 -3.25,2.45 -4.87,6.32 -4.87,11.63 0,1.1 0.05,2.24 0.16,3.44 0.09,1.21 0.24,2.41 0.45,3.61 l 6.89,38.55 h -13.5 l 2.1,11.39 h 13.35 l 3.45,20.41 h 13.8 l -3.59,-20.41 h 17.84 l -2.1,-11.39" />
      <path id="path226" style="fill:#fff;fill-opacity:1;fill-rule:nonzero;stroke:none"
        d="m 4532.61,6583.86 c 0,2.89 -0.48,5.59 -1.42,8.09 -0.95,2.5 -2.3,4.68 -4.05,6.53 -1.75,1.85 -3.9,3.3 -6.45,4.35 -2.55,1.05 -5.37,1.58 -8.48,1.58 -4.1,0 -7.85,-0.86 -11.25,-2.55 -3.4,-1.71 -6.33,-3.98 -8.77,-6.83 -2.45,-2.85 -4.35,-6.15 -5.7,-9.9 -1.35,-3.75 -2.02,-7.72 -2.02,-11.93 0,-5.99 1.8,-10.92 5.4,-14.77 3.59,-3.85 8.59,-5.77 15,-5.77 4.09,0 7.84,0.82 11.25,2.47 3.4,1.65 6.32,3.9 8.77,6.75 2.45,2.85 4.35,6.17 5.7,9.98 1.35,3.8 2.02,7.79 2.02,12 z m -28.49,-42.9 c -4.91,0 -9.41,0.74 -13.51,2.24 -4.1,1.51 -7.65,3.63 -10.64,6.38 -3,2.75 -5.35,6.03 -7.05,9.83 -1.7,3.79 -2.55,7.99 -2.55,12.6 0,5.9 1.02,11.49 3.07,16.79 2.04,5.31 4.95,9.98 8.7,14.03 3.75,4.05 8.25,7.25 13.5,9.6 5.25,2.35 11.07,3.53 17.47,3.53 4.9,0 9.41,-0.76 13.51,-2.25 4.1,-1.5 7.64,-3.6 10.64,-6.3 3.01,-2.7 5.33,-5.93 6.98,-9.68 1.65,-3.75 2.47,-7.93 2.47,-12.53 0,-6 -1.02,-11.67 -3.07,-17.02 -2.05,-5.35 -4.95,-10.05 -8.7,-14.1 -3.75,-4.05 -8.23,-7.25 -13.42,-9.6 -5.21,-2.35 -11.01,-3.52 -17.4,-3.52" />
      <path id="path228" style="fill:#fff;fill-opacity:1;fill-rule:nonzero;stroke:none"
        d="m 4570.94,6605.9 c 0.45,3.01 0.77,5.71 0.98,8.1 h 13.19 c -0.09,-0.7 -0.19,-1.57 -0.3,-2.62 -0.1,-1.05 -0.22,-2.15 -0.37,-3.3 -0.15,-1.15 -0.3,-2.25 -0.45,-3.3 -0.15,-1.05 -0.27,-1.98 -0.37,-2.77 h 0.29 c 2.5,4.2 5.63,7.57 9.38,10.12 3.75,2.55 8.02,3.83 12.83,3.83 2.2,0 4.04,-0.21 5.55,-0.6 l -2.41,-13.06 c -2,0.5 -4.05,0.76 -6.15,0.76 -3.4,0 -6.4,-0.63 -8.99,-1.88 -2.61,-1.25 -4.86,-2.92 -6.75,-5.02 -1.91,-2.1 -3.43,-4.53 -4.58,-7.28 -1.15,-2.75 -1.97,-5.62 -2.47,-8.63 l -6.6,-37.34 h -13.8 l 9.74,55.64 c 0.4,1.9 0.83,4.36 1.28,7.35" />
      <path id="path462" style="fill:#fff;fill-opacity:1;fill-rule:nonzero;stroke:none"
        d="m 0,6787.07 1.76953,2.98 7.14453,-6.54 7.72654,-7.14 8.3086,-5.34 8.9258,-5.95 8.9258,-4.74 10.1211,-5.36 13.0703,-4.75 12.4726,-2.98 13.086,-1.82 16.6372,-0.57 h 11.89 l 11.32,0.57 13.071,2.41 17.836,3.57 18.414,5.34 13.676,4.77 17.851,6.52 16.641,6.55 15.465,7.73 11.875,6.53 13.664,8.32 13.687,10.12 11.891,9.51 10.699,8.91 11.875,10.71 11.305,10.69 19.004,17.25 13.699,13.09 13.648,13.06 11.895,11.89 14.265,13.67 13.696,12.5 12.492,11.29 13.648,13.68 14.282,13.67 16.64,16.04 15.059,14.27 14.062,13.69 13.117,12.46 13.047,12.5 12.496,11.89 11.887,11.88 14.27,13.69 13.66,12.46 8.914,7.75 13.086,11.29 13.07,10.71 7.934,7.71 10.293,8.73 11.113,8.72 11.891,9.5 10.304,7.94 10.309,8.51 10.516,7.34 10.101,7.14 15.649,11.69 15.449,10.1 16.64,9.51 13.071,7.72 11.691,5.35 9.734,4.17 8.922,3.58 11.09,4.16 14.266,4.75 13.465,3.18 7.941,1.55 14.27,2.4 18.007,2.38 16.082,0.59 h 11.875 l 16.625,-0.59 12.512,-1.18 13.063,-1.2 13.086,-2.4 12.496,-2.94 10.078,-3.57 11.312,-4.76 8.91,-4.16 8.93,-6.54 7.73,-8.33 5.35,-7.73 3.57,-7.72 3.16,-10.11 0.98,-10.71 v -9.5 l -1.78,-10.11 -1.58,-10.51 -3.96,-9.5 -6.35,-10.3 -7.12,-7.15 -9.535,-7.14 -9.516,-5.55 -13.441,-5.55 -12.703,-3.16 -14.277,-1.58 -14.25,0.8 -12.473,1.97 -12.496,3.57 -12.465,5.36 -10.109,5.93 -9.543,10.12 -5.934,9.5 -4.762,11.3 -2.765,10.31 -1.582,10.09 0.773,11.1 2.395,10.12 3.57,4.75 3.566,5.35 3.539,3.57 4.383,3.16 -4.383,1.59 -7.105,-0.58 -6.738,-1.79 -6.336,-3.19 -11.114,-5.53 -12.671,-8.72 -11.114,-8.73 -12.679,-10.31 -10.313,-8.69 -11.859,-11.12 -8.743,-7.93 -11.859,-11.87 -14.281,-15.87 -26.762,-30.72 -11.269,-11.29 -11.321,-11.87 -6.539,-6.95 -10.101,-10.12 -12.465,-13.84 -11.922,-11.9 -10.68,-10.71 -10.715,-11.31 -7.918,-7.72 -9.5,-10.68 -12.5,-12.49 -11.687,-11.69 -12.496,-13.09 -11.688,-12.68 -11.89,-11.89 -9.5,-8.93 -13.696,-13.06 -8.304,-7.16 -10.512,-8.89 -10.309,-9.5 -11.886,-11.12 -13.465,-11.1 -11.875,-9.51 -9.731,-7.72 -13.277,-10.5 -14.266,-11.1 -11.89,-8.31 -10.699,-7.94 -13.875,-9.92 -15.258,-10.09 -19.004,-10.69 -14.301,-7.75 -14.047,-6.34 -13.289,-4.95 -20.992,-7.54 -17.07,-4.94 -20.2,-5.35 -17.836,-2.99 -24.96,-3.57 -23.786,-1.77 -20.789,-1.18 -23.207,0.58 -17.215,1.2 -17.859,2.39 -14.8515,2.94 -16.0625,3.56 -13.668,4.19 -10.1015,3.57 -9.5196,3.56 -8.9101,4.76 -7.7305,4.72 -8.9101,6.57 -7.1446,7.13 -7.10935,8.35 -5.97656,8.89 -2.96094,5.95 L 0,6787.07" />
      <path id="path464" style="fill:#fff;fill-opacity:1;fill-rule:nonzero;stroke:none"
        d="m 741.773,6771.26 10.883,-7.35 8.926,-5.34 8.336,-3.57 8.305,-2.97 9.515,-1.77 10.696,-1.79 h 9.504 l 13.878,1.2 7.34,1.99 7.344,2.37 7.715,3.97 6.723,4.74 3.585,4.76 2.579,5.55 -8.321,-2.38 -9.113,-0.19 -7.746,-0.6 -11.492,1 -8.492,1.78 -8.149,2.77 -8.711,3.98 -7.152,4.73 -6.531,5.95 -4.153,4.15 -2.992,4.76 -3.539,6.54 -1.789,5.94 -0.805,9.52 v 9.33 l 1.582,12.48 3.383,10.69 3.961,7.44 3.742,7.02 5.559,6.54 6.363,5.55 7.918,6.35 7.125,3.19 6.348,3.16 10.293,3.17 10.308,2.38 11.906,1.58 7.918,0.79 h 7.145 l 5.926,-0.61 9.922,-1.76 11.875,-2.38 10.308,-3.96 8.321,-4.36 10.105,-7.74 4.781,-5.94 4.145,-6.55 4.144,-8.91 2.594,-8.93 1.582,-8.92 0.594,-7.11 v -7.75 l -1.184,-8.51 -0.992,-6.94 -4.766,-15.06 -3.96,-8.72 -3.54,-7.72 -5.968,-8.32 -5.95,-7.14 -8.32,-8.91 -5.933,-5.35 -11.301,-8.96 -8.93,-5.9 -9.512,-6.35 -10.679,-4.76 -10.309,-3.97 -12.496,-3.55 -14.254,-3.58 -14.855,-1.97 -16.082,-1.78 -14.266,-0.6 -16.617,0.6 -15.473,1.78 -15.449,2.96 -20.816,6.55 -13.676,5.93 -13.086,7.73 -12.656,8.12 -10.707,8.34 -6.512,5.84 -7.715,6.54 -5.961,5.94 -6.547,7.73 -5.344,7.13 -3.773,5.76 -4.75,7.71 -3.371,6.34 -3.738,10.39 -3.977,11.03 -2.387,13.65 -2.363,12.5 -0.605,13.09 v 12.46 l 0.605,12.51 1.785,11.89 3.559,15.55 2.344,9.91 5.183,10.99 3.731,9.21 6.546,11.32 6.54,11.29 8.55,11 9.5,11.89 9.875,10.98 10.684,10.73 10.726,8.9 11.891,7.73 10.695,7.12 13.68,7.75 13.27,5.53 11.89,5.35 12.496,4.75 12.469,4.18 13.07,3.57 12.946,1.9 11.906,1.78 15.203,1.47 14.277,0.49 12.414,-0.11 11.27,-0.61 13.344,-0.37 11.347,-1.44 12.266,-1.56 17.594,-3.25 11.887,-3.57 9.535,-4.45 4.558,-4.53 -0.836,-1.7 -5.425,-0.21 -5.872,1.86 -6.281,1.14 -11.129,1.25 -19.172,0.89 h -10.293 l -11.113,-0.79 -15.101,-1.48 -11.278,-1.79 -11.886,-2.96 -10.106,-2.98 -10.711,-3.55 -10.109,-4.77 -10.106,-5.95 -9.703,-5.74 -8.926,-5.93 -8.652,-7.35 -8.91,-7.71 -7.141,-8.32 -7.976,-9.91 -6.852,-10.9 -5.066,-6.95 -5.864,-12.48 -4.847,-9.52 -4.149,-10.71 -3.57,-11.88 -2.965,-11.29 -1.769,-17.84 -0.621,-11.88 0.621,-10.71 1.367,-14.83 1.078,-11 1.77,-11.17 3.511,-11.78 4.727,-13.65 4.199,-9.49 5.934,-9.53 5.339,-6.54 7.157,-7.14 7.718,-7.13" />
      <path id="path466" style="fill:#fff;fill-opacity:1;fill-rule:nonzero;stroke:none"
        d="m 1069.48,7029.32 c 5.41,-8.11 12.33,-14.08 20.75,-17.92 8.42,-3.86 17.1,-5.78 26.05,-5.78 4.99,0 10.07,0.78 15.27,2.34 5.2,1.57 9.93,3.91 14.2,7.02 4.26,3.12 7.74,6.97 10.45,11.54 2.7,4.58 4.05,9.88 4.05,15.9 0,8.53 -2.7,15.03 -8.11,19.5 -5.41,4.47 -12.11,8.21 -20.11,11.22 -8.02,3.03 -16.75,5.93 -26.21,8.75 -9.46,2.8 -18.19,6.69 -26.19,11.69 -8.01,4.99 -14.72,11.71 -20.13,20.12 -5.41,8.42 -8.11,19.8 -8.11,34.16 0,6.44 1.41,13.3 4.21,20.59 2.81,7.26 7.23,13.93 13.26,19.95 6.03,6.03 13.78,11.07 23.24,15.13 9.46,4.06 20.85,6.08 34.15,6.08 12.06,0 23.6,-1.66 34.63,-4.98 11.02,-3.34 20.68,-10.1 29,-20.27 l -24.32,-22.16 c -3.75,5.82 -9.05,10.5 -15.91,14.04 -6.87,3.53 -14.66,5.3 -23.4,5.3 -8.31,0 -15.23,-1.09 -20.74,-3.28 -5.51,-2.17 -9.93,-4.98 -13.26,-8.42 -3.32,-3.43 -5.66,-7.13 -7.01,-11.07 -1.36,-3.95 -2.03,-7.59 -2.03,-10.91 0,-9.36 2.7,-16.54 8.11,-21.53 5.4,-4.99 12.11,-9.04 20.12,-12.16 8,-3.13 16.73,-5.92 26.2,-8.42 9.46,-2.5 18.19,-5.98 26.2,-10.45 8.01,-4.48 14.71,-10.51 20.12,-18.1 5.41,-7.59 8.11,-18.04 8.11,-31.34 0,-10.61 -2.03,-20.18 -6.08,-28.69 -4.06,-8.53 -9.52,-15.72 -16.38,-21.53 -6.86,-5.83 -14.97,-10.29 -24.33,-13.42 -9.36,-3.11 -19.34,-4.68 -29.94,-4.68 -14.15,0 -27.56,2.51 -40.24,7.5 -12.68,4.99 -22.77,12.67 -30.26,23.08 l 24.64,21.2" />
      <path id="path468" style="fill:#fff;fill-opacity:1;fill-rule:nonzero;stroke:none"
        d="m 1317.44,7091.71 c -5.2,5.4 -10.66,9.52 -16.38,12.33 -5.72,2.79 -12.53,4.21 -20.42,4.21 -7.7,0 -14.4,-1.42 -20.13,-4.21 -5.71,-2.81 -10.49,-6.66 -14.35,-11.55 -3.84,-4.89 -6.75,-10.5 -8.72,-16.83 -1.98,-6.36 -2.97,-12.96 -2.97,-19.82 0,-6.87 1.15,-13.36 3.44,-19.5 2.28,-6.13 5.5,-11.48 9.66,-16.05 4.16,-4.59 9.15,-8.18 14.97,-10.76 5.83,-2.61 12.37,-3.91 19.65,-3.91 7.91,0 14.66,1.4 20.28,4.21 5.61,2.81 10.81,6.91 15.6,12.32 l 19.95,-19.96 c -7.27,-8.12 -15.74,-13.93 -25.42,-17.46 -9.66,-3.55 -19.91,-5.31 -30.72,-5.31 -11.43,0 -21.88,1.87 -31.35,5.62 -9.46,3.75 -17.61,9 -24.48,15.75 -6.86,6.75 -12.17,14.85 -15.9,24.33 -3.75,9.45 -5.62,19.9 -5.62,31.34 0,11.44 1.87,21.93 5.62,31.5 3.73,9.57 8.98,17.79 15.74,24.65 6.76,6.86 14.87,12.21 24.33,16.06 9.46,3.85 20.02,5.77 31.66,5.77 10.81,0 21.16,-1.92 31.04,-5.77 9.87,-3.85 18.45,-9.72 25.73,-17.63 l -21.21,-19.33" />
      <path id="path470" style="fill:#fff;fill-opacity:1;fill-rule:nonzero;stroke:none"
        d="m 1354.56,7218.97 h 28.07 v -110.72 h 0.62 c 3.53,7.89 9.67,14.29 18.4,19.17 8.74,4.89 18.82,7.34 30.26,7.34 7.06,0 13.88,-1.09 20.43,-3.28 6.55,-2.19 12.27,-5.57 17.15,-10.14 4.89,-4.58 8.79,-10.45 11.7,-17.63 2.91,-7.17 4.37,-15.64 4.37,-25.41 v -95.14 h -28.07 v 87.34 c 0,6.86 -0.94,12.74 -2.81,17.63 -1.88,4.87 -4.37,8.83 -7.49,11.85 -3.12,3 -6.7,5.19 -10.76,6.55 -4.06,1.34 -8.26,2.02 -12.63,2.02 -5.83,0 -11.23,-0.93 -16.22,-2.8 -5,-1.88 -9.36,-4.84 -13.1,-8.9 -3.75,-4.04 -6.66,-9.19 -8.74,-15.44 -2.07,-6.23 -3.11,-13.62 -3.11,-22.14 v -76.11 h -28.07 v 235.81" />
      <path id="path472" style="fill:#fff;fill-opacity:1;fill-rule:nonzero;stroke:none"
        d="m 1533.26,7057.09 c 0,-7.5 1.15,-14.4 3.44,-20.75 2.29,-6.34 5.5,-11.75 9.66,-16.21 4.16,-4.49 9.25,-8.02 15.29,-10.6 6.03,-2.61 12.78,-3.91 20.27,-3.91 7.49,0 14.24,1.3 20.27,3.91 6.03,2.58 11.13,6.11 15.29,10.6 4.16,4.46 7.38,9.87 9.67,16.21 2.28,6.35 3.43,13.25 3.43,20.75 0,7.48 -1.15,14.39 -3.43,20.74 -2.29,6.33 -5.51,11.75 -9.67,16.22 -4.16,4.46 -9.26,8 -15.29,10.61 -6.03,2.59 -12.78,3.89 -20.27,3.89 -7.49,0 -14.24,-1.3 -20.27,-3.89 -6.04,-2.61 -11.13,-6.15 -15.29,-10.61 -4.16,-4.47 -7.37,-9.89 -9.66,-16.22 -2.29,-6.35 -3.44,-13.26 -3.44,-20.74 z m -29.94,0 c 0,10.81 2.02,20.9 6.08,30.25 4.06,9.36 9.62,17.57 16.69,24.64 7.07,7.06 15.39,12.63 24.95,16.69 9.56,4.06 19.86,6.09 30.88,6.09 11.02,0 21.31,-2.03 30.88,-6.09 9.56,-4.06 17.88,-9.63 24.96,-16.69 7.06,-7.07 12.63,-15.28 16.68,-24.64 4.06,-9.35 6.09,-19.44 6.09,-30.25 0,-10.82 -2.03,-20.95 -6.09,-30.41 -4.05,-9.47 -9.62,-17.68 -16.68,-24.64 -7.08,-6.97 -15.4,-12.48 -24.96,-16.54 -9.57,-4.05 -19.86,-6.08 -30.88,-6.08 -11.02,0 -21.32,2.03 -30.88,6.08 -9.56,4.06 -17.88,9.57 -24.95,16.54 -7.07,6.96 -12.63,15.17 -16.69,24.64 -4.06,9.46 -6.08,19.59 -6.08,30.41" />
      <path id="path474" style="fill:#fff;fill-opacity:1;fill-rule:nonzero;stroke:none"
        d="m 1690.47,7218.97 h 28.07 v -235.81 h -28.07 v 235.81" />
      <path id="path476" style="fill:#fff;fill-opacity:1;fill-rule:nonzero;stroke:none"
        d="m 1835.5,7054.27 c -6.66,0 -13.46,-0.36 -20.43,-1.07 -6.97,-0.74 -13.31,-2.15 -19.02,-4.23 -5.73,-2.08 -10.4,-4.98 -14.04,-8.72 -3.64,-3.75 -5.46,-8.53 -5.46,-14.36 0,-8.53 2.86,-14.65 8.58,-18.4 5.71,-3.74 13.46,-5.6 23.24,-5.6 7.69,0 14.23,1.28 19.65,3.88 5.4,2.61 9.76,5.98 13.09,10.14 3.33,4.17 5.72,8.79 7.18,13.88 1.45,5.1 2.18,10.14 2.18,15.14 v 9.34 z m -79.22,58.66 c 7.9,7.27 17.05,12.72 27.45,16.36 10.39,3.64 20.78,5.47 31.18,5.47 10.82,0 20.13,-1.36 27.92,-4.06 7.8,-2.71 14.19,-6.35 19.19,-10.92 4.99,-4.57 8.68,-9.82 11.07,-15.74 2.38,-5.93 3.59,-12.12 3.59,-18.57 v -75.49 c 0,-5.19 0.09,-9.96 0.31,-14.34 0.2,-4.36 0.51,-8.53 0.94,-12.48 h -24.96 c -0.63,7.5 -0.94,14.97 -0.94,22.46 h -0.62 c -6.24,-9.57 -13.63,-16.32 -22.15,-20.27 -8.53,-3.94 -18.39,-5.93 -29.63,-5.93 -6.87,0 -13.41,0.93 -19.65,2.8 -6.24,1.89 -11.69,4.68 -16.37,8.44 -4.68,3.73 -8.38,8.36 -11.08,13.87 -2.7,5.51 -4.05,11.91 -4.05,19.18 0,9.56 2.13,17.58 6.39,24.02 4.26,6.45 10.09,11.69 17.47,15.75 7.38,4.06 16.01,6.97 25.89,8.74 9.87,1.76 20.43,2.64 31.66,2.64 h 20.58 v 6.25 c 0,3.73 -0.73,7.47 -2.18,11.22 -1.46,3.74 -3.64,7.12 -6.55,10.14 -2.92,3 -6.55,5.4 -10.92,7.17 -4.36,1.77 -9.56,2.66 -15.59,2.66 -5.41,0 -10.14,-0.52 -14.2,-1.56 -4.05,-1.04 -7.74,-2.34 -11.07,-3.91 -3.33,-1.54 -6.35,-3.38 -9.05,-5.45 -2.7,-2.08 -5.3,-4.06 -7.79,-5.93 l -16.84,17.48" />
      <path id="path478" style="fill:#fff;fill-opacity:1;fill-rule:nonzero;stroke:none"
        d="m 1216.71,6901.07 c -6.24,8.11 -14.14,14.34 -23.71,18.72 -9.57,4.37 -19.44,6.55 -29.63,6.55 -12.48,0 -23.76,-2.34 -33.84,-7.02 -10.09,-4.68 -18.72,-11.07 -25.89,-19.19 -7.17,-8.1 -12.74,-17.61 -16.69,-28.53 -3.95,-10.92 -5.92,-22.62 -5.92,-35.09 0,-11.65 1.87,-22.67 5.61,-33.06 3.74,-10.4 9.15,-19.55 16.22,-27.46 7.07,-7.9 15.7,-14.13 25.89,-18.7 10.18,-4.59 21.72,-6.87 34.62,-6.87 12.69,0 23.81,2.6 33.37,7.79 9.56,5.19 17.68,12.48 24.34,21.84 l 25.26,-19.02 c -1.67,-2.29 -4.58,-5.57 -8.74,-9.84 -4.16,-4.26 -9.66,-8.53 -16.52,-12.78 -6.87,-4.26 -15.13,-8.02 -24.8,-11.22 -9.67,-3.23 -20.85,-4.85 -33.53,-4.85 -17.47,0 -33.22,3.34 -47.26,9.98 -14.03,6.66 -25.99,15.4 -35.86,26.21 -9.88,10.8 -17.43,23.03 -22.62,36.65 -5.2,13.61 -7.8,27.39 -7.8,41.33 0,17.04 2.81,32.8 8.42,47.26 5.62,14.44 13.47,26.93 23.55,37.42 10.09,10.49 22.2,18.67 36.34,24.49 14.14,5.82 29.74,8.73 46.79,8.73 14.55,0 28.85,-2.8 42.88,-8.42 14.04,-5.61 25.53,-14.25 34.47,-25.89 l -24.95,-19.03" />
      <path id="path480" style="fill:#fff;fill-opacity:1;fill-rule:nonzero;stroke:none"
        d="m 1337.71,6799.07 c -6.66,0 -13.46,-0.36 -20.43,-1.08 -6.97,-0.74 -13.31,-2.15 -19.02,-4.22 -5.72,-2.07 -10.41,-4.98 -14.04,-8.73 -3.64,-3.75 -5.45,-8.52 -5.45,-14.35 0,-8.53 2.85,-14.65 8.57,-18.4 5.71,-3.74 13.46,-5.61 23.24,-5.61 7.69,0 14.24,1.29 19.65,3.89 5.41,2.61 9.77,5.98 13.1,10.13 3.32,4.17 5.71,8.8 7.17,13.89 1.45,5.1 2.19,10.14 2.19,15.14 v 9.34 z m -79.22,58.65 c 7.9,7.27 17.05,12.73 27.45,16.37 10.39,3.64 20.78,5.46 31.19,5.46 10.81,0 20.12,-1.35 27.92,-4.05 7.79,-2.71 14.18,-6.36 19.17,-10.93 5,-4.57 8.69,-9.81 11.07,-15.74 2.4,-5.92 3.6,-12.11 3.6,-18.56 v -75.49 c 0,-5.19 0.1,-9.97 0.31,-14.35 0.2,-4.36 0.51,-8.52 0.94,-12.47 h -24.96 c -0.62,7.49 -0.94,14.97 -0.94,22.46 h -0.62 c -6.24,-9.57 -13.62,-16.33 -22.14,-20.27 -8.53,-3.95 -18.41,-5.93 -29.63,-5.93 -6.87,0 -13.42,0.93 -19.66,2.8 -6.24,1.88 -11.69,4.68 -16.37,8.43 -4.68,3.74 -8.38,8.36 -11.08,13.87 -2.7,5.51 -4.05,11.91 -4.05,19.2 0,9.55 2.13,17.56 6.39,24 4.26,6.46 10.09,11.7 17.47,15.76 7.38,4.05 16.01,6.96 25.89,8.74 9.87,1.75 20.43,2.64 31.66,2.64 h 20.59 v 6.24 c 0,3.74 -0.74,7.48 -2.19,11.23 -1.46,3.75 -3.63,7.12 -6.55,10.14 -2.91,3 -6.55,5.39 -10.92,7.17 -4.36,1.77 -9.57,2.66 -15.59,2.66 -5.41,0 -10.14,-0.53 -14.2,-1.57 -4.04,-1.03 -7.74,-2.33 -11.07,-3.9 -3.33,-1.55 -6.34,-3.38 -9.04,-5.45 -2.7,-2.08 -5.31,-4.06 -7.8,-5.93 l -16.84,17.47" />
      <path id="path482" style="fill:#fff;fill-opacity:1;fill-rule:nonzero;stroke:none"
        d="m 1402.26,6875.8 h 28.07 v -22.76 h 0.62 c 3.53,7.89 9.68,14.29 18.4,19.18 8.74,4.89 18.82,7.33 30.27,7.33 7.06,0 13.87,-1.09 20.42,-3.28 6.55,-2.18 12.27,-5.56 17.16,-10.13 4.88,-4.58 8.78,-10.45 11.7,-17.62 2.9,-7.18 4.36,-15.65 4.36,-25.42 v -95.14 h -28.07 v 87.34 c 0,6.85 -0.94,12.74 -2.81,17.63 -1.88,4.87 -4.37,8.83 -7.49,11.85 -3.11,3 -6.7,5.19 -10.76,6.54 -4.05,1.34 -8.26,2.02 -12.63,2.02 -5.83,0 -11.23,-0.92 -16.22,-2.79 -4.99,-1.88 -9.35,-4.85 -13.1,-8.91 -3.75,-4.04 -6.66,-9.18 -8.74,-15.43 -2.07,-6.23 -3.11,-13.63 -3.11,-22.14 v -76.11 h -28.07 v 147.84" />
      <path id="path484" style="fill:#fff;fill-opacity:1;fill-rule:nonzero;stroke:none"
        d="m 1647.42,6851.48 h -40.23 v -67.05 c 0,-4.18 0.1,-8.27 0.31,-12.33 0.2,-4.06 0.98,-7.69 2.34,-10.92 1.35,-3.23 3.42,-5.82 6.24,-7.8 2.8,-1.98 6.9,-2.96 12.32,-2.96 3.32,0 6.75,0.32 10.29,0.94 3.53,0.62 6.75,1.76 9.67,3.42 v -25.57 c -3.33,-1.87 -7.65,-3.17 -12.95,-3.89 -5.3,-0.74 -9.41,-1.1 -12.31,-1.1 -10.82,0 -19.19,1.51 -25.12,4.51 -5.92,3.02 -10.29,6.91 -13.1,11.7 -2.8,4.78 -4.47,10.14 -4.99,16.06 -0.52,5.93 -0.78,11.91 -0.78,17.95 v 77.04 h -32.43 v 24.32 h 32.43 v 41.49 h 28.08 v -41.49 h 40.23 v -24.32" />
      <path id="path486" style="fill:#fff;fill-opacity:1;fill-rule:nonzero;stroke:none"
        d="m 1688.89,6801.89 c 0,-7.5 1.15,-14.41 3.44,-20.75 2.28,-6.34 5.5,-11.75 9.66,-16.21 4.16,-4.48 9.25,-8.02 15.29,-10.61 6.03,-2.6 12.78,-3.9 20.27,-3.9 7.49,0 14.24,1.3 20.27,3.9 6.03,2.59 11.13,6.13 15.29,10.61 4.16,4.46 7.38,9.87 9.67,16.21 2.28,6.34 3.43,13.25 3.43,20.75 0,7.49 -1.15,14.4 -3.43,20.73 -2.29,6.34 -5.51,11.76 -9.67,16.23 -4.16,4.46 -9.26,8.01 -15.29,10.61 -6.03,2.59 -12.78,3.88 -20.27,3.88 -7.49,0 -14.24,-1.29 -20.27,-3.88 -6.04,-2.6 -11.13,-6.15 -15.29,-10.61 -4.16,-4.47 -7.38,-9.89 -9.66,-16.23 -2.29,-6.33 -3.44,-13.24 -3.44,-20.73 z m -29.94,0 c 0,10.81 2.02,20.9 6.08,30.24 4.06,9.36 9.61,17.58 16.69,24.65 7.06,7.06 15.39,12.63 24.95,16.69 9.56,4.05 19.85,6.08 30.88,6.08 11.02,0 21.31,-2.03 30.88,-6.08 9.56,-4.06 17.88,-9.63 24.95,-16.69 7.07,-7.07 12.63,-15.29 16.69,-24.65 4.06,-9.34 6.08,-19.43 6.08,-30.24 0,-10.82 -2.02,-20.96 -6.08,-30.41 -4.06,-9.47 -9.62,-17.68 -16.69,-24.65 -7.07,-6.96 -15.39,-12.47 -24.95,-16.53 -9.57,-4.05 -19.86,-6.08 -30.88,-6.08 -11.03,0 -21.32,2.03 -30.88,6.08 -9.56,4.06 -17.89,9.57 -24.95,16.53 -7.08,6.97 -12.63,15.18 -16.69,24.65 -4.06,9.45 -6.08,19.59 -6.08,30.41" />
      <path id="path488" style="fill:#fff;fill-opacity:1;fill-rule:nonzero;stroke:none"
        d="m 1833.91,6875.8 h 28.07 v -22.76 h 0.62 c 1.87,3.95 4.37,7.53 7.49,10.76 3.12,3.23 6.6,5.97 10.45,8.27 3.84,2.28 8.05,4.09 12.63,5.45 4.58,1.36 9.15,2.03 13.73,2.03 4.57,0 8.73,-0.61 12.47,-1.87 l -1.24,-30.26 c -2.29,0.62 -4.58,1.15 -6.86,1.56 -2.3,0.42 -4.58,0.63 -6.87,0.63 -13.73,0 -24.23,-3.85 -31.5,-11.55 -7.28,-7.68 -10.92,-19.65 -10.92,-35.86 v -74.24 h -28.07 v 147.84" />
      <path id="path490" style="fill:#fff;fill-opacity:1;fill-rule:nonzero;stroke:none"
        d="m 2072.84,6727.96 h -28.07 v 22.78 h -0.63 c -3.54,-7.91 -9.67,-14.3 -18.4,-19.19 -8.74,-4.89 -18.82,-7.33 -30.26,-7.33 -7.28,0 -14.14,1.1 -20.58,3.27 -6.45,2.19 -12.12,5.57 -17,10.14 -4.89,4.58 -8.79,10.44 -11.7,17.62 -2.91,7.17 -4.36,15.64 -4.36,25.42 v 95.13 h 28.07 v -87.33 c 0,-6.86 0.93,-12.74 2.8,-17.61 1.88,-4.89 4.37,-8.85 7.49,-11.86 3.12,-3.01 6.71,-5.2 10.76,-6.56 4.06,-1.34 8.26,-2.02 12.63,-2.02 5.82,0 11.24,0.94 16.23,2.81 4.99,1.87 9.35,4.83 13.09,8.89 3.75,4.06 6.66,9.19 8.74,15.43 2.08,6.25 3.12,13.62 3.12,22.15 v 76.1 h 28.07 v -147.84" />
      <path id="path492" style="fill:#fff;fill-opacity:1;fill-rule:nonzero;stroke:none"
        d="m 2107.77,6875.8 h 26.21 v -23.07 h 0.62 c 0.63,2.07 2.23,4.67 4.83,7.79 2.6,3.13 5.93,6.09 9.99,8.89 4.05,2.81 8.83,5.2 14.34,7.18 5.51,1.97 11.59,2.96 18.25,2.96 11.02,0 20.28,-2.3 27.76,-6.86 7.48,-4.58 13.61,-11.44 18.4,-20.59 4.79,9.15 11.54,16.01 20.28,20.59 8.73,4.56 17.57,6.86 26.51,6.86 11.43,0 20.79,-1.87 28.07,-5.61 7.28,-3.74 13,-8.69 17.16,-14.82 4.15,-6.13 7.02,-13.1 8.58,-20.89 1.55,-7.81 2.33,-15.87 2.33,-24.18 v -86.09 h -28.07 v 82.34 c 0,5.62 -0.36,11.02 -1.09,16.23 -0.73,5.19 -2.24,9.77 -4.52,13.72 -2.29,3.95 -5.51,7.11 -9.67,9.51 -4.16,2.4 -9.67,3.58 -16.53,3.58 -13.52,0 -23.19,-4.14 -29.01,-12.46 -5.82,-8.33 -8.74,-19.03 -8.74,-32.13 v -80.79 h -28.07 v 77.36 c 0,7.06 -0.36,13.51 -1.09,19.34 -0.73,5.81 -2.18,10.85 -4.36,15.12 -2.19,4.26 -5.31,7.58 -9.36,9.98 -4.06,2.4 -9.51,3.58 -16.38,3.58 -4.99,0 -9.82,-0.98 -14.5,-2.95 -4.68,-1.99 -8.79,-4.95 -12.32,-8.9 -3.54,-3.94 -6.35,-8.99 -8.43,-15.11 -2.07,-6.15 -3.11,-13.38 -3.11,-21.69 v -76.73 h -28.08 v 147.84" />
      <path id="path494" style="fill:#fff;fill-opacity:1;fill-rule:nonzero;stroke:none"
        d="m 1471.33,6633.93 c -2.13,3.08 -5.02,5.56 -8.64,7.44 -3.62,1.86 -7.73,2.79 -12.32,2.79 -2.67,0 -5.41,-0.37 -8.24,-1.11 -2.83,-0.76 -5.43,-1.96 -7.84,-3.6 -2.4,-1.66 -4.37,-3.77 -5.91,-6.32 -1.56,-2.56 -2.33,-5.61 -2.33,-9.13 0,-2.45 0.45,-4.59 1.36,-6.39 0.91,-1.82 2.16,-3.42 3.76,-4.81 1.6,-1.39 3.52,-2.64 5.76,-3.76 2.25,-1.12 4.7,-2.15 7.36,-3.11 4.16,-1.5 8.03,-3.19 11.6,-5.05 3.57,-1.86 6.72,-4.05 9.44,-6.55 2.72,-2.51 4.85,-5.39 6.4,-8.65 1.55,-3.25 2.32,-7.01 2.32,-11.27 0,-5.23 -0.99,-10.06 -2.96,-14.49 -1.97,-4.42 -4.79,-8.24 -8.48,-11.43 -3.68,-3.2 -8.13,-5.72 -13.36,-7.52 -5.23,-1.82 -11.09,-2.73 -17.6,-2.73 -3.63,0 -7.23,0.37 -10.79,1.13 -3.59,0.74 -7.03,1.83 -10.33,3.28 -3.31,1.43 -6.32,3.25 -9.04,5.44 -2.71,2.18 -4.99,4.76 -6.8,7.75 l 13.12,8.8 c 2.14,-3.73 5.36,-6.85 9.68,-9.35 4.32,-2.52 9.25,-3.77 14.8,-3.77 3.2,0 6.32,0.45 9.36,1.36 3.04,0.91 5.73,2.25 8.08,4.01 2.35,1.75 4.24,3.94 5.68,6.56 1.44,2.6 2.16,5.67 2.16,9.2 0,2.88 -0.58,5.38 -1.76,7.51 -1.18,2.13 -2.78,4 -4.8,5.6 -2.03,1.6 -4.37,3.02 -7.04,4.24 -2.67,1.23 -5.5,2.37 -8.48,3.45 -3.31,1.28 -6.51,2.71 -9.6,4.32 -3.09,1.6 -5.82,3.51 -8.16,5.76 -2.34,2.23 -4.22,4.9 -5.6,7.99 -1.38,3.1 -2.08,6.77 -2.08,11.04 0,5.23 1.04,10 3.12,14.33 2.08,4.31 4.99,7.97 8.72,10.95 3.73,2.99 8.16,5.3 13.28,6.96 5.12,1.65 10.67,2.49 16.64,2.49 6.61,0 12.78,-1.24 18.48,-3.68 5.7,-2.46 10.11,-5.92 13.2,-10.41 l -12.16,-9.27" />
      <path id="path496" style="fill:#fff;fill-opacity:1;fill-rule:nonzero;stroke:none"
        d="m 1521.25,6644.64 c 0,-2.67 -0.9,-4.95 -2.71,-6.87 -1.8,-1.93 -4.01,-2.89 -6.66,-2.89 -2.54,0 -4.74,0.8 -6.58,2.41 -1.86,1.6 -2.77,3.83 -2.77,6.71 0,2.89 0.97,5.26 2.93,7.12 1.96,1.87 4.2,2.81 6.74,2.81 2.54,0 4.68,-0.86 6.43,-2.56 1.74,-1.71 2.62,-3.96 2.62,-6.73 z m -19.69,-103.52 h -14.72 l 13.28,75.84 h 14.89 l -13.45,-75.84" />
      <path id="path498" style="fill:#fff;fill-opacity:1;fill-rule:nonzero;stroke:none"
        d="m 1539.97,6541.12 h -14.89 l 21.28,120.96 h 15.04 l -21.43,-120.96" />
      <path id="path500" style="fill:#fff;fill-opacity:1;fill-rule:nonzero;stroke:none"
        d="m 1597.89,6644.64 c 0,-2.67 -0.9,-4.95 -2.71,-6.87 -1.8,-1.93 -4.01,-2.89 -6.66,-2.89 -2.54,0 -4.73,0.8 -6.58,2.41 -1.86,1.6 -2.77,3.83 -2.77,6.71 0,2.89 0.97,5.26 2.93,7.12 1.96,1.87 4.2,2.81 6.74,2.81 2.54,0 4.68,-0.86 6.43,-2.56 1.74,-1.71 2.62,-3.96 2.62,-6.73 z m -19.69,-103.52 h -14.72 l 13.28,75.84 h 14.89 l -13.45,-75.84" />
      <path id="path502" style="fill:#fff;fill-opacity:1;fill-rule:nonzero;stroke:none"
        d="m 1664.12,6597.61 c -1.28,2.55 -3.44,4.71 -6.49,6.47 -3.03,1.76 -6.42,2.64 -10.15,2.64 -4.38,0 -8.4,-0.88 -12.08,-2.64 -3.69,-1.76 -6.86,-4.16 -9.52,-7.19 -2.67,-3.04 -4.75,-6.57 -6.25,-10.57 -1.49,-4 -2.23,-8.23 -2.23,-12.71 0,-3.1 0.45,-5.98 1.36,-8.65 0.9,-2.67 2.26,-4.99 4.08,-6.95 1.8,-1.98 4.08,-3.56 6.79,-4.73 2.73,-1.17 5.9,-1.76 9.53,-1.76 4.8,0 8.84,0.85 12.15,2.56 3.32,1.71 6.2,3.9 8.65,6.56 l 8.95,-8.32 c -4.05,-4.05 -8.55,-7.28 -13.51,-9.67 -4.96,-2.41 -10.7,-3.61 -17.2,-3.61 -5.44,0 -10.38,0.8 -14.81,2.41 -4.42,1.6 -8.18,3.84 -11.27,6.71 -3.1,2.88 -5.5,6.32 -7.2,10.33 -1.71,3.99 -2.56,8.44 -2.56,13.36 0,6.29 1.09,12.28 3.28,17.99 2.18,5.71 5.27,10.73 9.28,15.04 3.99,4.32 8.82,7.77 14.48,10.32 5.65,2.57 11.94,3.84 18.88,3.84 2.77,0 5.52,-0.26 8.24,-0.8 2.71,-0.54 5.27,-1.31 7.68,-2.31 2.4,-1.02 4.59,-2.32 6.56,-3.93 1.97,-1.6 3.59,-3.51 4.88,-5.76 l -11.52,-8.63" />
      <path id="path504" style="fill:#fff;fill-opacity:1;fill-rule:nonzero;stroke:none"
        d="m 1744.44,6584.8 c 0,3.1 -0.51,5.97 -1.52,8.65 -1.02,2.66 -2.46,4.98 -4.32,6.95 -1.87,1.97 -4.16,3.53 -6.89,4.64 -2.71,1.12 -5.73,1.68 -9.03,1.68 -4.37,0 -8.38,-0.9 -12,-2.72 -3.63,-1.81 -6.75,-4.23 -9.37,-7.28 -2.6,-3.04 -4.63,-6.56 -6.07,-10.56 -1.44,-4 -2.16,-8.24 -2.16,-12.71 0,-6.41 1.92,-11.66 5.75,-15.76 3.85,-4.12 9.18,-6.17 16.01,-6.17 4.37,0 8.37,0.88 12,2.64 3.62,1.77 6.74,4.16 9.36,7.21 2.61,3.04 4.64,6.58 6.08,10.63 1.44,4.05 2.16,8.32 2.16,12.8 z m -30.4,-45.76 c -5.23,0 -10.03,0.8 -14.41,2.41 -4.37,1.6 -8.15,3.86 -11.35,6.79 -3.21,2.93 -5.71,6.43 -7.52,10.48 -1.82,4.05 -2.72,8.53 -2.72,13.44 0,6.3 1.09,12.27 3.27,17.93 2.19,5.64 5.29,10.63 9.29,14.95 4,4.33 8.8,7.73 14.4,10.25 5.6,2.5 11.81,3.75 18.64,3.75 5.22,0 10.03,-0.8 14.4,-2.4 4.37,-1.6 8.16,-3.84 11.36,-6.72 3.19,-2.88 5.67,-6.31 7.44,-10.32 1.76,-3.99 2.64,-8.45 2.64,-13.36 0,-6.4 -1.1,-12.45 -3.28,-18.15 -2.19,-5.72 -5.29,-10.73 -9.28,-15.04 -4,-4.33 -8.78,-7.74 -14.33,-10.25 -5.54,-2.5 -11.72,-3.76 -18.55,-3.76" />
      <path id="path506" style="fill:#fff;fill-opacity:1;fill-rule:nonzero;stroke:none"
        d="m 1797.39,6616.96 c -0.22,-1.49 -0.45,-3.49 -0.71,-5.99 -0.28,-2.51 -0.57,-4.62 -0.89,-6.33 h 0.32 c 2.77,4.38 6.32,7.87 10.64,10.49 4.32,2.6 9.2,3.91 14.64,3.91 8.32,0 14.64,-2.22 18.96,-6.64 4.32,-4.42 6.48,-10 6.48,-16.72 0,-2.66 -0.21,-5.22 -0.64,-7.67 l -8.32,-46.89 h -14.88 l 7.36,41.93 c 0.64,2.88 0.96,5.7 0.96,8.47 0,4.38 -1.07,7.95 -3.2,10.73 -2.14,2.77 -5.98,4.16 -11.52,4.16 -5.97,0 -11.14,-2.28 -15.52,-6.81 -4.37,-4.53 -7.26,-10.58 -8.64,-18.15 l -7.04,-40.33 h -14.88 l 10.4,59.36 c 0.42,2.03 0.88,4.65 1.36,7.84 0.48,3.2 0.82,6.09 1.04,8.64 h 14.08" />
      <path id="path508" style="fill:#fff;fill-opacity:1;fill-rule:nonzero;stroke:none"
        d="m 1931.31,6561.45 h 0.48 l 54.89,92.96 h 17.12 l -68.97,-113.29 h -14.87 l -18.09,113.29 h 16.64 l 12.8,-92.96" />
      <path id="path510" style="fill:#fff;fill-opacity:1;fill-rule:nonzero;stroke:none"
        d="m 2037.39,6577.61 c -4.16,0 -8.48,-0.2 -12.96,-0.57 -4.47,-0.37 -8.55,-1.11 -12.24,-2.24 -3.68,-1.12 -6.7,-2.75 -9.04,-4.88 -2.34,-2.13 -3.52,-4.9 -3.52,-8.32 0,-2.13 0.41,-3.87 1.21,-5.19 0.8,-1.34 1.86,-2.43 3.19,-3.28 1.34,-0.86 2.83,-1.45 4.48,-1.76 1.65,-0.33 3.33,-0.49 5.04,-0.49 3.31,0 6.41,0.57 9.29,1.68 2.87,1.12 5.38,2.64 7.52,4.56 2.13,1.92 3.91,4.16 5.35,6.73 1.44,2.56 2.43,5.27 2.97,8.15 l 1.11,5.61 z m 4,10.88 c 0.22,1.48 0.37,2.66 0.48,3.51 0.11,0.85 0.17,1.65 0.17,2.41 0,4.48 -1.39,7.7 -4.16,9.67 -2.79,1.97 -6.72,2.96 -11.85,2.96 -4.05,0 -8.1,-0.8 -12.16,-2.4 -4.05,-1.59 -7.57,-3.57 -10.55,-5.92 l -6.09,9.92 c 4.06,3.21 8.8,5.74 14.24,7.6 5.44,1.87 10.99,2.8 16.64,2.8 3.62,0 7.12,-0.4 10.48,-1.2 3.36,-0.8 6.35,-2.08 8.96,-3.84 2.61,-1.75 4.72,-4.08 6.32,-6.96 1.6,-2.88 2.41,-6.34 2.41,-10.4 0,-0.96 -0.06,-2.21 -0.17,-3.76 -0.11,-1.54 -0.26,-2.85 -0.48,-3.92 l -5.59,-30.72 c -0.54,-2.99 -0.96,-6.05 -1.28,-9.2 -0.33,-3.14 -0.48,-5.79 -0.48,-7.92 h -13.61 c 0,1.61 0.08,3.31 0.25,5.12 0.15,1.82 0.39,3.62 0.71,5.44 h -0.32 c -3.62,-4.27 -7.57,-7.35 -11.84,-9.28 -4.26,-1.92 -9.27,-2.88 -15.04,-2.88 -2.55,0 -5.22,0.32 -7.99,0.96 -2.78,0.64 -5.32,1.74 -7.6,3.28 -2.3,1.55 -4.19,3.6 -5.69,6.16 -1.49,2.56 -2.23,5.76 -2.23,9.6 0,6.19 1.7,11.18 5.12,14.96 3.4,3.79 7.81,6.72 13.19,8.8 5.39,2.08 11.44,3.47 18.16,4.16 6.72,0.7 13.39,1.05 20,1.05" />
      <path id="path512" style="fill:#fff;fill-opacity:1;fill-rule:nonzero;stroke:none"
        d="m 2084.43,6541.12 h -14.88 l 21.28,120.96 h 15.04 l -21.44,-120.96" />
      <path id="path514" style="fill:#fff;fill-opacity:1;fill-rule:nonzero;stroke:none"
        d="m 2122.84,6541.12 h -14.88 l 21.27,120.96 h 15.04 l -21.43,-120.96" />
      <path id="path516" style="fill:#fff;fill-opacity:1;fill-rule:nonzero;stroke:none"
        d="m 2208.11,6585.44 c 0.11,0.75 0.19,1.55 0.25,2.4 0.04,0.85 0.07,1.65 0.07,2.4 0,4.91 -1.6,8.99 -4.79,12.24 -3.2,3.25 -7.84,4.88 -13.93,4.88 -3.62,0 -6.93,-0.64 -9.92,-1.92 -2.99,-1.28 -5.62,-2.93 -7.92,-4.96 -2.29,-2.02 -4.21,-4.37 -5.75,-7.03 -1.55,-2.68 -2.65,-5.34 -3.28,-8.01 z m -46.87,-10.88 c -0.11,-0.54 -0.17,-0.99 -0.17,-1.36 0,-0.37 0,-0.77 0,-1.2 0,-2.98 0.57,-5.73 1.68,-8.24 1.12,-2.5 2.67,-4.69 4.65,-6.55 1.97,-1.88 4.31,-3.31 7.04,-4.33 2.71,-1.01 5.62,-1.51 8.71,-1.51 5.45,0 10.11,1.08 14,3.27 3.9,2.19 7.18,4.94 9.85,8.24 l 8.8,-8.32 c -4.49,-5.11 -9.6,-8.98 -15.36,-11.6 -5.77,-2.61 -12.01,-3.92 -18.73,-3.92 -5.01,0 -9.67,0.75 -14,2.24 -4.32,1.49 -8.05,3.68 -11.19,6.56 -3.15,2.88 -5.61,6.4 -7.36,10.56 -1.76,4.16 -2.64,8.9 -2.64,14.25 0,6.29 1.11,12.26 3.36,17.92 2.24,5.64 5.33,10.58 9.28,14.79 3.94,4.22 8.64,7.55 14.08,10 5.44,2.45 11.3,3.68 17.6,3.68 9.7,0 17.38,-2.63 23.03,-7.92 5.66,-5.28 8.49,-12.66 8.49,-22.16 0,-1.49 -0.14,-3.65 -0.4,-6.48 -0.27,-2.82 -0.67,-5.47 -1.2,-7.92 h -59.52" />
      <path id="path518" style="fill:#fff;fill-opacity:1;fill-rule:nonzero;stroke:none"
        d="m 2262.03,6557.29 h 0.32 l 33.6,59.67 h 16 l -55.52,-93.76 c -1.92,-3.2 -3.79,-6.05 -5.59,-8.56 -1.82,-2.5 -3.79,-4.64 -5.93,-6.4 -2.13,-1.76 -4.47,-3.11 -7.03,-4.08 -2.57,-0.96 -5.45,-1.43 -8.65,-1.43 -3.31,0 -6.45,0.37 -9.44,1.12 l 2.08,13.11 c 2.34,-0.85 4.7,-1.28 7.04,-1.28 3.41,0 6.24,1.1 8.48,3.28 2.24,2.19 4.59,5.31 7.04,9.36 l 7.52,12.8 -16.64,75.84 h 15.84 l 10.88,-59.67" />
    </g>
  </g>
</svg>