<?xml version="1.0" encoding="UTF-8" standalone="no"?>
<svg xmlns="http://www.w3.org/2000/svg" version="1.1" viewBox="0 0 300 128">
    <g transform="matrix(0.1282,0,0,-0.1263,-5.3846,638)">
        <path fill="#fff" d="m 312.223,4105.2 h 16.949 c 2.402,0 5,0.18 7.801,0.53 2.8,0.34 5.371,1.07 7.726,2.17 2.348,1.1 4.297,2.7 5.848,4.8 1.551,2.1 2.324,4.9 2.324,8.4 0,5.59 -1.898,9.5 -5.695,11.7 -3.805,2.2 -9.555,3.3 -17.254,3.3 h -17.699 z m 0,47.1 h 16.8 c 6.301,0 11.098,1.25 14.403,3.75 3.293,2.5 4.945,6.04 4.945,10.65 0,4.8 -1.699,8.2 -5.098,10.2 -3.406,2 -8.703,3 -15.898,3 h -15.152 z m -18.903,43.2 h 41.403 c 4,0 7.949,-0.48 11.851,-1.42 3.895,-0.96 7.371,-2.5 10.422,-4.65 3.051,-2.16 5.524,-4.93 7.426,-8.33 1.898,-3.4 2.851,-7.5 2.851,-12.3 0,-6 -1.703,-10.95 -5.097,-14.85 -3.406,-3.9 -7.856,-6.7 -13.352,-8.4 v -0.3 c 6.696,-0.9 12.199,-3.51 16.5,-7.8 4.297,-4.3 6.449,-10.05 6.449,-17.25 0,-5.8 -1.152,-10.67 -3.453,-14.63 -2.297,-3.94 -5.32,-7.12 -9.07,-9.52 -3.75,-2.4 -8.055,-4.12 -12.902,-5.18 -4.852,-1.04 -9.774,-1.57 -14.774,-1.57 H 293.32 v 106.2"/>
        <path fill="#fff" d="m 455.168,4089.3 h -17.102 v 11.54 h -0.296 c -1.602,-3.59 -4.375,-6.76 -8.325,-9.52 -3.957,-2.74 -8.629,-4.12 -14.031,-4.12 -4.695,0 -8.723,0.82 -12.074,2.47 -3.348,1.65 -6.098,3.83 -8.246,6.53 -2.153,2.7 -3.727,5.8 -4.727,9.3 -1,3.5 -1.5,7.1 -1.5,10.8 v 45 h 18 v -39.9 c 0,-2.1 0.153,-4.31 0.453,-6.6 0.297,-2.3 0.95,-4.38 1.95,-6.22 0.996,-1.86 2.371,-3.38 4.125,-4.58 1.75,-1.2 4.074,-1.8 6.972,-1.8 2.797,0 5.274,0.58 7.426,1.72 2.148,1.15 3.902,2.63 5.25,4.42 1.348,1.81 2.371,3.88 3.074,6.24 0.699,2.34 1.051,4.72 1.051,7.12 v 39.6 h 18 v -72"/>
        <path fill="#fff" d="m 490.715,4125.6 c 0,-2.8 0.43,-5.6 1.277,-8.4 0.852,-2.8 2.121,-5.3 3.828,-7.5 1.7,-2.2 3.848,-4 6.446,-5.4 2.597,-1.4 5.656,-2.1 9.152,-2.1 3.301,0 6.25,0.68 8.848,2.02 2.597,1.35 4.824,3.13 6.679,5.33 1.844,2.19 3.243,4.67 4.2,7.43 0.945,2.74 1.425,5.52 1.425,8.32 0,2.8 -0.48,5.6 -1.425,8.4 -0.957,2.8 -2.356,5.3 -4.2,7.5 -1.855,2.19 -4.082,4 -6.679,5.4 -2.598,1.4 -5.547,2.1 -8.848,2.1 -3.496,0 -6.555,-0.68 -9.152,-2.03 -2.598,-1.34 -4.746,-3.12 -6.446,-5.32 -1.707,-2.2 -2.976,-4.68 -3.828,-7.43 -0.847,-2.74 -1.277,-5.53 -1.277,-8.32 z m 59.258,-36.3 h -17.102 v 10.8 h -0.301 c -2.5,-4.2 -5.976,-7.4 -10.429,-9.6 -4.446,-2.19 -9.219,-3.3 -14.328,-3.3 -5.497,0 -10.418,1.03 -14.774,3.08 -4.348,2.04 -8.047,4.79 -11.094,8.24 -3.058,3.46 -5.402,7.5 -7.05,12.16 -1.653,4.65 -2.473,9.62 -2.473,14.92 0,5.3 0.84,10.24 2.539,14.85 1.711,4.59 4.102,8.6 7.207,12 3.098,3.39 6.797,6.07 11.105,8.02 4.297,1.96 8.993,2.93 14.09,2.93 3.301,0 6.25,-0.38 8.86,-1.13 2.597,-0.74 4.871,-1.67 6.816,-2.77 1.953,-1.11 3.633,-2.3 5.027,-3.6 1.399,-1.31 2.551,-2.56 3.45,-3.75 h 0.449 v 50.55 h 18.008 v -113.4"/>
        <path fill="#fff" d="m 585.813,4125.6 c 0,-2.8 0.429,-5.6 1.277,-8.4 0.851,-2.8 2.121,-5.3 3.828,-7.5 1.699,-2.2 3.848,-4 6.445,-5.4 2.598,-1.4 5.657,-2.1 9.153,-2.1 3.3,0 6.25,0.68 8.847,2.02 2.598,1.35 4.825,3.13 6.68,5.33 1.844,2.19 3.242,4.67 4.199,7.43 0.946,2.74 1.426,5.52 1.426,8.32 0,2.8 -0.48,5.6 -1.426,8.4 -0.957,2.8 -2.355,5.3 -4.199,7.5 -1.855,2.19 -4.082,4 -6.68,5.4 -2.597,1.4 -5.547,2.1 -8.847,2.1 -3.496,0 -6.555,-0.68 -9.153,-2.03 -2.597,-1.34 -4.746,-3.12 -6.445,-5.32 -1.707,-2.2 -2.977,-4.68 -3.828,-7.43 -0.848,-2.74 -1.277,-5.53 -1.277,-8.32 z m 59.257,-36.3 h -17.101 v 10.8 h -0.301 c -2.5,-4.2 -5.977,-7.4 -10.43,-9.6 -4.445,-2.19 -9.218,-3.3 -14.328,-3.3 -5.496,0 -10.418,1.03 -14.773,3.08 -4.348,2.04 -8.047,4.79 -11.094,8.24 -3.059,3.46 -5.402,7.5 -7.051,12.16 -1.652,4.65 -2.48,9.62 -2.48,14.92 0,5.3 0.847,10.24 2.558,14.85 1.7,4.59 4.09,8.6 7.196,12 3.097,3.39 6.797,6.07 11.105,8.02 4.297,1.96 8.992,2.93 14.09,2.93 3.301,0 6.25,-0.38 8.859,-1.13 2.598,-0.74 4.871,-1.67 6.817,-2.77 1.953,-1.11 3.633,-2.3 5.027,-3.6 1.399,-1.31 2.551,-2.56 3.449,-3.75 h 0.45 v 50.55 h 18.007 v -113.4"/>
        <path fill="#fff" d="m 656.164,4161.3 h 19.949 l 20.098,-52.35 h 0.305 l 17.851,52.35 h 18.75 l -34.054,-87.45 c -1.297,-3.3 -2.704,-6.23 -4.2,-8.78 -1.504,-2.55 -3.3,-4.69 -5.398,-6.44 -2.102,-1.75 -4.582,-3.08 -7.422,-3.98 -2.852,-0.9 -6.281,-1.35 -10.285,-1.35 -1.492,0 -3.016,0.07 -4.57,0.22 -1.551,0.16 -3.125,0.43 -4.727,0.83 l 1.504,15.6 c 1.203,-0.39 2.375,-0.68 3.527,-0.82 1.141,-0.16 2.215,-0.23 3.223,-0.23 1.894,0 3.496,0.23 4.793,0.68 1.301,0.44 2.402,1.15 3.301,2.09 0.91,0.95 1.699,2.13 2.402,3.53 0.703,1.4 1.445,3.05 2.258,4.95 l 3.594,9.15 -30.899,72"/>
        <path fill="#fff" d="m 832.707,4123.65 c 0,-3.9 -0.422,-8 -1.269,-12.3 -0.852,-4.3 -2.434,-8.3 -4.727,-12 -2.305,-3.7 -5.547,-6.75 -9.746,-9.15 -4.211,-2.4 -9.602,-3.6 -16.203,-3.6 -8.602,0 -15.477,2.16 -20.625,6.45 -5.157,4.3 -8.68,9.95 -10.574,16.95 l 17.402,4.95 c 0.898,-3.5 2.547,-6.27 4.941,-8.32 2.403,-2.05 5.254,-3.08 8.555,-3.08 2.695,0 4.922,0.5 6.668,1.5 1.758,1 3.105,2.43 4.055,4.27 0.945,1.86 1.629,4.05 2.031,6.6 0.39,2.55 0.594,5.33 0.594,8.33 v 71.25 h 18.898 v -71.85"/>
        <path fill="#fff" d="m 897.805,4122.15 h -4.043 c -2.903,0 -5.957,-0.12 -9.153,-0.38 -3.203,-0.24 -6.152,-0.8 -8.847,-1.65 -2.703,-0.85 -4.949,-2.05 -6.758,-3.59 -1.797,-1.55 -2.695,-3.68 -2.695,-6.38 0,-1.7 0.371,-3.12 1.125,-4.28 0.75,-1.15 1.726,-2.08 2.929,-2.77 1.192,-0.7 2.547,-1.2 4.043,-1.5 1.504,-0.3 3.008,-0.45 4.5,-0.45 6.203,0 10.899,1.65 14.102,4.95 3.203,3.3 4.797,7.8 4.797,13.49 z m 0.3,-23.7 h -0.449 c -1.797,-3.2 -4.695,-5.83 -8.699,-7.88 -3.996,-2.04 -8.547,-3.07 -13.652,-3.07 -2.903,0 -5.918,0.38 -9.075,1.13 -3.144,0.74 -6.042,1.99 -8.699,3.75 -2.648,1.75 -4.843,4.04 -6.601,6.89 -1.75,2.85 -2.617,6.38 -2.617,10.58 0,5.4 1.523,9.7 4.57,12.9 3.047,3.2 6.972,5.64 11.777,7.35 4.793,1.7 10.125,2.82 15.977,3.37 5.847,0.55 11.57,0.83 17.168,0.83 v 1.8 c 0,4.5 -1.621,7.82 -4.875,9.98 -3.25,2.15 -7.117,3.22 -11.621,3.22 -3.797,0 -7.45,-0.8 -10.946,-2.4 -3.508,-1.6 -6.406,-3.56 -8.703,-5.85 l -9.305,10.95 c 4.102,3.8 8.829,6.65 14.18,8.55 5.352,1.9 10.77,2.85 16.27,2.85 6.406,0 11.679,-0.9 15.828,-2.7 4.152,-1.8 7.422,-4.15 9.824,-7.05 2.402,-2.9 4.074,-6.15 5.031,-9.75 0.946,-3.6 1.426,-7.2 1.426,-10.8 v -43.8 h -16.809 v 9.15"/>
        <path fill="#fff" d="m 1021.86,4163.4 c 4.69,0 8.72,-0.83 12.08,-2.48 3.35,-1.65 6.09,-3.83 8.24,-6.52 2.16,-2.7 3.73,-5.8 4.73,-9.3 1,-3.5 1.5,-7.11 1.5,-10.8 v -45 h -18 v 39.9 c 0,2.1 -0.16,4.3 -0.45,6.6 -0.3,2.3 -0.96,4.37 -1.95,6.23 -1.01,1.84 -2.37,3.37 -4.12,4.57 -1.76,1.2 -4.08,1.8 -6.98,1.8 -2.8,0 -5.2,-0.6 -7.2,-1.8 -2,-1.2 -3.65,-2.75 -4.95,-4.65 -1.3,-1.91 -2.25,-4.03 -2.85,-6.38 -0.6,-2.34 -0.9,-4.67 -0.9,-6.97 v -39.3 h -18.002 v 43.5 c 0,4.5 -1.074,8.22 -3.223,11.17 -2.156,2.95 -5.527,4.43 -10.125,4.43 -2.707,0 -5.051,-0.57 -7.051,-1.73 -2.004,-1.15 -3.625,-2.62 -4.875,-4.42 -1.25,-1.8 -2.207,-3.88 -2.851,-6.23 -0.653,-2.34 -0.977,-4.72 -0.977,-7.12 v -39.6 H 935.91 v 72 h 17.098 v -11.55 h 0.305 c 0.8,1.8 1.875,3.5 3.222,5.1 1.348,1.6 2.949,3.05 4.793,4.35 1.856,1.29 3.977,2.33 6.379,3.07 2.402,0.75 5.047,1.13 7.949,1.13 5.606,0 10.254,-1.26 13.953,-3.75 3.704,-2.5 6.543,-5.8 8.547,-9.9 2.404,4.4 5.604,7.77 9.594,10.13 4.01,2.34 8.71,3.52 14.11,3.52"/>
        <path fill="#fff" d="m 1120.11,4132.5 c 0,2.3 -0.33,4.5 -0.98,6.6 -0.65,2.1 -1.68,3.95 -3.07,5.55 -1.41,1.6 -3.18,2.87 -5.33,3.82 -2.15,0.95 -4.67,1.43 -7.57,1.43 -5.41,0 -9.99,-1.62 -13.74,-4.88 -3.75,-3.25 -5.82,-7.42 -6.22,-12.52 z m 18,-8.1 c 0,-0.8 0,-1.6 0,-2.4 0,-0.8 -0.05,-1.6 -0.16,-2.41 h -54.75 c 0.2,-2.59 0.88,-4.97 2.03,-7.11 1.15,-2.15 2.67,-4.01 4.58,-5.55 1.89,-1.55 4.05,-2.78 6.44,-3.68 2.4,-0.9 4.9,-1.35 7.5,-1.35 4.5,0 8.3,0.82 11.41,2.47 3.09,1.65 5.64,3.93 7.64,6.83 l 12.01,-9.6 c -7.1,-9.6 -17.41,-14.4 -30.9,-14.4 -5.61,0 -10.75,0.87 -15.45,2.63 -4.71,1.75 -8.78,4.22 -12.23,7.42 -3.45,3.19 -6.15,7.12 -8.1,11.78 -1.95,4.65 -2.92,9.92 -2.92,15.82 0,5.8 0.97,11.07 2.92,15.83 1.95,4.74 4.62,8.8 8.02,12.15 3.4,3.35 7.43,5.94 12.08,7.79 4.65,1.86 9.67,2.78 15.07,2.78 5,0 9.63,-0.83 13.88,-2.48 4.25,-1.65 7.93,-4.1 11.02,-7.34 3.1,-3.25 5.53,-7.31 7.28,-12.16 1.75,-4.84 2.63,-10.52 2.63,-17.02"/>
        <path fill="#fff" d="m 1194.95,4142.09 c -1.6,2.11 -3.81,3.93 -6.6,5.48 -2.8,1.56 -5.85,2.33 -9.15,2.33 -2.9,0 -5.56,-0.6 -7.95,-1.8 -2.4,-1.2 -3.6,-3.2 -3.6,-6.01 0,-2.79 1.33,-4.77 3.97,-5.91 2.65,-1.16 6.53,-2.33 11.63,-3.53 2.7,-0.6 5.42,-1.4 8.18,-2.4 2.74,-1 5.24,-2.33 7.5,-3.98 2.24,-1.65 4.07,-3.7 5.47,-6.15 1.4,-2.45 2.1,-5.42 2.1,-8.92 0,-4.4 -0.83,-8.13 -2.48,-11.18 -1.65,-3.04 -3.84,-5.52 -6.6,-7.42 -2.75,-1.9 -5.94,-3.28 -9.6,-4.13 -3.65,-0.85 -7.42,-1.27 -11.32,-1.27 -5.6,0 -11.05,1.03 -16.35,3.08 -5.31,2.04 -9.7,4.97 -13.21,8.77 l 11.86,11.1 c 2,-2.61 4.6,-4.75 7.8,-6.45 3.2,-1.7 6.75,-2.55 10.65,-2.55 1.3,0 2.62,0.15 3.97,0.45 1.35,0.3 2.6,0.77 3.75,1.42 1.15,0.66 2.08,1.53 2.78,2.63 0.7,1.1 1.05,2.45 1.05,4.05 0,3 -1.38,5.15 -4.13,6.45 -2.75,1.3 -6.88,2.6 -12.37,3.9 -2.7,0.6 -5.33,1.37 -7.88,2.33 -2.54,0.95 -4.82,2.2 -6.82,3.75 -2,1.54 -3.6,3.46 -4.81,5.77 -1.19,2.29 -1.79,5.15 -1.79,8.55 0,4 0.83,7.45 2.48,10.35 1.65,2.9 3.82,5.27 6.52,7.12 2.7,1.85 5.74,3.23 9.15,4.13 3.4,0.9 6.9,1.35 10.5,1.35 5.19,0 10.27,-0.9 15.22,-2.7 4.96,-1.8 8.88,-4.55 11.78,-8.25 l -11.7,-10.36"/>
        <path fill="#fff" d="m 1225.4,4110 h 17.4 l -12.75,-39.6 h -15.15 l 10.5,39.6"/>
        <path fill="#fff" d="m 1314.2,4128.3 h 40.05 l -9,50.4 z m -23.85,-39 h -17.24 l 68.84,106.2 h 13.35 l 21.61,-106.2 h -15.45 l -5.11,26.1 h -49.8 l -16.2,-26.1"/>
        <path fill="#fff" d="m 1400.53,4152.3 c 0.45,3 0.77,5.7 0.97,8.1 h 13.2 c -0.1,-0.7 -0.2,-1.58 -0.3,-2.62 -0.1,-1.06 -0.23,-2.16 -0.38,-3.3 -0.14,-1.15 -0.3,-2.26 -0.44,-3.3 -0.15,-1.06 -0.28,-1.99 -0.38,-2.78 h 0.3 c 2.5,4.2 5.62,7.57 9.37,10.12 3.75,2.56 8.03,3.83 12.83,3.83 2.2,0 4.05,-0.21 5.55,-0.6 l -2.4,-13.05 c -2,0.49 -4.05,0.75 -6.15,0.75 -3.4,0 -6.4,-0.63 -9,-1.88 -2.61,-1.25 -4.85,-2.92 -6.75,-5.02 -1.9,-2.1 -3.42,-4.53 -4.58,-7.27 -1.15,-2.76 -1.97,-5.63 -2.47,-8.63 l -6.6,-37.35 h -13.8 l 9.75,55.65 c 0.4,1.9 0.83,4.35 1.28,7.35"/>
        <path fill="#fff" d="m 1482.34,4149 h -17.54 l -6.75,-37.35 c -0.3,-1.7 -0.45,-3.2 -0.45,-4.5 0,-3 0.77,-5.03 2.32,-6.07 1.56,-1.06 3.63,-1.58 6.23,-1.58 1.4,0 2.8,0.15 4.2,0.45 1.4,0.3 2.55,0.7 3.45,1.2 l -1.05,-11.1 c -1.4,-0.6 -3.13,-1.07 -5.18,-1.42 -2.05,-0.35 -4.07,-0.53 -6.07,-0.53 -5.5,0 -9.88,1.22 -13.13,3.67 -3.25,2.45 -4.87,6.33 -4.87,11.63 0,1.1 0.05,2.25 0.15,3.45 0.1,1.2 0.25,2.4 0.45,3.6 l 6.9,38.55 h -13.5 l 2.1,11.4 h 13.35 l 3.45,20.4 h 13.8 l -3.6,-20.4 h 17.84 l -2.1,-11.4"/>
        <path fill="#fff" d="m 1520.29,4186.35 c 0,-2.5 -0.85,-4.65 -2.53,-6.45 -1.68,-1.8 -3.76,-2.7 -6.25,-2.7 -2.38,0 -4.43,0.75 -6.17,2.25 -1.73,1.5 -2.59,3.6 -2.59,6.3 0,2.7 0.91,4.92 2.74,6.68 1.84,1.74 3.94,2.62 6.33,2.62 2.37,0 4.38,-0.81 6.02,-2.4 1.63,-1.6 2.45,-3.7 2.45,-6.3 z m -18.44,-97.05 h -13.81 l 12.45,71.1 h 13.95 l -12.59,-71.1"/>
        <path fill="#fff" d="m 1574.59,4143.3 c -1.41,2.3 -3.3,4.2 -5.7,5.7 -2.4,1.5 -5.5,2.25 -9.3,2.25 -1.7,0 -3.4,-0.18 -5.1,-0.52 -1.71,-0.35 -3.28,-0.9 -4.72,-1.65 -1.46,-0.75 -2.63,-1.78 -3.53,-3.08 -0.9,-1.3 -1.35,-2.85 -1.35,-4.65 0,-3.01 1.1,-5.15 3.3,-6.45 2.2,-1.3 5.35,-2.5 9.45,-3.6 6.79,-2 12.02,-4.58 15.67,-7.72 3.65,-3.16 5.48,-7.63 5.48,-13.43 0,-3.9 -0.85,-7.3 -2.55,-10.2 -1.7,-2.9 -3.92,-5.31 -6.68,-7.2 -2.74,-1.91 -5.87,-3.33 -9.37,-4.28 -3.5,-0.95 -7.05,-1.42 -10.65,-1.42 -6.8,0 -12.67,1.26 -17.62,3.75 -4.96,2.5 -8.78,5.89 -11.48,10.2 l 11.25,7.34 c 1.6,-2.9 3.98,-5.24 7.13,-7.04 3.14,-1.8 6.72,-2.7 10.72,-2.7 4.2,0 7.85,0.88 10.95,2.63 3.1,1.74 4.65,4.37 4.65,7.87 0,3.1 -1.22,5.45 -3.67,7.05 -2.46,1.6 -6.13,3.2 -11.03,4.8 -2.8,0.9 -5.35,1.85 -7.65,2.85 -2.3,1 -4.3,2.25 -6,3.75 -1.7,1.5 -3.03,3.25 -3.98,5.25 -0.94,2 -1.42,4.45 -1.42,7.35 0,3.5 0.8,6.62 2.4,9.38 1.6,2.74 3.75,5.06 6.45,6.97 2.7,1.89 5.83,3.35 9.37,4.34 3.56,1.01 7.23,1.51 11.03,1.51 5.49,0 10.45,-1.05 14.85,-3.15 4.4,-2.11 7.69,-5.05 9.9,-8.85 l -10.8,-7.05"/>
        <path fill="#fff" d="m 1636.39,4149 h -17.55 l -6.75,-37.35 c -0.3,-1.7 -0.45,-3.2 -0.45,-4.5 0,-3 0.77,-5.03 2.33,-6.07 1.55,-1.06 3.62,-1.58 6.23,-1.58 1.39,0 2.79,0.15 4.2,0.45 1.39,0.3 2.54,0.7 3.44,1.2 l -1.05,-11.1 c -1.4,-0.6 -3.13,-1.07 -5.18,-1.42 -2.05,-0.35 -4.07,-0.53 -6.07,-0.53 -5.5,0 -9.87,1.22 -13.13,3.67 -3.25,2.45 -4.87,6.33 -4.87,11.63 0,1.1 0.05,2.25 0.16,3.45 0.09,1.2 0.24,2.4 0.45,3.6 l 6.89,38.55 h -13.5 l 2.1,11.4 h 13.35 l 3.45,20.4 h 13.8 l -3.59,-20.4 h 17.84 l -2.1,-11.4"/>
        <path fill="#fff" d="m 1674.34,4186.35 c 0,-2.5 -0.85,-4.65 -2.53,-6.45 -1.69,-1.8 -3.77,-2.7 -6.25,-2.7 -2.39,0 -4.44,0.75 -6.17,2.25 -1.73,1.5 -2.6,3.6 -2.6,6.3 0,2.7 0.92,4.92 2.74,6.68 1.84,1.74 3.95,2.62 6.33,2.62 2.37,0 4.39,-0.81 6.03,-2.4 1.63,-1.6 2.45,-3.7 2.45,-6.3 z m -18.45,-97.05 h -13.81 l 12.45,71.1 h 13.96 l -12.6,-71.1"/>
        <path fill="#fff" d="m 1739.43,4142.25 c -1.2,2.4 -3.22,4.42 -6.07,6.08 -2.85,1.65 -6.02,2.47 -9.53,2.47 -4.1,0 -7.87,-0.82 -11.32,-2.47 -3.46,-1.66 -6.42,-3.9 -8.92,-6.75 -2.5,-2.85 -4.46,-6.16 -5.85,-9.91 -1.41,-3.75 -2.1,-7.72 -2.1,-11.92 0,-2.9 0.42,-5.6 1.27,-8.1 0.84,-2.5 2.12,-4.67 3.82,-6.53 1.7,-1.84 3.83,-3.32 6.38,-4.42 2.55,-1.11 5.52,-1.65 8.93,-1.65 4.49,0 8.3,0.8 11.39,2.4 3.1,1.6 5.8,3.65 8.1,6.15 l 8.41,-7.8 c -3.81,-3.8 -8.03,-6.83 -12.68,-9.07 -4.65,-2.26 -10.03,-3.38 -16.12,-3.38 -5.11,0 -9.73,0.75 -13.88,2.24 -4.15,1.51 -7.67,3.61 -10.58,6.31 -2.9,2.7 -5.15,5.92 -6.74,9.67 -1.6,3.75 -2.41,7.93 -2.41,12.53 0,5.9 1.03,11.52 3.08,16.88 2.05,5.35 4.95,10.04 8.7,14.1 3.75,4.04 8.27,7.27 13.58,9.67 5.29,2.4 11.19,3.6 17.69,3.6 2.6,0 5.18,-0.26 7.73,-0.75 2.54,-0.5 4.95,-1.22 7.2,-2.17 2.25,-0.96 4.3,-2.18 6.15,-3.68 1.85,-1.5 3.37,-3.3 4.58,-5.4 l -10.81,-8.1"/>
        <path fill="#fff" d="m 1810.08,4102.2 h 21.75 c 8,0 15.02,1.32 21.07,3.98 6.06,2.64 11.12,6.17 15.23,10.57 4.1,4.4 7.17,9.43 9.22,15.07 2.06,5.66 3.08,11.48 3.08,17.48 0,4.6 -0.75,8.93 -2.26,12.97 -1.49,4.05 -3.76,7.6 -6.82,10.65 -3.05,3.05 -6.94,5.48 -11.7,7.28 -4.75,1.8 -10.37,2.7 -16.88,2.7 h -18.44 z m 1.95,93.3 h 34.35 c 5.99,0 11.94,-0.83 17.85,-2.48 5.9,-1.65 11.2,-4.25 15.9,-7.8 4.7,-3.55 8.49,-8.14 11.39,-13.8 2.9,-5.64 4.36,-12.42 4.36,-20.32 0,-9.3 -1.63,-17.76 -4.87,-25.35 -3.26,-7.6 -7.79,-14.1 -13.59,-19.5 -5.8,-5.41 -12.64,-9.58 -20.54,-12.52 -7.9,-2.95 -16.5,-4.43 -25.8,-4.43 h -37.8 l 18.75,106.2"/>
        <path fill="#fff" d="m 1938.62,4186.35 c 0,-2.5 -0.85,-4.65 -2.53,-6.45 -1.68,-1.8 -3.76,-2.7 -6.25,-2.7 -2.38,0 -4.43,0.75 -6.17,2.25 -1.73,1.5 -2.59,3.6 -2.59,6.3 0,2.7 0.91,4.92 2.74,6.68 1.84,1.74 3.94,2.62 6.33,2.62 2.37,0 4.38,-0.81 6.02,-2.4 1.63,-1.6 2.45,-3.7 2.45,-6.3 z m -18.44,-97.05 h -13.81 l 12.45,71.1 h 13.95 l -12.59,-71.1"/>
        <path fill="#fff" d="m 1955.95,4152.3 c 0.45,3 0.77,5.7 0.97,8.1 h 13.2 c -0.1,-0.7 -0.2,-1.58 -0.3,-2.62 -0.1,-1.06 -0.23,-2.16 -0.38,-3.3 -0.14,-1.15 -0.3,-2.26 -0.44,-3.3 -0.15,-1.06 -0.28,-1.99 -0.38,-2.78 h 0.3 c 2.5,4.2 5.62,7.57 9.37,10.12 3.75,2.56 8.03,3.83 12.83,3.83 2.2,0 4.05,-0.21 5.55,-0.6 l -2.4,-13.05 c -2,0.49 -4.05,0.75 -6.15,0.75 -3.4,0 -6.4,-0.63 -9,-1.88 -2.61,-1.25 -4.85,-2.92 -6.75,-5.02 -1.9,-2.1 -3.42,-4.53 -4.58,-7.27 -1.15,-2.76 -1.97,-5.63 -2.47,-8.63 l -6.6,-37.35 h -13.8 l 9.75,55.65 c 0.4,1.9 0.83,4.35 1.28,7.35"/>
        <path fill="#fff" d="m 2052.76,4130.84 c 0.1,0.71 0.18,1.46 0.23,2.26 0.05,0.8 0.08,1.55 0.08,2.25 0,4.6 -1.5,8.42 -4.5,11.47 -3,3.06 -7.35,4.58 -13.05,4.58 -3.4,0 -6.51,-0.6 -9.3,-1.81 -2.8,-1.19 -5.28,-2.74 -7.43,-4.64 -2.15,-1.9 -3.95,-4.11 -5.4,-6.61 -1.45,-2.5 -2.47,-5 -3.07,-7.5 z m -43.94,-10.19 c -0.1,-0.5 -0.15,-0.93 -0.15,-1.28 0,-0.35 0,-0.72 0,-1.12 0,-2.81 0.52,-5.37 1.58,-7.73 1.04,-2.35 2.5,-4.4 4.34,-6.15 1.86,-1.75 4.05,-3.1 6.6,-4.04 2.55,-0.96 5.28,-1.43 8.18,-1.43 5.09,0 9.47,1.03 13.12,3.08 3.65,2.04 6.73,4.62 9.23,7.72 l 8.25,-7.8 c -4.2,-4.81 -9,-8.43 -14.4,-10.88 -5.4,-2.44 -11.25,-3.67 -17.55,-3.67 -4.7,0 -9.07,0.7 -13.13,2.1 -4.05,1.39 -7.55,3.45 -10.49,6.15 -2.95,2.7 -5.26,6 -6.91,9.9 -1.65,3.9 -2.47,8.35 -2.47,13.35 0,5.9 1.05,11.5 3.15,16.8 2.09,5.3 5,9.92 8.7,13.88 3.7,3.94 8.1,7.07 13.2,9.37 5.1,2.3 10.6,3.45 16.5,3.45 9.1,0 16.29,-2.47 21.6,-7.42 5.3,-4.95 7.94,-11.88 7.94,-20.78 0,-1.4 -0.12,-3.42 -0.37,-6.08 -0.25,-2.65 -0.62,-5.13 -1.12,-7.42 h -55.8"/>
        <path fill="#fff" d="m 2138.12,4142.25 c -1.2,2.4 -3.23,4.42 -6.08,6.08 -2.85,1.65 -6.02,2.47 -9.53,2.47 -4.1,0 -7.87,-0.82 -11.32,-2.47 -3.45,-1.66 -6.42,-3.9 -8.92,-6.75 -2.5,-2.85 -4.46,-6.16 -5.85,-9.91 -1.41,-3.75 -2.1,-7.72 -2.1,-11.92 0,-2.9 0.42,-5.6 1.27,-8.1 0.85,-2.5 2.13,-4.67 3.83,-6.53 1.69,-1.84 3.82,-3.32 6.37,-4.42 2.55,-1.11 5.52,-1.65 8.93,-1.65 4.49,0 8.3,0.8 11.39,2.4 3.1,1.6 5.81,3.65 8.1,6.15 l 8.41,-7.8 c -3.81,-3.8 -8.03,-6.83 -12.68,-9.07 -4.65,-2.26 -10.03,-3.38 -16.12,-3.38 -5.11,0 -9.73,0.75 -13.88,2.24 -4.15,1.51 -7.67,3.61 -10.57,6.31 -2.9,2.7 -5.16,5.92 -6.75,9.67 -1.6,3.75 -2.4,7.93 -2.4,12.53 0,5.9 1.02,11.52 3.07,16.88 2.05,5.35 4.95,10.04 8.7,14.1 3.75,4.04 8.27,7.27 13.58,9.67 5.29,2.4 11.19,3.6 17.69,3.6 2.6,0 5.18,-0.26 7.73,-0.75 2.55,-0.5 4.95,-1.22 7.2,-2.17 2.25,-0.96 4.3,-2.18 6.15,-3.68 1.85,-1.5 3.38,-3.3 4.58,-5.4 l -10.8,-8.1"/>
        <path fill="#fff" d="m 2196.91,4149 h -17.55 l -6.75,-37.35 c -0.3,-1.7 -0.45,-3.2 -0.45,-4.5 0,-3 0.77,-5.03 2.32,-6.07 1.56,-1.06 3.63,-1.58 6.23,-1.58 1.4,0 2.8,0.15 4.2,0.45 1.4,0.3 2.55,0.7 3.45,1.2 l -1.05,-11.1 c -1.4,-0.6 -3.13,-1.07 -5.18,-1.42 -2.05,-0.35 -4.07,-0.53 -6.07,-0.53 -5.5,0 -9.88,1.22 -13.13,3.67 -3.25,2.45 -4.87,6.33 -4.87,11.63 0,1.1 0.05,2.25 0.15,3.45 0.1,1.2 0.25,2.4 0.45,3.6 l 6.9,38.55 h -13.5 l 2.1,11.4 h 13.35 l 3.45,20.4 h 13.8 l -3.6,-20.4 H 2199 l -2.09,-11.4"/>
        <path fill="#fff" d="m 2265,4130.25 c 0,2.9 -0.48,5.59 -1.42,8.09 -0.95,2.5 -2.3,4.68 -4.05,6.54 -1.76,1.84 -3.9,3.3 -6.45,4.34 -2.55,1.06 -5.37,1.58 -8.48,1.58 -4.1,0 -7.85,-0.85 -11.25,-2.55 -3.4,-1.7 -6.33,-3.98 -8.77,-6.83 -2.45,-2.84 -4.35,-6.14 -5.7,-9.89 -1.35,-3.75 -2.02,-7.73 -2.02,-11.94 0,-5.99 1.79,-10.91 5.4,-14.76 3.59,-3.86 8.59,-5.78 15,-5.78 4.09,0 7.84,0.83 11.25,2.48 3.4,1.65 6.32,3.89 8.77,6.75 2.45,2.85 4.35,6.17 5.7,9.97 1.35,3.8 2.02,7.8 2.02,12 z m -28.5,-42.9 c -4.9,0 -9.4,0.75 -13.5,2.24 -4.1,1.51 -7.65,3.64 -10.65,6.38 -2.99,2.76 -5.35,6.03 -7.05,9.83 -1.7,3.79 -2.55,7.99 -2.55,12.6 0,5.9 1.03,11.5 3.08,16.8 2.04,5.3 4.95,9.97 8.7,14.02 3.75,4.06 8.24,7.25 13.5,9.6 5.25,2.36 11.07,3.53 17.47,3.53 4.9,0 9.4,-0.75 13.5,-2.25 4.11,-1.5 7.65,-3.6 10.65,-6.3 3.01,-2.7 5.33,-5.92 6.98,-9.67 1.65,-3.75 2.47,-7.93 2.47,-12.53 0,-6 -1.02,-11.67 -3.07,-17.02 -2.05,-5.36 -4.95,-10.05 -8.7,-14.11 -3.75,-4.05 -8.23,-7.24 -13.42,-9.6 -5.21,-2.34 -11.01,-3.52 -17.41,-3.52"/>
        <path fill="#fff" d="m 2303.33,4152.3 c 0.45,3 0.77,5.7 0.98,8.1 h 13.19 c -0.1,-0.7 -0.19,-1.58 -0.3,-2.62 -0.1,-1.06 -0.23,-2.16 -0.37,-3.3 -0.15,-1.15 -0.31,-2.26 -0.45,-3.3 -0.15,-1.06 -0.28,-1.99 -0.37,-2.78 h 0.29 c 2.5,4.2 5.62,7.57 9.37,10.12 3.75,2.56 8.03,3.83 12.84,3.83 2.19,0 4.04,-0.21 5.54,-0.6 l -2.4,-13.05 c -2,0.49 -4.05,0.75 -6.15,0.75 -3.4,0 -6.4,-0.63 -9,-1.88 -2.6,-1.25 -4.85,-2.92 -6.74,-5.02 -1.91,-2.1 -3.43,-4.53 -4.58,-7.27 -1.16,-2.76 -1.98,-5.63 -2.47,-8.63 l -6.61,-37.35 h -13.79 l 9.74,55.65 c 0.4,1.9 0.83,4.35 1.28,7.35"/>
        <path fill="#fff" d="m 42.2969,4563.97 1.7656,2.98 7.1445,-6.53 7.7305,-7.14 8.3047,-5.35 8.9258,-5.94 8.9258,-4.75 10.121,-5.36 13.0702,-4.75 12.473,-2.98 13.086,-1.81 16.64,-0.58 h 11.891 l 11.316,0.58 13.075,2.4 17.836,3.57 18.414,5.34 13.675,4.76 17.852,6.53 16.641,6.55 15.464,7.73 11.875,6.54 13.661,8.32 13.691,10.11 11.891,9.51 10.699,8.91 11.875,10.72 11.301,10.69 19.004,17.24 13.703,13.09 13.644,13.06 11.899,11.89 14.265,13.67 13.692,12.5 12.496,11.29 13.644,13.67 14.285,13.69 16.641,16.03 15.059,14.27 14.062,13.69 13.113,12.46 13.047,12.5 12.496,11.89 11.891,11.88 14.266,13.69 13.664,12.46 8.91,7.75 13.086,11.29 13.07,10.71 7.938,7.71 10.293,8.73 11.113,8.73 11.887,9.5 10.308,7.93 10.309,8.5 10.512,7.35 10.101,7.14 15.649,11.68 15.453,10.11 16.636,9.5 13.075,7.74 11.687,5.34 9.738,4.17 8.918,3.57 11.09,4.16 14.27,4.77 13.461,3.16 7.945,1.57 14.266,2.4 18.007,2.37 16.086,0.59 h 11.875 l 16.625,-0.59 12.508,-1.18 13.063,-1.19 13.086,-2.4 12.493,-2.94 10.08,-3.58 11.31,-4.76 8.92,-4.16 8.92,-6.54 7.74,-8.34 5.35,-7.72 3.57,-7.72 3.15,-10.1 0.98,-10.72 v -9.5 l -1.77,-10.1 -1.58,-10.51 -3.96,-9.5 -6.35,-10.32 -7.13,-7.14 -9.53,-7.13 -9.52,-5.56 -13.44,-5.55 -12.7,-3.16 -14.276,-1.57 -14.254,0.8 -12.468,1.96 -12.496,3.57 -12.465,5.36 -10.11,5.93 -9.546,10.12 -5.93,9.5 -4.762,11.3 -2.769,10.31 -1.582,10.09 0.777,11.1 2.391,10.12 3.57,4.76 3.57,5.34 3.539,3.56 4.379,3.18 -4.379,1.58 -7.109,-0.58 -6.738,-1.78 -6.332,-3.2 -11.114,-5.52 -12.672,-8.73 -11.113,-8.73 -12.68,-10.31 -10.312,-8.69 -11.859,-11.11 -8.743,-7.93 -11.859,-11.89 -14.281,-15.86 -26.766,-30.72 -11.269,-11.29 -11.317,-11.87 -6.539,-6.95 -10.101,-10.11 -12.465,-13.85 -11.926,-11.9 -10.68,-10.71 -10.711,-11.31 -7.922,-7.71 -9.496,-10.69 -12.5,-12.5 -11.687,-11.69 -12.496,-13.08 -11.692,-12.69 -11.886,-11.88 -9.504,-8.93 -13.692,-13.06 -8.304,-7.15 -10.512,-8.9 -10.309,-9.5 -11.89,-11.11 -13.461,-11.11 -11.875,-9.51 -9.735,-7.71 -13.273,-10.5 -14.27,-11.11 -11.886,-8.32 -10.7,-7.93 -13.878,-9.92 -15.258,-10.09 -19.004,-10.69 -14.297,-7.75 -14.047,-6.33 -13.293,-4.95 -20.988,-7.55 -17.07,-4.93 -20.204,-5.36 -17.836,-2.98 -24.96,-3.58 -23.786,-1.76 -20.785,-1.19 -23.207,0.58 -17.219,1.19 -17.855,2.39 -14.856,2.95 -16.062,3.57 -13.668,4.19 -10.102,3.56 -9.5152,3.56 -8.9101,4.76 -7.7305,4.73 -8.9102,6.56 -7.1445,7.13 -7.1094,8.35 -5.9765,8.9 -2.9649,5.94 -0.5898,4.75"/>
        <path fill="#fff" d="m 784.066,4548.16 10.887,-7.35 8.926,-5.35 8.336,-3.55 8.305,-2.98 9.515,-1.77 10.695,-1.78 h 9.5 l 13.883,1.19 7.336,1.99 7.348,2.37 7.715,3.98 6.722,4.73 3.582,4.77 2.579,5.54 -8.321,-2.38 -9.109,-0.18 -7.75,-0.61 -11.488,1 -8.493,1.78 -8.148,2.78 -8.711,3.97 -7.152,4.74 -6.535,5.95 -4.153,4.14 -2.992,4.76 -3.539,6.54 -1.785,5.94 -0.809,9.53 v 9.32 l 1.582,12.48 3.387,10.7 3.957,7.43 3.746,7.02 5.559,6.54 6.359,5.56 7.922,6.35 7.125,3.18 6.348,3.16 10.293,3.17 10.304,2.38 11.91,1.58 7.914,0.79 h 7.145 l 5.93,-0.6 9.922,-1.77 11.875,-2.38 10.304,-3.96 8.321,-4.36 10.109,-7.75 4.777,-5.92 4.149,-6.56 4.144,-8.9 2.594,-8.94 1.582,-8.92 0.59,-7.11 v -7.75 l -1.184,-8.5 -0.988,-6.95 -4.766,-15.06 -3.961,-8.72 -3.539,-7.71 -5.972,-8.32 -5.95,-7.14 -8.32,-8.92 -5.93,-5.35 -11.304,-8.95 -8.926,-5.91 -9.512,-6.35 -10.683,-4.76 -10.309,-3.96 -12.492,-3.55 -14.254,-3.59 -14.859,-1.97 -16.079,-1.78 -14.269,-0.6 -16.613,0.6 -15.477,1.78 -15.449,2.96 -20.817,6.55 -13.675,5.93 -13.086,7.73 -12.656,8.13 -10.708,8.33 -6.507,5.85 -7.715,6.53 -5.961,5.95 -6.551,7.72 -5.34,7.13 -3.773,5.76 -4.754,7.72 -3.367,6.34 -3.742,10.39 -3.973,11.02 -2.391,13.65 -2.359,12.49 -0.606,13.11 v 12.45 l 0.606,12.51 1.785,11.9 3.555,15.54 2.343,9.9 5.188,11 3.727,9.22 6.55,11.32 6.535,11.28 8.551,11 9.504,11.89 9.871,10.98 10.684,10.73 10.726,8.89 11.891,7.74 10.699,7.13 13.676,7.74 13.273,5.53 11.895,5.35 12.488,4.76 12.473,4.17 13.07,3.57 12.946,1.9 11.902,1.78 15.207,1.48 14.277,0.48 12.41,-0.11 11.27,-0.61 13.348,-0.37 11.343,-1.45 12.27,-1.55 17.59,-3.25 11.89,-3.57 9.532,-4.45 4.558,-4.54 -0.832,-1.69 -5.426,-0.2 -5.875,1.85 -6.277,1.14 -11.129,1.26 -19.176,0.88 h -10.293 l -11.113,-0.79 -15.101,-1.48 -11.274,-1.79 -11.89,-2.96 -10.102,-2.98 -10.715,-3.56 -10.105,-4.76 -10.11,-5.94 -9.703,-5.75 -8.926,-5.93 -8.648,-7.35 -8.914,-7.71 -7.137,-8.32 -7.98,-9.9 -6.852,-10.9 -5.066,-6.96 -5.86,-12.48 -4.847,-9.52 -4.153,-10.71 -3.566,-11.88 -2.965,-11.3 -1.773,-17.84 -0.621,-11.87 0.621,-10.71 1.367,-14.83 1.078,-11 1.773,-11.17 3.512,-11.77 4.727,-13.66 4.199,-9.49 5.933,-9.53 5.34,-6.54 7.153,-7.14 7.718,-7.13"/>
        <path fill="#fff" d="m 1111.78,4806.23 c 5.4,-8.12 12.32,-14.09 20.74,-17.93 8.42,-3.85 17.11,-5.78 26.05,-5.78 4.99,0 10.08,0.78 15.28,2.34 5.2,1.57 9.93,3.9 14.19,7.02 4.27,3.12 7.75,6.96 10.45,11.53 2.7,4.59 4.06,9.9 4.06,15.91 0,8.54 -2.71,15.03 -8.11,19.5 -5.41,4.48 -12.12,8.21 -20.12,11.22 -8.01,3.02 -16.74,5.93 -26.2,8.74 -9.47,2.82 -18.2,6.7 -26.2,11.7 -8.01,4.98 -14.72,11.7 -20.12,20.12 -5.41,8.42 -8.11,19.81 -8.11,34.16 0,6.44 1.4,13.3 4.21,20.59 2.81,7.26 7.23,13.92 13.26,19.95 6.02,6.03 13.77,11.07 23.24,15.13 9.45,4.06 20.84,6.08 34.15,6.08 12.06,0 23.59,-1.66 34.62,-4.98 11.02,-3.34 20.69,-10.1 29.01,-20.27 l -24.33,-22.15 c -3.74,5.81 -9.05,10.49 -15.91,14.03 -6.86,3.54 -14.66,5.3 -23.39,5.3 -8.32,0 -15.23,-1.09 -20.75,-3.28 -5.5,-2.17 -9.93,-4.98 -13.25,-8.42 -3.32,-3.42 -5.66,-7.13 -7.01,-11.07 -1.36,-3.95 -2.03,-7.59 -2.03,-10.91 0,-9.36 2.7,-16.53 8.1,-21.53 5.41,-4.98 12.12,-9.05 20.12,-12.16 8,-3.13 16.74,-5.92 26.2,-8.42 9.46,-2.5 18.2,-5.97 26.21,-10.45 8,-4.47 14.7,-10.51 20.12,-18.09 5.4,-7.59 8.1,-18.05 8.1,-31.35 0,-10.61 -2.03,-20.18 -6.08,-28.69 -4.06,-8.53 -9.51,-15.72 -16.37,-21.53 -6.87,-5.83 -14.98,-10.29 -24.33,-13.41 -9.36,-3.12 -19.35,-4.68 -29.94,-4.68 -14.15,0 -27.57,2.5 -40.25,7.49 -12.68,4.99 -22.76,12.67 -30.25,23.07 l 24.64,21.22"/>
        <path fill="#fff" d="m 1359.74,4868.62 c -5.2,5.4 -10.66,9.51 -16.38,12.32 -5.72,2.8 -12.53,4.21 -20.43,4.21 -7.69,0 -14.4,-1.41 -20.12,-4.21 -5.72,-2.81 -10.5,-6.66 -14.35,-11.55 -3.85,-4.88 -6.75,-10.5 -8.73,-16.84 -1.98,-6.35 -2.96,-12.95 -2.96,-19.81 0,-6.87 1.14,-13.36 3.43,-19.49 2.29,-6.14 5.5,-11.5 9.66,-16.07 4.16,-4.58 9.16,-8.16 14.98,-10.75 5.82,-2.61 12.37,-3.91 19.65,-3.91 7.9,0 14.66,1.4 20.27,4.21 5.62,2.82 10.82,6.91 15.6,12.33 l 19.96,-19.97 c -7.28,-8.12 -15.75,-13.93 -25.42,-17.46 -9.66,-3.55 -19.91,-5.31 -30.72,-5.31 -11.44,0 -21.89,1.88 -31.35,5.62 -9.46,3.75 -17.62,8.99 -24.49,15.75 -6.86,6.76 -12.16,14.85 -15.9,24.33 -3.74,9.45 -5.61,19.91 -5.61,31.34 0,11.44 1.87,21.94 5.61,31.5 3.74,9.57 8.99,17.79 15.75,24.65 6.76,6.86 14.86,12.21 24.33,16.06 9.46,3.85 20.01,5.77 31.66,5.77 10.81,0 21.15,-1.92 31.03,-5.77 9.88,-3.85 18.46,-9.72 25.74,-17.63 l -21.21,-19.32"/>
        <path fill="#fff" d="m 1396.85,4995.87 h 28.07 v -110.72 h 0.63 c 3.53,7.89 9.67,14.29 18.4,19.17 8.73,4.89 18.81,7.35 30.26,7.35 7.06,0 13.88,-1.1 20.42,-3.29 6.55,-2.18 12.27,-5.56 17.16,-10.13 4.88,-4.59 8.79,-10.46 11.7,-17.63 2.91,-7.18 4.36,-15.64 4.36,-25.42 v -95.14 h -28.07 v 87.35 c 0,6.84 -0.94,12.73 -2.81,17.61 -1.87,4.89 -4.36,8.84 -7.49,11.86 -3.11,3.01 -6.7,5.2 -10.75,6.55 -4.06,1.34 -8.27,2.02 -12.64,2.02 -5.82,0 -11.23,-0.92 -16.22,-2.8 -4.99,-1.88 -9.35,-4.84 -13.1,-8.89 -3.74,-4.05 -6.66,-9.2 -8.73,-15.44 -2.08,-6.23 -3.12,-13.63 -3.12,-22.14 v -76.12 h -28.07 v 235.81"/>
        <path fill="#fff" d="m 1575.56,4833.99 c 0,-7.49 1.14,-14.4 3.44,-20.74 2.28,-6.34 5.5,-11.76 9.66,-16.21 4.16,-4.5 9.25,-8.02 15.28,-10.61 6.03,-2.61 12.79,-3.91 20.28,-3.91 7.49,0 14.24,1.3 20.27,3.91 6.03,2.59 11.13,6.11 15.29,10.61 4.16,4.45 7.37,9.87 9.67,16.21 2.28,6.34 3.42,13.25 3.42,20.74 0,7.49 -1.14,14.39 -3.42,20.74 -2.3,6.34 -5.51,11.75 -9.67,16.22 -4.16,4.47 -9.26,8.01 -15.29,10.61 -6.03,2.59 -12.78,3.89 -20.27,3.89 -7.49,0 -14.25,-1.3 -20.28,-3.89 -6.03,-2.6 -11.12,-6.14 -15.28,-10.61 -4.16,-4.47 -7.38,-9.88 -9.66,-16.22 -2.3,-6.35 -3.44,-13.25 -3.44,-20.74 z m -29.94,0 c 0,10.81 2.02,20.91 6.08,30.25 4.05,9.36 9.61,17.57 16.69,24.64 7.06,7.06 15.38,12.63 24.95,16.69 9.56,4.05 19.85,6.1 30.88,6.1 11.02,0 21.31,-2.05 30.87,-6.1 9.56,-4.06 17.89,-9.63 24.96,-16.69 7.07,-7.07 12.63,-15.28 16.68,-24.64 4.06,-9.34 6.09,-19.44 6.09,-30.25 0,-10.82 -2.03,-20.95 -6.09,-30.41 -4.05,-9.46 -9.61,-17.68 -16.68,-24.64 -7.07,-6.97 -15.4,-12.48 -24.96,-16.53 -9.56,-4.06 -19.85,-6.09 -30.87,-6.09 -11.03,0 -21.32,2.03 -30.88,6.09 -9.57,4.05 -17.89,9.56 -24.95,16.53 -7.08,6.96 -12.64,15.18 -16.69,24.64 -4.06,9.46 -6.08,19.59 -6.08,30.41"/>
        <path fill="#fff" d="m 1732.76,4995.87 h 28.08 v -235.81 h -28.08 v 235.81"/>
        <path fill="#fff" d="m 1877.79,4831.18 c -6.65,0 -13.46,-0.36 -20.42,-1.09 -6.97,-0.73 -13.32,-2.14 -19.03,-4.22 -5.72,-2.08 -10.4,-4.98 -14.04,-8.72 -3.64,-3.75 -5.45,-8.53 -5.45,-14.36 0,-8.53 2.85,-14.65 8.58,-18.4 5.71,-3.74 13.45,-5.61 23.23,-5.61 7.69,0 14.24,1.29 19.65,3.89 5.41,2.61 9.77,5.99 13.1,10.14 3.32,4.17 5.72,8.8 7.17,13.88 1.46,5.1 2.19,10.14 2.19,15.14 v 9.35 z m -79.22,58.65 c 7.9,7.27 17.05,12.72 27.45,16.37 10.39,3.63 20.79,5.47 31.19,5.47 10.81,0 20.12,-1.36 27.92,-4.07 7.79,-2.71 14.19,-6.35 19.18,-10.92 4.99,-4.57 8.68,-9.82 11.07,-15.74 2.39,-5.93 3.59,-12.12 3.59,-18.57 v -75.49 c 0,-5.19 0.1,-9.96 0.31,-14.34 0.2,-4.36 0.52,-8.53 0.94,-12.48 h -24.96 c -0.62,7.49 -0.93,14.97 -0.93,22.46 h -0.62 c -6.24,-9.57 -13.63,-16.32 -22.15,-20.27 -8.53,-3.94 -18.4,-5.93 -29.63,-5.93 -6.87,0 -13.42,0.93 -19.65,2.81 -6.24,1.88 -11.7,4.67 -16.38,8.42 -4.68,3.74 -8.37,8.37 -11.07,13.88 -2.7,5.51 -4.05,11.91 -4.05,19.19 0,9.55 2.12,17.57 6.38,24 4.26,6.46 10.09,11.7 17.47,15.77 7.38,4.05 16.02,6.96 25.89,8.73 9.88,1.75 20.43,2.64 31.66,2.64 h 20.59 v 6.25 c 0,3.73 -0.73,7.47 -2.19,11.22 -1.45,3.74 -3.63,7.12 -6.55,10.14 -2.91,3.01 -6.54,5.4 -10.91,7.18 -4.36,1.77 -9.57,2.65 -15.59,2.65 -5.42,0 -10.15,-0.52 -14.2,-1.56 -4.05,-1.04 -7.75,-2.34 -11.07,-3.9 -3.33,-1.56 -6.35,-3.38 -9.05,-5.46 -2.7,-2.07 -5.3,-4.06 -7.79,-5.93 l -16.85,17.48"/>
        <path fill="#fff" d="m 1259,4677.97 c -6.23,8.12 -14.14,14.35 -23.71,18.72 -9.56,4.37 -19.44,6.56 -29.62,6.56 -12.48,0 -23.76,-2.35 -33.84,-7.02 -10.1,-4.68 -18.72,-11.09 -25.89,-19.19 -7.17,-8.11 -12.74,-17.62 -16.7,-28.54 -3.95,-10.92 -5.92,-22.62 -5.92,-35.09 0,-11.66 1.88,-22.66 5.61,-33.06 3.75,-10.4 9.16,-19.55 16.22,-27.45 7.07,-7.91 15.71,-14.14 25.9,-18.72 10.18,-4.58 21.72,-6.86 34.62,-6.86 12.68,0 23.8,2.61 33.37,7.79 9.56,5.2 17.67,12.48 24.33,21.84 l 25.27,-19.03 c -1.67,-2.28 -4.58,-5.56 -8.74,-9.83 -4.16,-4.26 -9.66,-8.52 -16.53,-12.77 -6.86,-4.27 -15.13,-8.02 -24.79,-11.23 -9.67,-3.23 -20.85,-4.85 -33.54,-4.85 -17.46,0 -33.21,3.33 -47.25,9.98 -14.03,6.66 -26,15.4 -35.87,26.21 -9.88,10.81 -17.42,23.03 -22.62,36.66 -5.19,13.6 -7.79,27.38 -7.79,41.32 0,17.04 2.8,32.81 8.42,47.26 5.61,14.44 13.46,26.92 23.55,37.42 10.08,10.5 22.19,18.66 36.34,24.49 14.13,5.82 29.73,8.72 46.78,8.72 14.55,0 28.86,-2.79 42.89,-8.41 14.04,-5.61 25.52,-14.25 34.47,-25.89 L 1259,4677.97"/>
        <path fill="#fff" d="m 1380.01,4575.97 c -6.66,0 -13.47,-0.36 -20.43,-1.07 -6.97,-0.74 -13.31,-2.15 -19.03,-4.23 -5.72,-2.07 -10.4,-4.98 -14.04,-8.72 -3.64,-3.75 -5.45,-8.53 -5.45,-14.36 0,-8.53 2.85,-14.65 8.57,-18.41 5.72,-3.73 13.47,-5.6 23.24,-5.6 7.69,0 14.24,1.29 19.66,3.9 5.4,2.59 9.76,5.97 13.09,10.12 3.33,4.17 5.72,8.8 7.17,13.9 1.46,5.09 2.19,10.13 2.19,15.13 v 9.34 z m -79.23,58.65 c 7.9,7.27 17.05,12.73 27.45,16.37 10.39,3.64 20.79,5.47 31.19,5.47 10.81,0 20.12,-1.36 27.92,-4.06 7.79,-2.71 14.19,-6.35 19.18,-10.92 4.99,-4.57 8.68,-9.81 11.07,-15.74 2.39,-5.93 3.59,-12.12 3.59,-18.58 v -75.48 c 0,-5.19 0.1,-9.97 0.32,-14.34 0.2,-4.37 0.51,-8.54 0.93,-12.48 h -24.96 c -0.62,7.49 -0.93,14.97 -0.93,22.46 h -0.63 c -6.23,-9.57 -13.62,-16.33 -22.14,-20.27 -8.53,-3.95 -18.4,-5.92 -29.63,-5.92 -6.87,0 -13.42,0.93 -19.65,2.79 -6.24,1.89 -11.7,4.68 -16.37,8.43 -4.69,3.74 -8.38,8.37 -11.08,13.88 -2.7,5.5 -4.05,11.9 -4.05,19.19 0,9.55 2.12,17.56 6.39,24.01 4.25,6.44 10.08,11.7 17.46,15.75 7.38,4.05 16.02,6.96 25.9,8.74 9.87,1.76 20.43,2.64 31.65,2.64 h 20.59 v 6.25 c 0,3.74 -0.73,7.47 -2.19,11.23 -1.45,3.74 -3.63,7.11 -6.54,10.13 -2.92,3 -6.56,5.4 -10.92,7.17 -4.36,1.77 -9.57,2.66 -15.59,2.66 -5.42,0 -10.14,-0.53 -14.2,-1.56 -4.05,-1.04 -7.75,-2.35 -11.07,-3.91 -3.33,-1.55 -6.35,-3.38 -9.05,-5.45 -2.7,-2.08 -5.3,-4.06 -7.79,-5.93 l -16.85,17.47"/>
        <path fill="#fff" d="m 1444.55,4652.71 h 28.07 v -22.76 h 0.63 c 3.53,7.89 9.67,14.28 18.4,19.17 8.74,4.89 18.81,7.34 30.26,7.34 7.06,0 13.88,-1.09 20.43,-3.28 6.55,-2.19 12.27,-5.57 17.15,-10.14 4.88,-4.58 8.79,-10.45 11.7,-17.62 2.91,-7.17 4.36,-15.65 4.36,-25.42 v -95.14 h -28.07 v 87.34 c 0,6.86 -0.94,12.74 -2.8,17.63 -1.88,4.87 -4.37,8.83 -7.49,11.84 -3.12,3.01 -6.71,5.2 -10.76,6.56 -4.06,1.34 -8.27,2.02 -12.63,2.02 -5.83,0 -11.24,-0.93 -16.23,-2.79 -4.99,-1.89 -9.35,-4.86 -13.09,-8.91 -3.75,-4.04 -6.66,-9.2 -8.74,-15.44 -2.08,-6.23 -3.12,-13.62 -3.12,-22.14 v -76.11 h -28.07 v 147.85"/>
        <path fill="#fff" d="m 1689.72,4628.38 h -40.24 v -67.06 c 0,-4.17 0.11,-8.26 0.31,-12.32 0.21,-4.05 0.99,-7.7 2.34,-10.92 1.35,-3.23 3.43,-5.82 6.24,-7.8 2.8,-1.97 6.91,-2.96 12.32,-2.96 3.32,0 6.75,0.32 10.29,0.94 3.54,0.62 6.76,1.76 9.67,3.42 v -25.57 c -3.33,-1.87 -7.64,-3.18 -12.94,-3.89 -5.31,-0.74 -9.41,-1.09 -12.32,-1.09 -10.82,0 -19.18,1.5 -25.11,4.51 -5.92,3.02 -10.29,6.9 -13.11,11.7 -2.8,4.77 -4.46,10.14 -4.99,16.05 -0.51,5.93 -0.77,11.92 -0.77,17.95 v 77.04 h -32.44 v 24.33 h 32.44 v 41.47 h 28.07 v -41.47 h 40.24 v -24.33"/>
        <path fill="#fff" d="m 1731.19,4578.78 c 0,-7.49 1.14,-14.4 3.43,-20.74 2.29,-6.34 5.51,-11.76 9.67,-16.21 4.16,-4.48 9.25,-8.02 15.28,-10.6 6.03,-2.61 12.79,-3.91 20.28,-3.91 7.48,0 14.24,1.3 20.27,3.91 6.03,2.58 11.13,6.12 15.29,10.6 4.16,4.45 7.37,9.87 9.66,16.21 2.29,6.34 3.43,13.25 3.43,20.74 0,7.49 -1.14,14.41 -3.43,20.75 -2.29,6.33 -5.5,11.75 -9.66,16.23 -4.16,4.45 -9.26,8 -15.29,10.6 -6.03,2.59 -12.79,3.89 -20.27,3.89 -7.49,0 -14.25,-1.3 -20.28,-3.89 -6.03,-2.6 -11.12,-6.15 -15.28,-10.6 -4.16,-4.48 -7.38,-9.9 -9.67,-16.23 -2.29,-6.34 -3.43,-13.26 -3.43,-20.75 z m -29.94,0 c 0,10.81 2.02,20.91 6.08,30.26 4.05,9.35 9.61,17.57 16.68,24.65 7.07,7.06 15.39,12.62 24.96,16.68 9.56,4.05 19.85,6.09 30.88,6.09 11.02,0 21.31,-2.04 30.87,-6.09 9.56,-4.06 17.88,-9.62 24.96,-16.68 7.06,-7.08 12.63,-15.3 16.68,-24.65 4.06,-9.35 6.09,-19.45 6.09,-30.26 0,-10.81 -2.03,-20.94 -6.09,-30.4 -4.05,-9.47 -9.62,-17.68 -16.68,-24.64 -7.08,-6.97 -15.4,-12.48 -24.96,-16.54 -9.56,-4.05 -19.85,-6.07 -30.87,-6.07 -11.03,0 -21.32,2.02 -30.88,6.07 -9.57,4.06 -17.89,9.57 -24.96,16.54 -7.07,6.96 -12.63,15.17 -16.68,24.64 -4.06,9.46 -6.08,19.59 -6.08,30.4"/>
        <path fill="#fff" d="m 1876.2,4652.71 h 28.08 v -22.76 h 0.62 c 1.87,3.94 4.37,7.53 7.48,10.75 3.12,3.23 6.61,5.97 10.46,8.27 3.84,2.29 8.05,4.09 12.62,5.45 4.58,1.36 9.16,2.04 13.73,2.04 4.57,0 8.73,-0.62 12.48,-1.88 l -1.25,-30.26 c -2.29,0.63 -4.57,1.15 -6.86,1.56 -2.29,0.42 -4.57,0.63 -6.87,0.63 -13.72,0 -24.22,-3.85 -31.5,-11.54 -7.28,-7.69 -10.91,-19.65 -10.91,-35.86 v -74.25 h -28.08 v 147.85"/>
        <path fill="#fff" d="m 2115.13,4504.86 h -28.07 v 22.78 h -0.62 c -3.54,-7.91 -9.68,-14.3 -18.41,-19.19 -8.73,-4.89 -18.82,-7.32 -30.26,-7.32 -7.27,0 -14.14,1.09 -20.58,3.26 -6.45,2.19 -12.11,5.57 -17,10.14 -4.89,4.58 -8.78,10.45 -11.69,17.62 -2.91,7.17 -4.37,15.65 -4.37,25.42 v 95.14 h 28.07 v -87.34 c 0,-6.86 0.94,-12.74 2.81,-17.61 1.87,-4.89 4.37,-8.85 7.49,-11.86 3.11,-3.01 6.7,-5.2 10.75,-6.56 4.06,-1.34 8.27,-2.02 12.64,-2.02 5.82,0 11.23,0.94 16.22,2.81 4.99,1.87 9.35,4.84 13.1,8.89 3.74,4.06 6.65,9.2 8.74,15.44 2.07,6.24 3.11,13.61 3.11,22.14 v 76.11 h 28.07 v -147.85"/>
        <path fill="#fff" d="m 2150.07,4652.71 h 26.21 v -23.09 h 0.62 c 0.62,2.08 2.23,4.68 4.83,7.8 2.6,3.13 5.92,6.09 9.98,8.89 4.06,2.81 8.83,5.21 14.35,7.18 5.51,1.97 11.58,2.97 18.24,2.97 11.02,0 20.28,-2.3 27.77,-6.87 7.48,-4.58 13.61,-11.43 18.39,-20.59 4.79,9.16 11.55,16.01 20.28,20.59 8.74,4.57 17.57,6.87 26.52,6.87 11.43,0 20.79,-1.88 28.07,-5.62 7.27,-3.75 12.99,-8.69 17.15,-14.82 4.16,-6.13 7.02,-13.1 8.58,-20.89 1.56,-7.81 2.34,-15.87 2.34,-24.18 v -86.09 h -28.07 v 82.34 c 0,5.63 -0.37,11.03 -1.1,16.23 -0.72,5.19 -2.23,9.78 -4.52,13.72 -2.29,3.95 -5.5,7.11 -9.66,9.52 -4.17,2.39 -9.68,3.58 -16.54,3.58 -13.52,0 -23.18,-4.15 -29.01,-12.47 -5.82,-8.33 -8.73,-19.03 -8.73,-32.13 v -80.79 h -28.07 v 77.36 c 0,7.06 -0.36,13.51 -1.09,19.34 -0.73,5.82 -2.19,10.86 -4.37,15.12 -2.19,4.26 -5.3,7.58 -9.36,9.99 -4.06,2.39 -9.51,3.58 -16.37,3.58 -4.99,0 -9.83,-0.99 -14.5,-2.96 -4.68,-1.98 -8.8,-4.95 -12.33,-8.9 -3.54,-3.94 -6.34,-8.99 -8.42,-15.11 -2.08,-6.15 -3.12,-13.38 -3.12,-21.68 v -76.74 h -28.07 v 147.85"/>
        <path fill="#fff" d="m 1513.63,4410.83 c -2.14,3.08 -5.02,5.56 -8.64,7.44 -3.63,1.86 -7.74,2.79 -12.33,2.79 -2.66,0 -5.41,-0.37 -8.23,-1.11 -2.83,-0.76 -5.44,-1.96 -7.84,-3.61 -2.4,-1.66 -4.38,-3.76 -5.92,-6.32 -1.55,-2.55 -2.32,-5.6 -2.32,-9.12 0,-2.45 0.45,-4.59 1.35,-6.39 0.91,-1.82 2.16,-3.42 3.76,-4.81 1.6,-1.38 3.53,-2.63 5.76,-3.76 2.25,-1.12 4.7,-2.16 7.37,-3.11 4.16,-1.51 8.03,-3.19 11.6,-5.05 3.56,-1.87 6.72,-4.05 9.43,-6.55 2.73,-2.51 4.86,-5.39 6.41,-8.65 1.54,-3.25 2.31,-7.01 2.31,-11.28 0,-5.22 -0.98,-10.05 -2.96,-14.48 -1.97,-4.42 -4.79,-8.24 -8.47,-11.43 -3.68,-3.21 -8.14,-5.72 -13.36,-7.52 -5.24,-1.82 -11.09,-2.73 -17.61,-2.73 -3.62,0 -7.23,0.37 -10.79,1.12 -3.58,0.75 -7.02,1.84 -10.32,3.29 -3.31,1.43 -6.32,3.25 -9.04,5.44 -2.72,2.17 -4.99,4.76 -6.8,7.75 l 13.11,8.8 c 2.14,-3.73 5.36,-6.86 9.68,-9.36 4.33,-2.51 9.26,-3.76 14.81,-3.76 3.2,0 6.31,0.45 9.35,1.36 3.05,0.91 5.73,2.25 8.09,4 2.34,1.76 4.24,3.95 5.67,6.57 1.45,2.6 2.17,5.67 2.17,9.2 0,2.88 -0.59,5.38 -1.77,7.52 -1.17,2.12 -2.77,3.99 -4.79,5.59 -2.03,1.6 -4.38,3.02 -7.04,4.24 -2.67,1.23 -5.5,2.37 -8.48,3.45 -3.31,1.28 -6.51,2.71 -9.6,4.31 -3.1,1.6 -5.82,3.52 -8.16,5.76 -2.35,2.24 -4.22,4.91 -5.6,8 -1.39,3.1 -2.08,6.77 -2.08,11.04 0,5.22 1.03,10 3.11,14.32 2.09,4.32 5,7.97 8.73,10.96 3.73,2.99 8.16,5.3 13.28,6.96 5.11,1.65 10.66,2.48 16.64,2.48 6.61,0 12.77,-1.23 18.47,-3.68 5.71,-2.45 10.11,-5.91 13.21,-10.4 l -12.16,-9.27"/>
        <path fill="#fff" d="m 1563.54,4421.54 c 0,-2.67 -0.9,-4.95 -2.7,-6.88 -1.8,-1.92 -4.02,-2.88 -6.66,-2.88 -2.54,0 -4.74,0.8 -6.59,2.4 -1.85,1.61 -2.77,3.84 -2.77,6.72 0,2.88 0.98,5.26 2.93,7.12 1.96,1.87 4.21,2.81 6.75,2.81 2.54,0 4.68,-0.86 6.42,-2.56 1.74,-1.71 2.62,-3.96 2.62,-6.73 z m -19.69,-103.52 h -14.71 l 13.28,75.84 h 14.88 l -13.45,-75.84"/>
        <path fill="#fff" d="m 1582.26,4318.02 h -14.88 l 21.28,120.96 h 15.04 l -21.44,-120.96"/>
        <path fill="#fff" d="m 1640.18,4421.54 c 0,-2.67 -0.9,-4.95 -2.7,-6.88 -1.8,-1.92 -4.02,-2.88 -6.66,-2.88 -2.54,0 -4.74,0.8 -6.59,2.4 -1.85,1.61 -2.77,3.84 -2.77,6.72 0,2.88 0.98,5.26 2.93,7.12 1.96,1.87 4.21,2.81 6.75,2.81 2.54,0 4.68,-0.86 6.42,-2.56 1.74,-1.71 2.62,-3.96 2.62,-6.73 z m -19.69,-103.52 h -14.71 l 13.28,75.84 h 14.88 l -13.45,-75.84"/>
        <path fill="#fff" d="m 1706.41,4374.51 c -1.28,2.56 -3.44,4.71 -6.48,6.47 -3.04,1.76 -6.43,2.64 -10.16,2.64 -4.37,0 -8.4,-0.88 -12.08,-2.64 -3.68,-1.76 -6.85,-4.16 -9.52,-7.2 -2.67,-3.03 -4.75,-6.56 -6.24,-10.56 -1.49,-4 -2.24,-8.23 -2.24,-12.72 0,-3.09 0.45,-5.97 1.36,-8.64 0.91,-2.67 2.27,-4.99 4.08,-6.95 1.81,-1.99 4.08,-3.56 6.8,-4.73 2.72,-1.17 5.9,-1.76 9.52,-1.76 4.81,0 8.85,0.85 12.16,2.56 3.31,1.71 6.19,3.9 8.64,6.56 l 8.96,-8.32 c -4.06,-4.05 -8.56,-7.28 -13.52,-9.67 -4.96,-2.41 -10.69,-3.61 -17.2,-3.61 -5.44,0 -10.38,0.8 -14.8,2.4 -4.42,1.61 -8.18,3.84 -11.28,6.72 -3.1,2.88 -5.5,6.32 -7.2,10.33 -1.71,3.99 -2.56,8.44 -2.56,13.36 0,6.28 1.1,12.28 3.29,17.99 2.17,5.71 5.27,10.73 9.27,15.04 4,4.32 8.82,7.77 14.49,10.32 5.64,2.56 11.94,3.84 18.87,3.84 2.78,0 5.52,-0.26 8.24,-0.8 2.72,-0.54 5.28,-1.31 7.68,-2.31 2.4,-1.02 4.59,-2.33 6.56,-3.93 1.98,-1.6 3.6,-3.51 4.89,-5.76 l -11.53,-8.63"/>
        <path fill="#fff" d="m 1786.73,4361.7 c 0,3.1 -0.5,5.97 -1.52,8.65 -1.01,2.65 -2.45,4.98 -4.32,6.95 -1.86,1.97 -4.16,3.53 -6.88,4.64 -2.71,1.12 -5.73,1.68 -9.03,1.68 -4.38,0 -8.38,-0.9 -12.01,-2.72 -3.63,-1.81 -6.74,-4.23 -9.36,-7.28 -2.61,-3.04 -4.64,-6.55 -6.07,-10.56 -1.45,-4 -2.16,-8.24 -2.16,-12.71 0,-6.41 1.91,-11.66 5.75,-15.76 3.85,-4.12 9.18,-6.17 16,-6.17 4.38,0 8.37,0.88 12.01,2.64 3.62,1.77 6.74,4.16 9.35,7.21 2.62,3.03 4.64,6.58 6.09,10.63 1.43,4.05 2.15,8.32 2.15,12.8 z m -30.4,-45.76 c -5.22,0 -10.03,0.8 -14.4,2.4 -4.38,1.61 -8.15,3.87 -11.36,6.8 -3.2,2.93 -5.7,6.43 -7.52,10.48 -1.81,4.05 -2.71,8.54 -2.71,13.44 0,6.3 1.08,12.26 3.27,17.93 2.19,5.64 5.28,10.63 9.29,14.95 3.99,4.32 8.8,7.73 14.39,10.24 5.61,2.5 11.82,3.76 18.64,3.76 5.23,0 10.03,-0.8 14.41,-2.4 4.36,-1.6 8.15,-3.84 11.36,-6.72 3.19,-2.88 5.67,-6.32 7.44,-10.32 1.75,-3.99 2.63,-8.45 2.63,-13.36 0,-6.4 -1.09,-12.45 -3.28,-18.15 -2.19,-5.72 -5.28,-10.73 -9.28,-15.04 -4,-4.33 -8.77,-7.74 -14.32,-10.25 -5.55,-2.5 -11.73,-3.76 -18.56,-3.76"/>
        <path fill="#fff" d="m 1839.68,4393.86 c -0.21,-1.49 -0.45,-3.49 -0.71,-5.99 -0.27,-2.51 -0.57,-4.62 -0.89,-6.33 h 0.32 c 2.78,4.37 6.32,7.87 10.65,10.49 4.32,2.6 9.2,3.91 14.64,3.91 8.32,0 14.64,-2.21 18.95,-6.64 4.33,-4.42 6.49,-10 6.49,-16.72 0,-2.66 -0.22,-5.22 -0.65,-7.67 l -8.32,-46.89 h -14.87 l 7.35,41.93 c 0.65,2.88 0.97,5.7 0.97,8.47 0,4.38 -1.07,7.95 -3.2,10.73 -2.14,2.77 -5.98,4.16 -11.53,4.16 -5.96,0 -11.14,-2.28 -15.51,-6.81 -4.38,-4.53 -7.26,-10.59 -8.65,-18.16 l -7.04,-40.32 h -14.87 l 10.4,59.36 c 0.42,2.03 0.88,4.65 1.36,7.84 0.48,3.2 0.82,6.08 1.03,8.64 h 14.08"/>
        <path fill="#fff" d="m 1973.61,4338.34 h 0.48 l 54.88,92.96 h 17.12 l -68.96,-113.28 h -14.88 l -18.08,113.28 h 16.64 l 12.8,-92.96"/>
        <path fill="#fff" d="m 2079.68,4354.51 c -4.16,0 -8.47,-0.2 -12.96,-0.57 -4.47,-0.37 -8.55,-1.11 -12.23,-2.24 -3.68,-1.12 -6.7,-2.75 -9.04,-4.88 -2.35,-2.14 -3.52,-4.9 -3.52,-8.32 0,-2.13 0.4,-3.87 1.2,-5.19 0.8,-1.34 1.87,-2.44 3.19,-3.29 1.34,-0.85 2.84,-1.44 4.49,-1.75 1.65,-0.33 3.33,-0.49 5.04,-0.49 3.31,0 6.4,0.56 9.28,1.68 2.87,1.12 5.38,2.64 7.52,4.56 2.13,1.92 3.92,4.16 5.35,6.73 1.45,2.56 2.44,5.27 2.97,8.15 l 1.12,5.61 z m 4.01,10.88 c 0.21,1.48 0.37,2.66 0.48,3.51 0.1,0.85 0.16,1.65 0.16,2.4 0,4.49 -1.38,7.71 -4.16,9.68 -2.78,1.97 -6.72,2.96 -11.84,2.96 -4.06,0 -8.11,-0.8 -12.16,-2.4 -4.05,-1.59 -7.58,-3.58 -10.56,-5.92 l -6.08,9.92 c 4.05,3.21 8.8,5.73 14.24,7.6 5.44,1.87 10.98,2.8 16.64,2.8 3.62,0 7.12,-0.4 10.47,-1.2 3.36,-0.8 6.35,-2.08 8.97,-3.84 2.61,-1.75 4.72,-4.08 6.32,-6.96 1.6,-2.88 2.4,-6.35 2.4,-10.4 0,-0.96 -0.06,-2.22 -0.17,-3.76 -0.1,-1.54 -0.26,-2.85 -0.47,-3.92 l -5.6,-30.72 c -0.54,-2.99 -0.96,-6.05 -1.28,-9.2 -0.32,-3.14 -0.48,-5.79 -0.48,-7.92 h -13.6 c 0,1.6 0.08,3.3 0.24,5.12 0.16,1.82 0.39,3.62 0.72,5.44 h -0.33 c -3.62,-4.27 -7.56,-7.35 -11.83,-9.28 -4.27,-1.92 -9.28,-2.88 -15.04,-2.88 -2.56,0 -5.23,0.32 -8,0.96 -2.77,0.64 -5.31,1.74 -7.6,3.28 -2.29,1.55 -4.19,3.6 -5.68,6.16 -1.49,2.56 -2.24,5.76 -2.24,9.6 0,6.19 1.7,11.17 5.12,14.96 3.41,3.79 7.81,6.72 13.19,8.8 5.39,2.08 11.45,3.47 18.17,4.16 6.72,0.69 13.39,1.05 20,1.05"/>
        <path fill="#fff" d="m 2126.72,4318.02 h -14.88 l 21.28,120.96 h 15.04 l -21.44,-120.96"/>
        <path fill="#fff" d="m 2165.13,4318.02 h -14.88 l 21.28,120.96 h 15.04 l -21.44,-120.96"/>
        <path fill="#fff" d="m 2250.41,4362.34 c 0.1,0.75 0.18,1.55 0.24,2.4 0.05,0.85 0.08,1.65 0.08,2.4 0,4.91 -1.6,8.99 -4.8,12.24 -3.2,3.25 -7.84,4.88 -13.92,4.88 -3.63,0 -6.94,-0.64 -9.92,-1.92 -2.99,-1.28 -5.63,-2.93 -7.92,-4.96 -2.3,-2.02 -4.21,-4.38 -5.76,-7.03 -1.55,-2.68 -2.64,-5.34 -3.28,-8.01 z m -46.88,-10.88 c -0.11,-0.54 -0.16,-0.99 -0.16,-1.36 0,-0.37 0,-0.77 0,-1.2 0,-2.99 0.56,-5.73 1.68,-8.24 1.12,-2.5 2.66,-4.69 4.64,-6.55 1.98,-1.88 4.32,-3.31 7.04,-4.33 2.72,-1.02 5.63,-1.51 8.72,-1.51 5.44,0 10.1,1.08 14,3.27 3.9,2.19 7.18,4.94 9.84,8.24 l 8.8,-8.32 c -4.48,-5.12 -9.6,-8.98 -15.36,-11.6 -5.76,-2.61 -12,-3.92 -18.72,-3.92 -5.02,0 -9.68,0.75 -14,2.24 -4.32,1.49 -8.05,3.68 -11.2,6.56 -3.15,2.88 -5.6,6.4 -7.36,10.56 -1.76,4.16 -2.64,8.9 -2.64,14.25 0,6.29 1.12,12.26 3.36,17.92 2.24,5.64 5.34,10.58 9.28,14.79 3.95,4.22 8.64,7.55 14.08,10 5.44,2.45 11.3,3.68 17.6,3.68 9.71,0 17.38,-2.63 23.04,-7.92 5.65,-5.28 8.48,-12.66 8.48,-22.16 0,-1.49 -0.13,-3.65 -0.4,-6.48 -0.27,-2.82 -0.67,-5.47 -1.2,-7.92 h -59.52"/>
        <path fill="#fff" d="m 2304.32,4334.18 h 0.32 l 33.61,59.68 h 15.99 l -55.51,-93.76 c -1.93,-3.2 -3.79,-6.05 -5.6,-8.56 -1.82,-2.5 -3.79,-4.64 -5.93,-6.4 -2.13,-1.76 -4.47,-3.11 -7.03,-4.08 -2.57,-0.96 -5.45,-1.44 -8.64,-1.44 -3.31,0 -6.46,0.38 -9.44,1.13 l 2.08,13.11 c 2.34,-0.85 4.69,-1.28 7.04,-1.28 3.41,0 6.24,1.1 8.47,3.28 2.25,2.19 4.59,5.31 7.04,9.36 l 7.52,12.8 -16.64,75.84 h 15.84 l 10.88,-59.68"/>
    </g>
</svg>
