<?xml version="1.0" encoding="utf-8"?>
<svg xmlns="http://www.w3.org/2000/svg" xmlns:xlink="http://www.w3.org/1999/xlink" version="1.1" viewBox="40 237 231 31">
    <defs>
        <path id="SVGID_10_" d="M89.2,252.8c0.3-1,0.8-2.4,0.8-3c0-0.4-0.3-0.8-0.7-0.8h-2c0,0-0.1,0.1-0.1,0.1c0,0,0,0.1,0.2,0.1
				c0.5,0,0.9,0,0.9,0.7c0,1.5-2.1,5.9-2.1,7.4c0,0.9,0.7,1.6,1.5,1.6c1.2,0,2.2-0.6,2.6-1.7c0-0.1,0-0.1-0.1-0.1
				c-0.2,0-0.8,1.4-2,1.4c-0.2,0-0.6-0.1-0.6-0.7c0-1.4,3.6-8.3,4.4-8.3c-0.2,0.5-0.5,1-0.5,1.5c0,0.4,0.2,0.8,0.6,0.8
				c0.7,0,1.1-1,1.1-1.8c0-0.6-0.2-1.1-0.6-1.1C90.9,249,89.9,251.8,89.2,252.8 M93.3,257.6c0-0.5,1.4-7.9,5.4-8.2
				c0.1,0,0.3,0,0.3,0.2c-2.1,1.9-3.4,8.9-5.2,8.9C93.4,258.4,93.3,258.1,93.3,257.6 M98.3,249c-3.5,0-6.3,4.3-6.3,7.7
				c0,1.4,0.2,2.4,1.5,2.4c2.3,0,3.4-6.6,5.5-9.3c0,0-0.1,0.4-0.2,0.6c-0.4,1.4-2.2,5.2-2.2,7.1c0,0.6,0.4,1.5,1.4,1.5
				c1.2,0,1.8-0.8,2.4-1.8c0-0.1,0.1-0.1,0.1-0.2c0,0,0-0.1-0.1-0.1c-0.1,0-0.2,0-0.3,0.2c-0.3,0.4-1.1,1.6-1.8,1.6
				c-0.2,0-0.4-0.1-0.4-0.6c0-0.8,2.9-8.3,2.9-8.6c0-0.3-0.3-0.4-0.6-0.4H98.3z M108,249c-0.7,0-0.8,0-0.8,0.2
				c0,0.1,0.2,0.1,0.2,0.1c1.1,0,1.1,0,1.1,0.3c0,0.5-2.5,6.4-2.5,7.8c0,0.7,0.5,1.5,1.3,1.5c1.4,0,2.2-2,2.2-2.1
				c0-0.1-0.1-0.1-0.2-0.1c0,0-0.2,0-0.3,0.2c-0.6,1-1.1,1.6-1.5,1.6c-0.2,0-0.3-0.1-0.3-0.3c0-0.9,3-7.8,3-8.9
				c0-0.3-0.2-0.4-0.5-0.4H108z M112,249.2c0,0.4,1.1-0.2,1.1,0.6c0,1-2.9,8.3-2.9,8.7c0,0.2,0,0.3,0.2,0.3h0.9c0.3,0,0.4,0,0.5-0.3
				c0.6-1.5,4-9.1,5.3-9.1c0.5,0,0.6,0.3,0.6,0.5c0,0.9-2.3,6-2.3,7.6c0,0.7,0.5,1.4,1.3,1.4c1.1,0,2.1-1.4,2.1-1.8
				c0-0.1,0-0.1-0.1-0.1c0,0-0.1,0-0.1,0.1c-0.8,1-1.2,1.3-1.5,1.3c-0.2,0-0.4,0-0.4-0.3c0-1.3,2.3-5.9,2.3-7.3c0-1-0.6-1.8-1.7-1.8
				c-1.7,0-3.3,4.1-3.7,4.7h-0.1c0.1-0.9,1.1-2.4,1.1-3.8c0-0.9-1.1-0.9-1.7-0.9C112.1,249,112,249,112,249.2 M230.7,249
				c-0.7,0-0.8,0-0.8,0.2c0,0.1,0.2,0.1,0.2,0.1c1.1,0,1.1,0,1.1,0.3c0,0.5-2.5,6.4-2.5,7.8c0,0.7,0.5,1.5,1.3,1.5
				c1.4,0,2.2-2,2.2-2.1c0-0.1-0.1-0.1-0.2-0.1c0,0-0.2,0-0.3,0.2c-0.6,1-1.1,1.6-1.5,1.6c-0.2,0-0.3-0.1-0.3-0.3c0-0.9,3-7.8,3-8.9
				c0-0.3-0.2-0.4-0.5-0.4H230.7z M234.6,249.2c0,0.4,1.1-0.2,1.1,0.6c0,1-2.9,8.3-2.9,8.7c0,0.2,0,0.3,0.2,0.3h0.9
				c0.3,0,0.4,0,0.5-0.3c0.6-1.5,4-9.1,5.3-9.1c0.5,0,0.6,0.3,0.6,0.5c0,0.9-2.3,6-2.3,7.6c0,0.7,0.5,1.4,1.3,1.4
				c1.1,0,2.1-1.4,2.1-1.8c0-0.1,0-0.1-0.1-0.1s-0.1,0-0.1,0.1c-0.8,1-1.2,1.3-1.5,1.3c-0.2,0-0.4,0-0.4-0.3c0-1.3,2.3-5.9,2.3-7.3
				c0-1-0.6-1.8-1.7-1.8c-1.7,0-3.3,4.1-3.7,4.7h-0.1c0.1-0.9,1.1-2.4,1.1-3.8c0-0.9-1.1-0.9-1.7-0.9
				C234.7,249,234.6,249,234.6,249.2 M251.3,249c-0.7,0-0.8,0-0.8,0.2c0,0.1,0.2,0.1,0.2,0.1c1.1,0,1.1,0,1.1,0.3
				c0,0.5-2.5,6.4-2.5,7.8c0,0.7,0.5,1.5,1.3,1.5c1.4,0,2.2-2,2.2-2.1c0-0.1-0.1-0.1-0.2-0.1c0,0-0.2,0-0.3,0.2
				c-0.6,1-1.1,1.6-1.5,1.6c-0.2,0-0.3-0.1-0.3-0.3c0-0.9,3-7.8,3-8.9c0-0.3-0.2-0.4-0.5-0.4H251.3z M255.2,249.2
				c0,0.4,1.1-0.2,1.1,0.6c0,1-2.9,8.3-2.9,8.7c0,0.2,0,0.3,0.2,0.3h0.9c0.3,0,0.4,0,0.5-0.3c0.6-1.5,4-9.1,5.3-9.1
				c0.5,0,0.6,0.3,0.6,0.5c0,0.9-2.3,6-2.3,7.6c0,0.7,0.5,1.4,1.3,1.4c1.1,0,2.1-1.4,2.1-1.8c0-0.1,0-0.1-0.1-0.1c0,0-0.1,0-0.1,0.1
				c-0.8,1-1.2,1.3-1.4,1.3c-0.2,0-0.4,0-0.4-0.3c0-1.3,2.3-5.9,2.3-7.3c0-1-0.6-1.8-1.7-1.8c-1.7,0-3.3,4.1-3.7,4.7h-0.1
				c0.1-0.9,1.1-2.4,1.1-3.8c0-0.9-1.1-0.9-1.7-0.9C255.3,249,255.2,249,255.2,249.2 M174.3,256.4c0,1.4,0.9,2.6,2.2,2.6
				c3.2,0,4.7-6.8,4.7-7.5c0-0.5-0.2-0.7-0.5-0.7c-0.5,0-1.3,0.8-1.3,1.7c0,0.7,0.2,1.2,0.5,1.8c0,0.8-1.3,4.4-3.3,4.4
				c-0.9,0-1.1-0.8-1.1-1.3c0-1.3,2.1-8.2,4.1-8.2c0.6,0,1.2,0.4,1.5,1.3h0.1c-0.1-1.3-0.9-1.7-1.9-1.7
				C175.9,248.8,174.3,254.7,174.3,256.4 M193.7,256.4c0,1.4,0.9,2.6,2.2,2.6c3.2,0,4.7-6.8,4.7-7.5c0-0.5-0.2-0.7-0.5-0.7
				c-0.5,0-1.3,0.8-1.3,1.7c0,0.7,0.2,1.2,0.5,1.8c0,0.8-1.3,4.4-3.3,4.4c-0.9,0-1.1-0.8-1.1-1.3c0-1.3,2.1-8.2,4.1-8.2
				c0.6,0,1.2,0.4,1.5,1.3h0.1c-0.1-1.3-0.9-1.7-1.9-1.7C195.2,248.8,193.7,254.7,193.7,256.4 M65,249.1c0.2,0,0.6,0.4,0.6,0.8
				c0,2-1.5,5.2-4,5.3C62.3,252.7,63.6,249.1,65,249.1 M60,256.3c0,1.4,1,2.7,2.1,2.7c2,0,3.3-1.8,3.3-2c0-0.1,0-0.2-0.2-0.2
				c-0.2,0-0.8,1.8-2.9,1.8c-0.6,0-1-0.7-1-1.3c0-0.4,0.1-1,0.3-1.7c4.3-0.4,4.9-3.8,4.9-4.7c0-2-1.2-2.1-1.6-2.1
				C61.9,248.8,60,253.6,60,256.3 M76.6,249.1c0.2,0,0.6,0.4,0.6,0.8c0,2-1.5,5.2-4,5.3C73.8,252.7,75.2,249.1,76.6,249.1
				 M71.6,256.3c0,1.4,1,2.7,2.1,2.7c2,0,3.3-1.8,3.3-2c0-0.1,0-0.2-0.2-0.2c-0.2,0-0.8,1.8-2.9,1.8c-0.6,0-1-0.7-1-1.3
				c0-0.4,0.1-1,0.3-1.7c4.3-0.4,4.9-3.8,4.9-4.7c0-2-1.2-2.1-1.6-2.1C73.4,248.8,71.6,253.6,71.6,256.3 M149.4,249.1
				c0.2,0,0.6,0.4,0.6,0.8c0,2-1.5,5.2-4,5.3C146.7,252.7,148.1,249.1,149.4,249.1 M144.4,256.3c0,1.4,1,2.7,2.1,2.7
				c2,0,3.3-1.8,3.3-2c0-0.1,0-0.2-0.2-0.2c-0.2,0-0.8,1.8-2.9,1.8c-0.6,0-1-0.7-1-1.3c0-0.4,0.1-1,0.3-1.7c4.3-0.4,4.9-3.8,4.9-4.7
				c0-2-1.2-2.1-1.6-2.1C146.3,248.8,144.4,253.6,144.4,256.3 M120.7,254.6c0-1,1-5.5,2.9-5.5c0.5,0,0.9,0.3,0.9,0.9
				c0,0.5-0.9,5.6-2.7,5.6C121.2,255.6,120.7,255.3,120.7,254.6 M124.7,249.2c-0.4-0.2-0.8-0.4-1.1-0.4c-2.2,0-4,2.4-4,4.5
				c0,0.8,0.2,1.4,0.7,1.9c-0.4,0.5-0.5,1.2-0.5,1.5c0,1.2,0.7,2.2,1.9,2.2h1.9c0.3,0,0.6,0.2,0.6,0.9c0,2.5-2,4-3.7,4
				c-1.1,0-2.1-0.7-2.1-2.1c0-0.3,0.2-0.8,0.3-0.8c0,0,0.1,0,0.1,0.1c0,0.3,0.1,0.9,0.5,0.9c0.4,0,0.7-0.4,0.7-0.9
				c0-0.4-0.2-0.8-0.7-0.8c-0.5,0-1.1,0.5-1.1,1.6c0,1.7,1.1,2.4,2.4,2.4c2.2,0,5-2,5-5.1c0-1.3-0.9-1.9-2-1.9
				c-0.7,0-1.5,0.3-2.3,0.3c-0.7,0-1.3-0.4-1.3-1.2c0-0.3,0.1-0.7,0.3-1.1c0.4,0.4,1,0.5,1.6,0.5c2.4,0,3.8-2.6,3.8-4.9
				c0-0.6-0.4-1.2-0.8-1.6c0.3-0.3,0.7-0.5,1.2-0.5c-0.3,0.2-0.5,0.7-0.5,1c0,0.5,0.2,0.6,0.5,0.6c0.5,0,0.9-0.6,0.9-1.1
				c0-0.5-0.4-0.7-0.8-0.7C125.7,248.6,125,248.9,124.7,249.2 M188.4,248.9c-0.4,1-0.8,2.3-1.2,3.6c-1.4,2.6-3.1,6.3-4.4,6.3
				c-0.4,0-0.4-0.3-0.4-0.5c0-0.6,2.8-7,2.8-8.2c0-0.9-1.2-0.9-1.8-0.9c-1,0-1.1,0-1.1,0.2c0,0.4,1.1-0.1,1.1,0.7
				c0,0.8-2.2,6-2.2,7.3c0,1,0.6,1.8,1.5,1.8c1.3,0,2.7-2.3,4-4.7h0.1c-0.9,2.8-1.8,6-2.7,8.1c-0.7,1.7-2.4,2-3.4,2
				c-0.1,0-0.1,0-0.1,0.1c0,0.1,0,0.1,0.1,0.1h0.3c3.2,0,4.3-2.2,5.5-4.7c0.5-1.2,3.2-9.3,3.2-9.6v-0.3c-0.2-0.3-0.5-1.3-0.9-1.3
				C188.4,248.6,188.4,248.8,188.4,248.9 M243.4,254.6c0-1,1-5.5,2.9-5.5c0.5,0,0.9,0.3,0.9,0.9c0,0.5-0.9,5.6-2.7,5.6
				C243.9,255.6,243.4,255.3,243.4,254.6 M247.3,249.2c-0.4-0.2-0.8-0.4-1.1-0.4c-2.2,0-4,2.4-4,4.5c0,0.8,0.2,1.4,0.7,1.9
				c-0.4,0.5-0.5,1.2-0.5,1.5c0,1.2,0.7,2.2,1.9,2.2h1.9c0.3,0,0.6,0.2,0.6,0.9c0,2.5-2,4-3.7,4c-1.1,0-2.1-0.7-2.1-2.1
				c0-0.3,0.2-0.8,0.3-0.8c0,0,0.1,0,0.1,0.1c0,0.3,0.1,0.9,0.5,0.9c0.4,0,0.7-0.4,0.7-0.9c0-0.4-0.2-0.8-0.7-0.8
				c-0.5,0-1.1,0.5-1.1,1.6c0,1.7,1.1,2.4,2.4,2.4c2.2,0,5-2,5-5.1c0-1.3-0.9-1.9-2-1.9c-0.7,0-1.5,0.3-2.3,0.3
				c-0.7,0-1.3-0.4-1.3-1.2c0-0.3,0.1-0.7,0.3-1.1c0.4,0.4,1,0.5,1.6,0.5c2.4,0,3.8-2.6,3.8-4.9c0-0.6-0.4-1.2-0.8-1.6
				c0.3-0.3,0.7-0.5,1.2-0.5c-0.3,0.2-0.5,0.7-0.5,1c0,0.5,0.2,0.6,0.5,0.6c0.5,0,0.9-0.6,0.9-1.1c0-0.5-0.4-0.7-0.8-0.7
				C248.4,248.6,247.6,248.9,247.3,249.2 M264,254.6c0-1,1-5.5,2.9-5.5c0.5,0,0.9,0.3,0.9,0.9c0,0.5-0.9,5.6-2.7,5.6
				C264.5,255.6,264,255.3,264,254.6 M267.9,249.2c-0.4-0.2-0.8-0.4-1.1-0.4c-2.2,0-4,2.4-4,4.5c0,0.8,0.2,1.4,0.7,1.9
				c-0.4,0.5-0.5,1.2-0.5,1.5c0,1.2,0.7,2.2,1.9,2.2h1.9c0.3,0,0.6,0.2,0.6,0.9c0,2.5-2,4-3.7,4c-1.1,0-2.1-0.7-2.1-2.1
				c0-0.3,0.2-0.8,0.3-0.8c0,0,0.1,0,0.1,0.1c0,0.3,0.1,0.9,0.5,0.9c0.4,0,0.7-0.4,0.7-0.9c0-0.4-0.2-0.8-0.7-0.8
				c-0.5,0-1.1,0.5-1.1,1.6c0,1.7,1.1,2.4,2.4,2.4c2.2,0,5-2,5-5.1c0-1.3-0.9-1.9-2-1.9c-0.7,0-1.5,0.3-2.3,0.3
				c-0.7,0-1.3-0.4-1.3-1.2c0-0.3,0.1-0.7,0.3-1.1c0.4,0.4,1,0.5,1.6,0.5c2.4,0,3.8-2.6,3.8-4.9c0-0.6-0.4-1.2-0.8-1.6
				c0.3-0.3,0.7-0.5,1.2-0.5c-0.3,0.2-0.5,0.7-0.5,1c0,0.5,0.2,0.6,0.5,0.6c0.5,0,0.9-0.6,0.9-1.1c0-0.5-0.4-0.7-0.8-0.7
				C269,248.6,268.2,248.9,267.9,249.2 M109.8,246.1c0,0.5,0.3,0.8,0.7,0.8c0.7,0,1.3-1.5,1.3-2.2c0-0.4-0.3-0.8-0.6-0.8
				C110.2,243.9,109.8,245.3,109.8,246.1 M232.5,246.1c0,0.5,0.3,0.8,0.7,0.8c0.7,0,1.3-1.5,1.3-2.2c0-0.4-0.3-0.8-0.6-0.8
				C232.9,243.9,232.5,245.3,232.5,246.1 M253,246.1c0,0.5,0.3,0.8,0.7,0.8c0.7,0,1.3-1.5,1.3-2.2c0-0.4-0.3-0.8-0.6-0.8
				C253.5,243.9,253,245.3,253,246.1 M103.5,249h-1.3c-0.3,0-0.4,0.1-0.4,0.3c0,0.1,0.1,0.2,0.4,0.2h1.2c-1.1,3.5-2.3,6.8-2.3,7.8
				c0,0.9,0.5,1.7,1.4,1.7c1.5,0,2.4-1.8,3.2-3.1c0.1-0.1,0.1-0.2,0.1-0.3c0-0.1-0.1-0.1-0.1-0.1c-0.2,0-1.5,3.1-2.6,3.1
				c-0.2,0-0.5,0-0.5-0.7c0-0.5,1.5-5.2,2.7-8.4h1.3c0.3,0,0.4-0.1,0.4-0.2c0-0.2-0.1-0.3-0.4-0.3h-1.1c0.5-1.3,0.9-2.1,1.2-2.2
				l0-0.4c-0.3-0.6-0.6-2.1-0.7-3.7c-0.1,0-0.3,0-0.4,0C105,244.4,104.3,246.7,103.5,249 M133.4,249h-1.3c-0.3,0-0.4,0.1-0.4,0.3
				c0,0.1,0.1,0.2,0.4,0.2h1.2c-1.1,3.5-2.3,6.8-2.3,7.8c0,0.9,0.5,1.7,1.4,1.7c1.5,0,2.4-1.8,3.2-3.1c0.1-0.1,0.1-0.2,0.1-0.3
				c0-0.1-0.1-0.1-0.1-0.1c-0.2,0-1.5,3.1-2.6,3.1c-0.2,0-0.5,0-0.5-0.7c0-0.5,1.4-5.2,2.7-8.4h1.3c0.3,0,0.4-0.1,0.4-0.2
				c0-0.2-0.1-0.3-0.4-0.3h-1.1c0.5-1.3,0.9-2.1,1.2-2.2l0-0.4c-0.3-0.6-0.6-2.1-0.7-3.7c-0.1,0-0.3,0-0.4,0
				C134.9,244.4,134.2,246.7,133.4,249 M79.4,257.7c0-1.3,3.6-8.1,4.8-8.1c0.4,0,0.5,0.2,0.5,0.7c0,0.5-1.8,8.4-4.4,8.4
				C80.1,258.6,79.4,258.4,79.4,257.7 M78,257.2c0,1.3,0.7,1.8,2.1,1.8c3.5,0,5.9-5,5.9-7.5c0-1.9-0.5-2.6-1.3-2.6
				c-1.2,0-2.9,2.5-4.4,5.7c1.3-3.8,3.5-9.9,4-9.9l0-0.3c-0.4-1.2-0.5-2.8-0.5-4c-0.1,0-0.3,0-0.4,0C82.3,245.2,78,255.5,78,257.2
				 M203.1,249h-1c-0.3,0-0.4,0.1-0.4,0.3c0,0.1,0.1,0.2,0.4,0.2h0.9c-2.7,8.7-3.4,10.1-3.4,11.4c0,1.1,0.1,3,0.4,3
				c0.3,0,0.5-1.3,0.5-1.7c0-0.8,1.5-4.3,3.1-9.4c0.3-1,0.6-2.1,0.9-3.2h1.5c0.3,0,0.4-0.1,0.4-0.2c0-0.2-0.1-0.3-0.4-0.3h-1.4
				c0.6-2.1,1.2-4,2-4.2l0-0.3c-0.4-1.2-0.5-2.8-0.5-4c-0.1,0-0.3,0-0.5,0C205.2,242.7,204.2,245.7,203.1,249 M66.3,257.4
				c0,0.9,0.5,1.7,1.4,1.7c1.5,0,2.4-1.8,3.2-3.1c0.1-0.1,0.1-0.2,0.1-0.3c0-0.1-0.1-0.1-0.1-0.1c-0.2,0-1.6,3.1-2.8,3.1
				c-0.2,0-0.4-0.1-0.4-0.6c0-0.7,4.2-13.2,4.9-13.2l0-0.3c-0.4-1.2-0.5-2.8-0.5-4c-0.1,0-0.3,0-0.4,0
				C70.6,245.2,66.3,255.6,66.3,257.4 M136.3,255.6c-0.2,0.6-0.2,0.8-0.2,1.4c0,0.7,0.4,2,0.6,2c0.3,0,0.3-0.7,0.4-1
				c0.7-1.5,3.8-8.6,5.1-8.6c0.5,0,0.6,0.3,0.6,0.5c0,0.9-3.5,8.8-3.5,10.4c0,0.6,0.2,2.3,0.7,3.2c0.1,0.2,0.2,0.3,0.3,0.3
				c0,0,0.1,0,0.1-0.2c0-0.2-0.1-0.3-0.1-1.7c0-1.9,3.8-9.3,3.8-11.1c0-1-0.6-1.8-1.7-1.8c-1.7,0-3.6,4.8-4.2,5.7h-0.1
				c1.3-3.9,3.4-10,3.9-10l0-0.3c-0.4-1.2-0.5-2.8-0.5-4c-0.1,0-0.3,0-0.4,0C140.4,244.2,137.5,251.9,136.3,255.6 M47.2,252.9
				c0.1-3.5,1.2-6.9,3.1-9.3c3.2,0.8,6.2,2.6,8.5,4.8c-2.5,2.8-7,4.6-10.1,4.6C48.3,252.9,47.7,252.9,47.2,252.9 M41.1,247.9
				c0-3.4,3.3-4.7,6.2-4.7c0.8,0,1.6,0.1,2.5,0.3c-2.2,2.6-3.9,6-4.3,9.2C43.1,252.1,41.1,250.8,41.1,247.9 M50.6,243.2
				c1.6-1.9,3.6-3.1,5.8-3.1c2.4,0,4.2,1.5,4.2,4.1c0,1.4-0.6,2.7-1.5,3.8C56.9,246,53.8,244.1,50.6,243.2 M50.1,243
				c-1-0.3-2-0.4-3-0.4c-3,0-6.4,1.7-6.4,5.3c0,2.9,2.3,4.4,4.7,5c0,0.3,0,0.7,0,1c0,4.1,2.4,6.8,5.7,6.8c3.8,0,7.3-4.4,7.3-4.9
				c0,0,0-0.2-0.2-0.2c-0.6,0-1.6,3.4-5.8,3.4c-3.8,0-5.1-2.4-5.1-5.7c0.4,0,0.9,0.1,1.3,0.1c3.9,0,8.1-2,10.7-4.7
				c0,0,0.1,0.1,0.1,0.1c0.3,0.3,0.4,0.6,0.8,0.6c0.1,0,0.2-0.1,0.2-0.2c0,0,0-0.1,0-0.1l-0.7-0.7c1.4-1.5,2.3-3.2,2.3-4.8
				c0-2.8-1.6-4.6-4.3-4.6C55,238.9,52.3,240.6,50.1,243 M160.7,257.7c0-1.6,2-4.2,5.3-4.2c0.2,0,0.4,0,0.6,0.1
				c-0.2,1.8-2,5.6-4.2,5.6C161.6,259.2,160.7,258.8,160.7,257.7 M168.4,241.2c0,0.3,0,1.2,0.4,1.2c0.1,0,0.3-0.1,0.3-0.3
				c0-0.2,0-0.4-0.2-0.7c0-1.9,1.1-2.2,1.7-2.2c1.5,0,1.8,2.2,1.8,3.5c0,1.2-0.2,3.5-0.7,6.3h-2c-0.3,0-0.4,0.1-0.4,0.3
				c0,0.2,0.1,0.3,0.4,0.3h1.9c-1.3,6.5-4.2,14.6-10.1,14.6c-3.8,0-5.7-2.8-5.7-6.8c0-4.7,3.5-8.3,7.4-8.3c1.6,0,3.5,0.8,3.6,3.9
				c-0.2,0-0.4-0.1-0.7-0.1c-3.2,0-5.8,2.3-5.8,4.6c0,1.5,0.9,2,2.1,2c2.9,0,4.7-4.3,4.8-5.9c0.6,0.2,1,0.6,1.2,0.6
				c0.1,0,0.1-0.1,0.1-0.2c0-0.2-0.5-0.7-1.3-1c0-3.9-2.4-4.6-4.3-4.6c-4.4,0-7.6,4.3-7.6,9c0,4.4,2.4,7,6.5,7
				c6.4,0,10.6-7.9,11.9-15.1h1.4c0.3,0,0.4-0.1,0.4-0.3c0-0.2-0.1-0.3-0.4-0.3h-1.2c0.2-1.4,0.4-2.8,0.4-4.2c0-1.8-1.3-6.2-3.4-6.2
				C169.2,238.6,168.4,239.6,168.4,241.2 M211.5,256.3c0.9-3.6,4.3-6.3,7.3-6.3c1.6,0,3.3,1,3.3,2.9c0,3.1-4,4.7-6.3,4.7
				C214,257.6,212.5,257.1,211.5,256.3 M219.2,243.5c0,4.6,7.1,3.4,7.1,8.9c0,5.7-4.6,10.4-9.3,10.4c-3.5,0-5.6-2.3-5.6-4.8
				c0-0.4,0-0.9,0.1-1.3c1.1,0.8,2.6,1.3,4.5,1.3c2.7,0,6.5-1.8,6.5-5.1c0-2.3-1.6-3.4-3.7-3.4c-3.2,0-6.6,2.8-7.6,6.5
				c-0.9-0.9-1.5-2-1.5-3.3c0-2.4,1.8-3.5,3.7-3.5h0.3c0.3,0,0.5,0,0.5-0.2c0-0.2-0.8-0.2-0.8-0.2c-1,0-4,0.3-4,4.1
				c0,1.4,0.5,2.7,1.6,3.7c-0.1,0.5-0.2,1.1-0.2,1.6c0,3.3,2.9,5.1,6.3,5.1c4.9,0,10.8-6.1,10.8-11.7c0-6.4-7.7-5.3-7.7-9.1
				c0-2.7,2.4-4.1,4.6-4.1c1.5,0,2.9,0.7,3.3,2.1c-0.9,0.1-2.1,0.5-2.1,1.7c0,0.6,0.4,0.9,0.9,0.9c1,0,1.7-1.1,1.7-2
				c0-2.2-1.6-3.2-3.6-3.2C222.4,237.9,219.2,239.9,219.2,243.5"/>
    </defs>
    <clipPath id="SVGID_11_">
        <use overflow="visible" xlink:href="#SVGID_10_"/>
    </clipPath>
    <linearGradient id="SVGID_12_" x1="0.9823" x2="1.6016" y1="289.0507" y2="289.0507" gradientTransform="matrix(370.8 0 0 -370.8 -323.5102 107431.2969)" gradientUnits="userSpaceOnUse">
        <stop offset="0" style="stop-color:#CA950F"/>
        <stop offset="6.049234e-02" style="stop-color:#D8AA30"/>
        <stop offset="0.1307" style="stop-color:#E5BE4D"/>
        <stop offset="0.2111" style="stop-color:#EFCF66"/>
        <stop offset="0.3044" style="stop-color:#F7DE78"/>
        <stop offset="0.4192" style="stop-color:#FEE885"/>
        <stop offset="0.5783" style="stop-color:#FFF18D"/>
        <stop offset="1" style="stop-color:#FFF390"/>
    </linearGradient>
    <rect width="229.7" height="26.9" x="40.7" y="237.9" fill="url(#SVGID_12_)" clip-path="url(#SVGID_11_)"/>
</svg>
