<?xml version="1.0" encoding="utf-8"?>
<svg xmlns="http://www.w3.org/2000/svg" version="1.1" viewBox="10 31 235 77">
    <polygon fill="#fff" points="10.8,78.9 10.9,78.6 11.7,79.2 12.4,79.9 13.3,80.5 14.2,81.1 15,81.6 16.1,82.1 17.4,82.6
			18.6,82.9 19.9,83 21.6,83.1 22.8,83.1 23.9,83 25.2,82.8 27,82.4 28.8,81.9 30.2,81.4 32,80.8 33.7,80.1 35.2,79.4 36.4,78.7
			37.8,77.9 39.1,76.9 40.3,75.9 41.4,75 42.6,73.9 43.7,72.9 45.6,71.2 47,69.8 48.3,68.5 49.5,67.3 51,66 52.3,64.7 53.6,63.6
			54.9,62.2 56.4,60.9 58,59.3 59.5,57.8 60.9,56.5 62.3,55.2 63.6,54 64.8,52.8 66,51.6 67.4,50.2 68.8,49 69.7,48.2 71,47.1
			72.3,46 73.1,45.2 74.1,44.4 75.2,43.5 76.4,42.5 77.5,41.7 78.5,40.9 79.5,40.2 80.5,39.4 82.1,38.3 83.7,37.3 85.3,36.3
			86.6,35.5 87.8,35 88.8,34.6 89.7,34.2 90.8,33.8 92.2,33.3 93.5,33 94.3,32.9 95.8,32.6 97.6,32.4 99.2,32.3 100.4,32.3
			102,32.4 103.3,32.5 104.6,32.6 105.9,32.9 107.1,33.2 108.1,33.5 109.3,34 110.2,34.4 111.1,35.1 111.8,35.9 112.4,36.7
			112.7,37.4 113,38.5 113.1,39.5 113.1,40.5 113,41.5 112.8,42.5 112.4,43.5 111.8,44.5 111.1,45.2 110.1,45.9 109.2,46.5
			107.8,47.1 106.5,47.4 105.1,47.5 103.7,47.4 102.4,47.3 101.2,46.9 99.9,46.4 98.9,45.8 98,44.8 97.4,43.8 96.9,42.7 96.6,41.6
			96.5,40.6 96.6,39.5 96.8,38.5 97.1,38 97.5,37.5 97.9,37.1 98.3,36.8 97.9,36.7 97.1,36.7 96.5,36.9 95.8,37.2 94.7,37.8
			93.5,38.7 92.4,39.5 91.1,40.6 90.1,41.4 88.9,42.5 88,43.3 86.8,44.5 85.4,46.1 82.7,49.2 81.6,50.3 80.4,51.5 79.8,52.2
			78.8,53.2 77.5,54.6 76.3,55.8 75.3,56.8 74.2,58 73.4,58.7 72.5,59.8 71.2,61.1 70,62.2 68.8,63.5 67.6,64.8 66.4,66 65.5,66.9
			64.1,68.2 63.3,68.9 62.2,69.8 61.2,70.8 60,71.9 58.7,73 57.5,73.9 56.5,74.7 55.2,75.7 53.8,76.9 52.6,77.7 51.5,78.5
			50.1,79.5 48.6,80.5 46.7,81.6 45.2,82.3 43.8,83 42.5,83.5 40.4,84.2 38.7,84.7 36.7,85.2 34.9,85.5 32.4,85.9 30,86.1 28,86.2
			25.6,86.1 23.9,86 22.1,85.8 20.6,85.5 19,85.1 17.7,84.7 16.7,84.3 15.7,84 14.8,83.5 14,83 13.1,82.4 12.4,81.7 11.7,80.8
			11.1,79.9 10.8,79.4 		"/>
    <polygon fill="#fff" points="84.9,80.5 86,81.2 86.9,81.7 87.8,82.1 88.6,82.4 89.5,82.6 90.6,82.7 91.6,82.7 93,82.6
			93.7,82.4 94.4,82.2 95.2,81.8 95.9,81.3 96.2,80.8 96.5,80.3 95.6,80.5 94.7,80.5 94,80.6 92.8,80.5 92,80.3 91.1,80 90.3,79.6
			89.6,79.2 88.9,78.6 88.5,78.2 88.2,77.7 87.8,77 87.7,76.4 87.6,75.5 87.6,74.6 87.7,73.3 88.1,72.2 88.5,71.5 88.8,70.8
			89.4,70.1 90,69.6 90.8,68.9 91.5,68.6 92.2,68.3 93.2,68 94.2,67.8 95.4,67.6 96.2,67.5 96.9,67.5 97.5,67.6 98.5,67.8 99.7,68
			100.7,68.4 101.6,68.8 102.6,69.6 103.1,70.2 103.5,70.8 103.9,71.7 104.1,72.6 104.3,73.5 104.4,74.2 104.4,75 104.2,75.9
			104.1,76.6 103.7,78.1 103.3,78.9 102.9,79.7 102.3,80.5 101.7,81.3 100.9,82.1 100.3,82.7 99.2,83.6 98.3,84.2 97.3,84.8
			96.3,85.3 95.2,85.7 94,86 92.6,86.4 91.1,86.6 89.5,86.8 88,86.8 86.4,86.8 84.8,86.6 83.3,86.3 81.2,85.6 79.8,85 78.5,84.3
			77.3,83.5 76.2,82.6 75.5,82 74.8,81.4 74.2,80.8 73.5,80 73,79.3 72.6,78.7 72.1,78 71.8,77.3 71.4,76.3 71,75.2 70.8,73.8
			70.5,72.6 70.5,71.3 70.5,70 70.5,68.8 70.7,67.6 71.1,66 71.3,65 71.8,63.9 72.2,63 72.9,61.9 73.5,60.7 74.4,59.6 75.3,58.5
			76.3,57.4 77.4,56.3 78.4,55.4 79.6,54.6 80.7,53.9 82.1,53.1 83.4,52.6 84.6,52 85.8,51.6 87.1,51.2 88.4,50.8 89.7,50.6
			90.9,50.4 92.4,50.3 93.8,50.2 95.1,50.2 96.2,50.3 97.5,50.3 98.7,50.5 99.9,50.6 101.6,51 102.8,51.3 103.8,51.8 104.2,52.2
			104.2,52.4 103.6,52.4 103,52.2 102.4,52.1 101.3,52 99.4,51.9 98.3,51.9 97.2,52 95.7,52.1 94.6,52.3 93.4,52.6 92.4,52.9
			91.3,53.3 90.3,53.7 89.3,54.3 88.3,54.9 87.4,55.5 86.6,56.2 85.7,57 85,57.8 84.2,58.8 83.5,59.9 83,60.6 82.4,61.9 81.9,62.8
			81.5,63.9 81.1,65.1 80.8,66.2 80.7,68 80.6,69.2 80.7,70.2 80.8,71.7 80.9,72.8 81.1,73.9 81.4,75.1 81.9,76.5 82.3,77.4
			82.9,78.4 83.5,79 84.2,79.7 		"/>
    <path fill="#fff" d="M117.7,54.7c0.5,0.8,1.2,1.4,2.1,1.8c0.8,0.4,1.7,0.6,2.6,0.6c0.5,0,1-0.1,1.5-0.2c0.5-0.2,1-0.4,1.4-0.7
			s0.8-0.7,1-1.2c0.3-0.5,0.4-1,0.4-1.6c0-0.9-0.3-1.5-0.8-1.9c-0.5-0.4-1.2-0.8-2-1.1c-0.8-0.3-1.7-0.6-2.6-0.9s-1.8-0.7-2.6-1.2
			c-0.8-0.5-1.5-1.2-2-2s-0.8-2-0.8-3.4c0-0.6,0.1-1.3,0.4-2.1c0.3-0.7,0.7-1.4,1.3-2c0.6-0.6,1.4-1.1,2.3-1.5
			c0.9-0.4,2.1-0.6,3.4-0.6c1.2,0,2.4,0.2,3.5,0.5c1.1,0.3,2.1,1,2.9,2l-2.4,2.2c-0.4-0.6-0.9-1-1.6-1.4c-0.7-0.4-1.5-0.5-2.3-0.5
			c-0.8,0-1.5,0.1-2.1,0.3c-0.6,0.2-1,0.5-1.3,0.8c-0.3,0.3-0.6,0.7-0.7,1.1c-0.1,0.4-0.2,0.8-0.2,1.1c0,0.9,0.3,1.7,0.8,2.2
			c0.5,0.5,1.2,0.9,2,1.2c0.8,0.3,1.7,0.6,2.6,0.8c0.9,0.3,1.8,0.6,2.6,1c0.8,0.4,1.5,1.1,2,1.8c0.5,0.8,0.8,1.8,0.8,3.1
			c0,1.1-0.2,2-0.6,2.9c-0.4,0.9-1,1.6-1.6,2.2c-0.7,0.6-1.5,1-2.4,1.3c-0.9,0.3-1.9,0.5-3,0.5c-1.4,0-2.8-0.3-4-0.7
			c-1.3-0.5-2.3-1.3-3-2.3L117.7,54.7z"/>
    <path fill="#fff" d="M142.5,48.4c-0.5-0.5-1.1-1-1.6-1.2c-0.6-0.3-1.3-0.4-2-0.4c-0.8,0-1.4,0.1-2,0.4
			c-0.6,0.3-1.1,0.7-1.4,1.2c-0.4,0.5-0.7,1-0.9,1.7c-0.2,0.6-0.3,1.3-0.3,2c0,0.7,0.1,1.3,0.3,1.9c0.2,0.6,0.6,1.1,1,1.6
			c0.4,0.5,0.9,0.8,1.5,1.1c0.6,0.3,1.2,0.4,2,0.4c0.8,0,1.5-0.1,2-0.4c0.6-0.3,1.1-0.7,1.6-1.2l2,2c-0.7,0.8-1.6,1.4-2.5,1.7
			c-1,0.4-2,0.5-3.1,0.5c-1.1,0-2.2-0.2-3.1-0.6c-0.9-0.4-1.8-0.9-2.4-1.6c-0.7-0.7-1.2-1.5-1.6-2.4c-0.4-0.9-0.6-2-0.6-3.1
			s0.2-2.2,0.6-3.1c0.4-1,0.9-1.8,1.6-2.5c0.7-0.7,1.5-1.2,2.4-1.6c0.9-0.4,2-0.6,3.2-0.6c1.1,0,2.1,0.2,3.1,0.6
			c1,0.4,1.8,1,2.6,1.8L142.5,48.4z"/>
    <path fill="#fff" d="M146.2,35.7h2.8v11.1h0.1c0.4-0.8,1-1.4,1.8-1.9c0.9-0.5,1.9-0.7,3-0.7c0.7,0,1.4,0.1,2,0.3
			c0.7,0.2,1.2,0.6,1.7,1c0.5,0.5,0.9,1,1.2,1.8c0.3,0.7,0.4,1.6,0.4,2.5v9.5h-2.8v-8.7c0-0.7-0.1-1.3-0.3-1.8
			c-0.2-0.5-0.4-0.9-0.7-1.2c-0.3-0.3-0.7-0.5-1.1-0.7c-0.4-0.1-0.8-0.2-1.3-0.2c-0.6,0-1.1,0.1-1.6,0.3c-0.5,0.2-0.9,0.5-1.3,0.9
			c-0.4,0.4-0.7,0.9-0.9,1.5c-0.2,0.6-0.3,1.4-0.3,2.2v7.6h-2.8V35.7z"/>
    <path fill="#fff" d="M161.1,51.9c0-1.1,0.2-2.1,0.6-3c0.4-0.9,1-1.8,1.7-2.5c0.7-0.7,1.5-1.3,2.5-1.7c1-0.4,2-0.6,3.1-0.6
			c1.1,0,2.1,0.2,3.1,0.6c1,0.4,1.8,1,2.5,1.7c0.7,0.7,1.3,1.5,1.7,2.5c0.4,0.9,0.6,1.9,0.6,3s-0.2,2.1-0.6,3
			c-0.4,0.9-1,1.8-1.7,2.5c-0.7,0.7-1.5,1.2-2.5,1.7c-1,0.4-2,0.6-3.1,0.6c-1.1,0-2.1-0.2-3.1-0.6c-1-0.4-1.8-1-2.5-1.7
			c-0.7-0.7-1.3-1.5-1.7-2.5C161.3,54,161.1,53,161.1,51.9z M164.1,51.9c0,0.7,0.1,1.4,0.3,2.1c0.2,0.6,0.6,1.2,1,1.6
			c0.4,0.4,0.9,0.8,1.5,1.1c0.6,0.3,1.3,0.4,2,0.4c0.7,0,1.4-0.1,2-0.4c0.6-0.3,1.1-0.6,1.5-1.1c0.4-0.4,0.7-1,1-1.6
			c0.2-0.6,0.3-1.3,0.3-2.1c0-0.7-0.1-1.4-0.3-2.1c-0.2-0.6-0.6-1.2-1-1.6c-0.4-0.4-0.9-0.8-1.5-1.1c-0.6-0.3-1.3-0.4-2-0.4
			c-0.7,0-1.4,0.1-2,0.4c-0.6,0.3-1.1,0.6-1.5,1.1c-0.4,0.4-0.7,1-1,1.6C164.2,50.4,164.1,51.1,164.1,51.9z"/>
    <path fill="#fff" d="M179.8,35.7h2.8v23.6h-2.8V35.7z"/>
    <path fill="#fff" d="M186.4,46.3c0.8-0.7,1.7-1.3,2.7-1.6c1-0.4,2.1-0.5,3.1-0.5c1.1,0,2,0.1,2.8,0.4c0.8,0.3,1.4,0.6,1.9,1.1
			c0.5,0.5,0.9,1,1.1,1.6c0.2,0.6,0.4,1.2,0.4,1.9v7.5c0,0.5,0,1,0,1.4c0,0.4,0.1,0.9,0.1,1.2h-2.5c-0.1-0.7-0.1-1.5-0.1-2.2h-0.1
			c-0.6,1-1.4,1.6-2.2,2c-0.9,0.4-1.8,0.6-3,0.6c-0.7,0-1.3-0.1-2-0.3c-0.6-0.2-1.2-0.5-1.6-0.8c-0.5-0.4-0.8-0.8-1.1-1.4
			c-0.3-0.6-0.4-1.2-0.4-1.9c0-1,0.2-1.8,0.6-2.4c0.4-0.6,1-1.2,1.7-1.6s1.6-0.7,2.6-0.9c1-0.2,2-0.3,3.2-0.3h2.1v-0.6
			c0-0.4-0.1-0.7-0.2-1.1c-0.1-0.4-0.4-0.7-0.7-1c-0.3-0.3-0.7-0.5-1.1-0.7c-0.4-0.2-1-0.3-1.6-0.3c-0.5,0-1,0.1-1.4,0.2
			c-0.4,0.1-0.8,0.2-1.1,0.4c-0.3,0.2-0.6,0.3-0.9,0.5s-0.5,0.4-0.8,0.6L186.4,46.3z M194.3,52.2c-0.7,0-1.3,0-2,0.1
			c-0.7,0.1-1.3,0.2-1.9,0.4c-0.6,0.2-1,0.5-1.4,0.9c-0.4,0.4-0.5,0.9-0.5,1.4c0,0.9,0.3,1.5,0.9,1.8c0.6,0.4,1.3,0.6,2.3,0.6
			c0.8,0,1.4-0.1,2-0.4c0.5-0.3,1-0.6,1.3-1c0.3-0.4,0.6-0.9,0.7-1.4c0.1-0.5,0.2-1,0.2-1.5v-0.9H194.3z"/>
    <path fill="#fff" d="M132.4,67.5c-0.6-0.8-1.4-1.4-2.4-1.9c-1-0.4-1.9-0.7-3-0.7c-1.2,0-2.4,0.2-3.4,0.7
			c-1,0.5-1.9,1.1-2.6,1.9c-0.7,0.8-1.3,1.8-1.7,2.9c-0.4,1.1-0.6,2.3-0.6,3.5c0,1.2,0.2,2.3,0.6,3.3c0.4,1,0.9,2,1.6,2.7
			c0.7,0.8,1.6,1.4,2.6,1.9c1,0.5,2.2,0.7,3.5,0.7c1.3,0,2.4-0.3,3.3-0.8c1-0.5,1.8-1.2,2.4-2.2l2.5,1.9c-0.2,0.2-0.5,0.6-0.9,1
			c-0.4,0.4-1,0.9-1.7,1.3c-0.7,0.4-1.5,0.8-2.5,1.1c-1,0.3-2.1,0.5-3.4,0.5c-1.7,0-3.3-0.3-4.7-1c-1.4-0.7-2.6-1.5-3.6-2.6
			c-1-1.1-1.7-2.3-2.3-3.7c-0.5-1.4-0.8-2.7-0.8-4.1c0-1.7,0.3-3.3,0.8-4.7c0.6-1.4,1.3-2.7,2.4-3.7c1-1,2.2-1.9,3.6-2.4
			c1.4-0.6,3-0.9,4.7-0.9c1.5,0,2.9,0.3,4.3,0.8c1.4,0.6,2.6,1.4,3.4,2.6L132.4,67.5z"/>
    <path fill="#fff" d="M136.6,71.8c0.8-0.7,1.7-1.3,2.7-1.6c1-0.4,2.1-0.5,3.1-0.5c1.1,0,2,0.1,2.8,0.4c0.8,0.3,1.4,0.6,1.9,1.1
			c0.5,0.5,0.9,1,1.1,1.6c0.2,0.6,0.4,1.2,0.4,1.9v7.5c0,0.5,0,1,0,1.4c0,0.4,0.1,0.9,0.1,1.2h-2.5c-0.1-0.7-0.1-1.5-0.1-2.2h-0.1
			c-0.6,1-1.4,1.6-2.2,2c-0.9,0.4-1.8,0.6-3,0.6c-0.7,0-1.3-0.1-2-0.3c-0.6-0.2-1.2-0.5-1.6-0.8c-0.5-0.4-0.8-0.8-1.1-1.4
			s-0.4-1.2-0.4-1.9c0-1,0.2-1.8,0.6-2.4c0.4-0.6,1-1.2,1.7-1.6c0.7-0.4,1.6-0.7,2.6-0.9c1-0.2,2-0.3,3.2-0.3h2.1V75
			c0-0.4-0.1-0.7-0.2-1.1c-0.1-0.4-0.4-0.7-0.7-1c-0.3-0.3-0.7-0.5-1.1-0.7c-0.4-0.2-1-0.3-1.6-0.3c-0.5,0-1,0.1-1.4,0.2
			c-0.4,0.1-0.8,0.2-1.1,0.4c-0.3,0.2-0.6,0.3-0.9,0.5c-0.3,0.2-0.5,0.4-0.8,0.6L136.6,71.8z M144.5,77.7c-0.7,0-1.3,0-2,0.1
			c-0.7,0.1-1.3,0.2-1.9,0.4c-0.6,0.2-1,0.5-1.4,0.9c-0.4,0.4-0.5,0.9-0.5,1.4c0,0.9,0.3,1.5,0.9,1.8c0.6,0.4,1.3,0.6,2.3,0.6
			c0.8,0,1.4-0.1,2-0.4c0.5-0.3,1-0.6,1.3-1c0.3-0.4,0.6-0.9,0.7-1.4c0.1-0.5,0.2-1,0.2-1.5v-0.9H144.5z"/>
    <path fill="#fff" d="M151,70h2.8v2.3h0.1c0.4-0.8,1-1.4,1.8-1.9c0.9-0.5,1.9-0.7,3-0.7c0.7,0,1.4,0.1,2,0.3
			c0.7,0.2,1.2,0.6,1.7,1c0.5,0.5,0.9,1,1.2,1.8c0.3,0.7,0.4,1.6,0.4,2.5v9.5h-2.8v-8.7c0-0.7-0.1-1.3-0.3-1.8
			c-0.2-0.5-0.4-0.9-0.7-1.2c-0.3-0.3-0.7-0.5-1.1-0.7c-0.4-0.1-0.8-0.2-1.3-0.2c-0.6,0-1.1,0.1-1.6,0.3c-0.5,0.2-0.9,0.5-1.3,0.9
			c-0.4,0.4-0.7,0.9-0.9,1.5c-0.2,0.6-0.3,1.4-0.3,2.2v7.6H151V70z"/>
    <path fill="#fff" d="M175.5,72.4h-4v6.7c0,0.4,0,0.8,0,1.2c0,0.4,0.1,0.8,0.2,1.1c0.1,0.3,0.3,0.6,0.6,0.8
			c0.3,0.2,0.7,0.3,1.2,0.3c0.3,0,0.7,0,1-0.1c0.4-0.1,0.7-0.2,1-0.3v2.6c-0.3,0.2-0.8,0.3-1.3,0.4c-0.5,0.1-0.9,0.1-1.2,0.1
			c-1.1,0-1.9-0.2-2.5-0.5c-0.6-0.3-1-0.7-1.3-1.2c-0.3-0.5-0.4-1-0.5-1.6c-0.1-0.6-0.1-1.2-0.1-1.8v-7.7h-3.2V70h3.2v-4.1h2.8V70h4
			V72.4z"/>
    <path fill="#fff" d="M176.7,77.4c0-1.1,0.2-2.1,0.6-3c0.4-0.9,1-1.8,1.7-2.5c0.7-0.7,1.5-1.3,2.5-1.7c1-0.4,2-0.6,3.1-0.6
			c1.1,0,2.1,0.2,3.1,0.6c1,0.4,1.8,1,2.5,1.7c0.7,0.7,1.3,1.5,1.7,2.5c0.4,0.9,0.6,1.9,0.6,3s-0.2,2.1-0.6,3
			c-0.4,0.9-1,1.8-1.7,2.5c-0.7,0.7-1.5,1.2-2.5,1.7c-1,0.4-2,0.6-3.1,0.6c-1.1,0-2.1-0.2-3.1-0.6c-1-0.4-1.8-1-2.5-1.7
			c-0.7-0.7-1.3-1.5-1.7-2.5C176.9,79.5,176.7,78.5,176.7,77.4z M179.7,77.4c0,0.7,0.1,1.4,0.3,2.1c0.2,0.6,0.6,1.2,1,1.6
			c0.4,0.4,0.9,0.8,1.5,1.1c0.6,0.3,1.3,0.4,2,0.4c0.7,0,1.4-0.1,2-0.4c0.6-0.3,1.1-0.6,1.5-1.1c0.4-0.4,0.7-1,1-1.6
			c0.2-0.6,0.3-1.3,0.3-2.1s-0.1-1.4-0.3-2.1c-0.2-0.6-0.6-1.2-1-1.6c-0.4-0.4-0.9-0.8-1.5-1.1c-0.6-0.3-1.3-0.4-2-0.4
			c-0.7,0-1.4,0.1-2,0.4c-0.6,0.3-1.1,0.6-1.5,1.1c-0.4,0.4-0.7,1-1,1.6C179.8,76,179.7,76.6,179.7,77.4z"/>
    <path fill="#fff" d="M194.2,70h2.8v2.3h0.1c0.2-0.4,0.4-0.8,0.7-1.1c0.3-0.3,0.7-0.6,1-0.8c0.4-0.2,0.8-0.4,1.3-0.5
			s0.9-0.2,1.4-0.2c0.5,0,0.9,0.1,1.2,0.2l-0.1,3c-0.2-0.1-0.5-0.1-0.7-0.2c-0.2,0-0.5-0.1-0.7-0.1c-1.4,0-2.4,0.4-3.1,1.2
			c-0.7,0.8-1.1,2-1.1,3.6v7.4h-2.8V70z"/>
    <path fill="#fff" d="M218.1,84.8h-2.8v-2.3h-0.1c-0.4,0.8-1,1.4-1.8,1.9c-0.9,0.5-1.9,0.7-3,0.7c-0.7,0-1.4-0.1-2.1-0.3
			c-0.6-0.2-1.2-0.6-1.7-1c-0.5-0.5-0.9-1-1.2-1.8c-0.3-0.7-0.4-1.6-0.4-2.5V70h2.8v8.7c0,0.7,0.1,1.3,0.3,1.8
			c0.2,0.5,0.4,0.9,0.7,1.2c0.3,0.3,0.7,0.5,1.1,0.7c0.4,0.1,0.8,0.2,1.3,0.2c0.6,0,1.1-0.1,1.6-0.3c0.5-0.2,0.9-0.5,1.3-0.9
			c0.4-0.4,0.7-0.9,0.9-1.5c0.2-0.6,0.3-1.4,0.3-2.2V70h2.8V84.8z"/>
    <path fill="#fff" d="M221.5,70h2.6v2.3h0.1c0.1-0.2,0.2-0.5,0.5-0.8c0.3-0.3,0.6-0.6,1-0.9c0.4-0.3,0.9-0.5,1.4-0.7
			c0.6-0.2,1.2-0.3,1.8-0.3c1.1,0,2,0.2,2.8,0.7c0.7,0.5,1.4,1.1,1.8,2.1c0.5-0.9,1.2-1.6,2-2.1c0.9-0.5,1.8-0.7,2.7-0.7
			c1.1,0,2.1,0.2,2.8,0.6c0.7,0.4,1.3,0.9,1.7,1.5c0.4,0.6,0.7,1.3,0.9,2.1c0.2,0.8,0.2,1.6,0.2,2.4v8.6h-2.8v-8.2
			c0-0.6,0-1.1-0.1-1.6c-0.1-0.5-0.2-1-0.5-1.4c-0.2-0.4-0.6-0.7-1-1c-0.4-0.2-1-0.4-1.7-0.4c-1.4,0-2.3,0.4-2.9,1.2
			c-0.6,0.8-0.9,1.9-0.9,3.2v8.1h-2.8v-7.7c0-0.7,0-1.4-0.1-1.9c-0.1-0.6-0.2-1.1-0.4-1.5c-0.2-0.4-0.5-0.8-0.9-1
			c-0.4-0.2-1-0.4-1.6-0.4c-0.5,0-1,0.1-1.5,0.3c-0.5,0.2-0.9,0.5-1.2,0.9c-0.4,0.4-0.6,0.9-0.8,1.5c-0.2,0.6-0.3,1.3-0.3,2.2v7.7
			h-2.8V70z"/>
    <g>
        <path fill="#fff" d="M157.9,94.2c-0.2-0.3-0.5-0.6-0.9-0.7c-0.4-0.2-0.8-0.3-1.2-0.3c-0.3,0-0.5,0-0.8,0.1
				c-0.3,0.1-0.5,0.2-0.8,0.4c-0.2,0.2-0.4,0.4-0.6,0.6c-0.2,0.3-0.2,0.6-0.2,0.9c0,0.2,0,0.5,0.1,0.6c0.1,0.2,0.2,0.3,0.4,0.5
				s0.4,0.3,0.6,0.4c0.2,0.1,0.5,0.2,0.7,0.3c0.4,0.2,0.8,0.3,1.2,0.5c0.4,0.2,0.7,0.4,0.9,0.7c0.3,0.3,0.5,0.5,0.6,0.9
				c0.2,0.3,0.2,0.7,0.2,1.1c0,0.5-0.1,1-0.3,1.4s-0.5,0.8-0.8,1.1c-0.4,0.3-0.8,0.6-1.3,0.8c-0.5,0.2-1.1,0.3-1.8,0.3
				c-0.4,0-0.7,0-1.1-0.1c-0.4-0.1-0.7-0.2-1-0.3c-0.3-0.1-0.6-0.3-0.9-0.5c-0.3-0.2-0.5-0.5-0.7-0.8l1.3-0.9c0.2,0.4,0.5,0.7,1,0.9
				c0.4,0.3,0.9,0.4,1.5,0.4c0.3,0,0.6,0,0.9-0.1c0.3-0.1,0.6-0.2,0.8-0.4c0.2-0.2,0.4-0.4,0.6-0.7c0.1-0.3,0.2-0.6,0.2-0.9
				c0-0.3-0.1-0.5-0.2-0.8c-0.1-0.2-0.3-0.4-0.5-0.6c-0.2-0.2-0.4-0.3-0.7-0.4c-0.3-0.1-0.5-0.2-0.8-0.3c-0.3-0.1-0.7-0.3-1-0.4
				c-0.3-0.2-0.6-0.4-0.8-0.6c-0.2-0.2-0.4-0.5-0.6-0.8c-0.1-0.3-0.2-0.7-0.2-1.1c0-0.5,0.1-1,0.3-1.4c0.2-0.4,0.5-0.8,0.9-1.1
				s0.8-0.5,1.3-0.7c0.5-0.2,1.1-0.2,1.7-0.2c0.7,0,1.3,0.1,1.8,0.4s1,0.6,1.3,1L157.9,94.2z"/>
        <path fill="#fff" d="M160.9,103.5h-1.5l1.3-7.6h1.5L160.9,103.5z M162.9,93.1c0,0.3-0.1,0.5-0.3,0.7c-0.2,0.2-0.4,0.3-0.7,0.3
				c-0.3,0-0.5-0.1-0.7-0.2c-0.2-0.2-0.3-0.4-0.3-0.7s0.1-0.5,0.3-0.7c0.2-0.2,0.4-0.3,0.7-0.3s0.5,0.1,0.6,0.3
				C162.8,92.6,162.9,92.8,162.9,93.1z"/>
        <path fill="#fff" d="M164.8,103.5h-1.5l2.1-12.1h1.5L164.8,103.5z"/>
        <path fill="#fff" d="M168.6,103.5h-1.5l1.3-7.6h1.5L168.6,103.5z M170.6,93.1c0,0.3-0.1,0.5-0.3,0.7c-0.2,0.2-0.4,0.3-0.7,0.3
				c-0.3,0-0.5-0.1-0.7-0.2c-0.2-0.2-0.3-0.4-0.3-0.7s0.1-0.5,0.3-0.7c0.2-0.2,0.4-0.3,0.7-0.3s0.5,0.1,0.6,0.3
				C170.5,92.6,170.6,92.8,170.6,93.1z"/>
        <path fill="#fff" d="M177.2,97.8c-0.1-0.3-0.3-0.5-0.6-0.6c-0.3-0.2-0.6-0.3-1-0.3c-0.4,0-0.8,0.1-1.2,0.3s-0.7,0.4-1,0.7
				s-0.5,0.7-0.6,1.1c-0.1,0.4-0.2,0.8-0.2,1.3c0,0.3,0,0.6,0.1,0.9s0.2,0.5,0.4,0.7c0.2,0.2,0.4,0.4,0.7,0.5c0.3,0.1,0.6,0.2,1,0.2
				c0.5,0,0.9-0.1,1.2-0.3s0.6-0.4,0.9-0.7l0.9,0.8c-0.4,0.4-0.9,0.7-1.4,1c-0.5,0.2-1.1,0.4-1.7,0.4c-0.5,0-1-0.1-1.5-0.2
				s-0.8-0.4-1.1-0.7s-0.5-0.6-0.7-1c-0.2-0.4-0.3-0.8-0.3-1.3c0-0.6,0.1-1.2,0.3-1.8c0.2-0.6,0.5-1.1,0.9-1.5
				c0.4-0.4,0.9-0.8,1.4-1c0.6-0.3,1.2-0.4,1.9-0.4c0.3,0,0.6,0,0.8,0.1c0.3,0.1,0.5,0.1,0.8,0.2c0.2,0.1,0.5,0.2,0.7,0.4
				s0.4,0.4,0.5,0.6L177.2,97.8z"/>
        <path fill="#fff" d="M182.2,103.7c-0.5,0-1-0.1-1.4-0.2s-0.8-0.4-1.1-0.7s-0.6-0.6-0.8-1s-0.3-0.9-0.3-1.3
				c0-0.6,0.1-1.2,0.3-1.8c0.2-0.6,0.5-1.1,0.9-1.5c0.4-0.4,0.9-0.8,1.4-1c0.6-0.2,1.2-0.4,1.9-0.4c0.5,0,1,0.1,1.4,0.2
				c0.4,0.2,0.8,0.4,1.1,0.7c0.3,0.3,0.6,0.6,0.7,1c0.2,0.4,0.3,0.8,0.3,1.3c0,0.6-0.1,1.2-0.3,1.8c-0.2,0.6-0.5,1.1-0.9,1.5
				c-0.4,0.4-0.9,0.8-1.4,1C183.5,103.6,182.9,103.7,182.2,103.7z M185.2,99.1c0-0.3-0.1-0.6-0.2-0.9c-0.1-0.3-0.2-0.5-0.4-0.7
				s-0.4-0.4-0.7-0.5c-0.3-0.1-0.6-0.2-0.9-0.2c-0.4,0-0.8,0.1-1.2,0.3c-0.4,0.2-0.7,0.4-0.9,0.7c-0.3,0.3-0.5,0.7-0.6,1.1
				c-0.1,0.4-0.2,0.8-0.2,1.3c0,0.6,0.2,1.2,0.6,1.6c0.4,0.4,0.9,0.6,1.6,0.6c0.4,0,0.8-0.1,1.2-0.3c0.4-0.2,0.7-0.4,0.9-0.7
				c0.3-0.3,0.5-0.7,0.6-1.1C185.1,100,185.2,99.6,185.2,99.1z"/>
        <path fill="#fff" d="M190.5,95.9c0,0.1,0,0.3-0.1,0.6c0,0.3-0.1,0.5-0.1,0.6h0c0.3-0.4,0.6-0.8,1.1-1c0.4-0.3,0.9-0.4,1.5-0.4
				c0.8,0,1.5,0.2,1.9,0.7c0.4,0.4,0.6,1,0.6,1.7c0,0.3,0,0.5-0.1,0.8l-0.8,4.7h-1.5l0.7-4.2c0.1-0.3,0.1-0.6,0.1-0.8
				c0-0.4-0.1-0.8-0.3-1.1c-0.2-0.3-0.6-0.4-1.2-0.4c-0.6,0-1.1,0.2-1.6,0.7s-0.7,1.1-0.9,1.8l-0.7,4h-1.5l1-5.9
				c0-0.2,0.1-0.5,0.1-0.8c0-0.3,0.1-0.6,0.1-0.9H190.5z"/>
        <path fill="#fff" d="M203.9,101.4L203.9,101.4l5.5-9.3h1.7l-6.9,11.3h-1.5L201,92.1h1.7L203.9,101.4z"/>
        <path fill="#fff" d="M214.9,98.7c0-0.1,0-0.3,0-0.4s0-0.2,0-0.2c0-0.4-0.1-0.8-0.4-1c-0.3-0.2-0.7-0.3-1.2-0.3
				c-0.4,0-0.8,0.1-1.2,0.2c-0.4,0.2-0.8,0.4-1.1,0.6l-0.6-1c0.4-0.3,0.9-0.6,1.4-0.8s1.1-0.3,1.7-0.3c0.4,0,0.7,0,1,0.1
				s0.6,0.2,0.9,0.4c0.3,0.2,0.5,0.4,0.6,0.7s0.2,0.6,0.2,1c0,0.1,0,0.2,0,0.4s0,0.3,0,0.4l-0.6,3.1c-0.1,0.3-0.1,0.6-0.1,0.9
				s0,0.6,0,0.8h-1.4c0-0.2,0-0.3,0-0.5c0-0.2,0-0.4,0.1-0.5h0c-0.4,0.4-0.8,0.7-1.2,0.9s-0.9,0.3-1.5,0.3c-0.3,0-0.5,0-0.8-0.1
				c-0.3-0.1-0.5-0.2-0.8-0.3c-0.2-0.2-0.4-0.4-0.6-0.6s-0.2-0.6-0.2-1c0-0.6,0.2-1.1,0.5-1.5c0.3-0.4,0.8-0.7,1.3-0.9
				c0.5-0.2,1.1-0.3,1.8-0.4S214.2,98.7,214.9,98.7z M214.5,99.8c-0.4,0-0.8,0-1.3,0.1c-0.4,0-0.9,0.1-1.2,0.2s-0.7,0.3-0.9,0.5
				c-0.2,0.2-0.4,0.5-0.4,0.8c0,0.2,0,0.4,0.1,0.5c0.1,0.1,0.2,0.2,0.3,0.3c0.1,0.1,0.3,0.1,0.4,0.2c0.2,0,0.3,0,0.5,0
				c0.3,0,0.6-0.1,0.9-0.2c0.3-0.1,0.5-0.3,0.8-0.5c0.2-0.2,0.4-0.4,0.5-0.7c0.1-0.3,0.2-0.5,0.3-0.8l0.1-0.6H214.5z"/>
        <path fill="#fff" d="M219.2,103.5h-1.5l2.1-12.1h1.5L219.2,103.5z"/>
        <path fill="#fff" d="M223.1,103.5h-1.5l2.1-12.1h1.5L223.1,103.5z"/>
        <path fill="#fff" d="M226.9,100.1c0,0.1,0,0.1,0,0.1s0,0.1,0,0.1c0,0.3,0.1,0.6,0.2,0.8c0.1,0.2,0.3,0.5,0.5,0.7
				c0.2,0.2,0.4,0.3,0.7,0.4c0.3,0.1,0.6,0.2,0.9,0.2c0.5,0,1-0.1,1.4-0.3s0.7-0.5,1-0.8l0.9,0.8c-0.4,0.5-1,0.9-1.5,1.2
				c-0.6,0.3-1.2,0.4-1.9,0.4c-0.5,0-1-0.1-1.4-0.2c-0.4-0.1-0.8-0.4-1.1-0.7c-0.3-0.3-0.6-0.6-0.7-1.1s-0.3-0.9-0.3-1.4
				c0-0.6,0.1-1.2,0.3-1.8c0.2-0.6,0.5-1.1,0.9-1.5c0.4-0.4,0.9-0.8,1.4-1s1.1-0.4,1.8-0.4c1,0,1.7,0.3,2.3,0.8s0.8,1.3,0.8,2.2
				c0,0.1,0,0.4,0,0.6c0,0.3-0.1,0.5-0.1,0.8H226.9z M231.6,99c0-0.1,0-0.2,0-0.2c0-0.1,0-0.2,0-0.2c0-0.5-0.2-0.9-0.5-1.2
				c-0.3-0.3-0.8-0.5-1.4-0.5c-0.4,0-0.7,0.1-1,0.2s-0.6,0.3-0.8,0.5c-0.2,0.2-0.4,0.4-0.6,0.7c-0.2,0.3-0.3,0.5-0.3,0.8H231.6z"/>
        <path fill="#fff" d="M237,101.9L237,101.9l3.4-6h1.6l-5.6,9.4c-0.2,0.3-0.4,0.6-0.6,0.9c-0.2,0.2-0.4,0.5-0.6,0.6
				c-0.2,0.2-0.4,0.3-0.7,0.4c-0.3,0.1-0.5,0.1-0.9,0.1c-0.3,0-0.6,0-0.9-0.1l0.2-1.3c0.2,0.1,0.5,0.1,0.7,0.1
				c0.3,0,0.6-0.1,0.8-0.3c0.2-0.2,0.5-0.5,0.7-0.9l0.8-1.3l-1.7-7.6h1.6L237,101.9z"/>
    </g>
</svg>
